{
.appVersion = "1352";
classes = (
{
code = "ra-kannada.below rVocalicMatra-kannada rrVocalicMatra-kannada ailength-kannada ka-kannada.below kha-kannada.below ga-kannada.below gha-kannada.below nga-kannada.below ca-kannada.below cha-kannada.below ja-kannada.below jha-kannada.below nya-kannada.below tta-kannada.below ttha-kannada.below dda-kannada.below ddha-kannada.below nna-kannada.below ta-kannada.below tha-kannada.below da-kannada.below dha-kannada.below na-kannada.below pa-kannada.below pha-kannada.below ba-kannada.below bha-kannada.below ma-kannada.below ya-kannada.below la-kannada.below va-kannada.below sha-kannada.below ssa-kannada.below sa-kannada.below ha-kannada.below rra-kannada.below lla-kannada.below fa-kannada.below ka_ssa-kannada.below ta_ra-kannada.below ";
name = BELOW_BASE_MARKS;
},
{
code = " ra-kannada.below.following rVocalicMatra-kannada.following rrVocalicMatra-kannada.following ailength-kannada.following ka-kannada.below.following kha-kannada.below.following ga-kannada.below.following gha-kannada.below.following nga-kannada.below.following ca-kannada.below.following cha-kannada.below.following ja-kannada.below.following jha-kannada.below.following nya-kannada.below.following tta-kannada.below.following ttha-kannada.below.following dda-kannada.below.following ddha-kannada.below.following nna-kannada.below.following ta-kannada.below.following tha-kannada.below.following da-kannada.below.following dha-kannada.below.following na-kannada.below.following pa-kannada.below.following pha-kannada.below.following ba-kannada.below.following bha-kannada.below.following ma-kannada.below.following ya-kannada.below.following la-kannada.below.following va-kannada.below.following sha-kannada.below.following ssa-kannada.below.following sa-kannada.below.following ha-kannada.below.following rra-kannada.below.following lla-kannada.below.following fa-kannada.below.following ka_ssa-kannada.below.following ta_ra-kannada.below.following ";

glyphs = (
{
color = 6;
glyphname = A;
lastChange = "2016-04-29 04:27:07 +0000";
layers = (
{
anchors = (
{
name = top;
position = "{287, 538}";
}
);
layerId = "5A9DA08A-6EB1-451A-A52A-FC81F1DBA669";
paths = (
{
closed = 1;
nodes = (
"505 0 CURVE SMOOTH",
"518 0 OFFCURVE",
"530 12 OFFCURVE",
"530 25 CURVE SMOOTH",
"530 28 OFFCURVE",
"529 33 OFFCURVE",
"519 57 CURVE SMOOTH",
"480 156 OFFCURVE",
"382 375 OFFCURVE",
"310 530 CURVE SMOOTH",
"306 539 OFFCURVE",
"296 544 OFFCURVE",
"286 544 CURVE SMOOTH",
"282 544 LINE SMOOTH",
"272 544 OFFCURVE",
"262 538 OFFCURVE",
"258 529 CURVE SMOOTH",
"189 376 OFFCURVE",
"103 178 OFFCURVE",
"58 57 CURVE SMOOTH",
"49 34 OFFCURVE",
"48 30 OFFCURVE",
"48 26 CURVE SMOOTH",
"48 11 OFFCURVE",
"60 0 OFFCURVE",
"72 0 CURVE SMOOTH",
"82 0 OFFCURVE",
"93 6 OFFCURVE",
"97 17 CURVE SMOOTH",
"110 53 OFFCURVE",
"127 97 OFFCURVE",
"146 145 CURVE",
"428 145 LINE",
"449 97 OFFCURVE",
"468 52 OFFCURVE",
"482 16 CURVE SMOOTH",
"486 6 OFFCURVE",
"495 0 OFFCURVE"
);
},
{
closed = 1;
nodes = (
"407 195 CURVE",
"167 195 LINE",
"204 284 OFFCURVE",
"247 380 OFFCURVE",
"284 465 CURVE",
"324 381 OFFCURVE",
"368 284 OFFCURVE"
);
}
);
width = 580;
}
);
leftKerningGroup = A;
note = A;
rightKerningGroup = A;
unicode = 0041;
userData = {
com.typemytype.robofont.layerData = {
background = {
anchors = (
);
components = (
);
contours = (
);
lib = {
};
name = A;
unicodes = (
);
width = 580;
};
};
};
},
{
glyphname = Aacute;
lastChange = "2016-04-29 04:27:07 +0000";
layers = (
{
background = {
components = (
{
name = A;
},
{
name = acutecomb.case;
transform = "{1, 0, 0, 1, 284, 12}";
}
);
paths = (
{
closed = 1;
nodes = (
"505 0 CURVE SMOOTH",
"518 0 OFFCURVE",
"530 12 OFFCURVE",
"530 25 CURVE SMOOTH",
"530 28 OFFCURVE",
"529 33 OFFCURVE",
"519 57 CURVE SMOOTH",
"480 156 OFFCURVE",
"382 375 OFFCURVE",
"310 530 CURVE SMOOTH",
"306 539 OFFCURVE",
"296 544 OFFCURVE",
"286 544 CURVE SMOOTH",
"282 544 LINE SMOOTH",
"272 544 OFFCURVE",
"262 538 OFFCURVE",
"258 529 CURVE SMOOTH",
"189 376 OFFCURVE",
"103 178 OFFCURVE",
"58 57 CURVE SMOOTH",
"49 34 OFFCURVE",
"48 30 OFFCURVE",
"48 26 CURVE SMOOTH",
"48 11 OFFCURVE",
"60 0 OFFCURVE",
"72 0 CURVE SMOOTH",
"82 0 OFFCURVE",
"93 6 OFFCURVE",
"97 17 CURVE SMOOTH",
"110 53 OFFCURVE",
"127 97 OFFCURVE",
"146 145 CURVE",
"428 145 LINE",
"449 97 OFFCURVE",
"468 52 OFFCURVE",
"482 16 CURVE SMOOTH",
"486 6 OFFCURVE",
"495 0 OFFCURVE"
);
},
{
closed = 1;
nodes = (
"407 195 CURVE",
"167 195 LINE",
"204 284 OFFCURVE",
"247 380 OFFCURVE",
"284 465 CURVE",
"324 381 OFFCURVE",
"368 284 OFFCURVE"
);
},
{
closed = 1;
nodes = (
"410 708 CURVE SMOOTH",
"417 712 OFFCURVE",
"421 720 OFFCURVE",
"421 728 CURVE SMOOTH",
"421 738 OFFCURVE",
"412 749 OFFCURVE",
"398 749 CURVE SMOOTH",
"395 749 OFFCURVE",
"391 748 OFFCURVE",
"388 746 CURVE SMOOTH",
"341 719 OFFCURVE",
"293 687 OFFCURVE",
"263 666 CURVE SMOOTH",
"257 662 OFFCURVE",
"254 655 OFFCURVE",
"254 648 CURVE SMOOTH",
"254 636 OFFCURVE",
"263 626 OFFCURVE",
"276 626 CURVE SMOOTH",
"280 626 OFFCURVE",
"285 627 OFFCURVE",
"289 630 CURVE SMOOTH",
"317 651 OFFCURVE",
"365 681 OFFCURVE"
);
}
);
};
components = (
{
name = A;
},
{
name = acutecomb.case;
transform = "{1, 0, 0, 1, 287, 3}";
}
);
layerId = "5A9DA08A-6EB1-451A-A52A-FC81F1DBA669";
width = 580;
}
);
leftKerningGroup = A;
note = Aacute;
rightKerningGroup = A;
unicode = 00C1;
userData = {
com.typemytype.robofont.layerData = {
background = {
anchors = (
);
components = (
);
contours = (
);
lib = {
};
name = Aacute;
unicodes = (
);
width = 580;
};
};
};
},
{
glyphname = Abreve;
lastChange = "2016-04-29 04:27:07 +0000";
layers = (
{
background = {
paths = (
{
closed = 1;
nodes = (
"181 745 CURVE SMOOTH",
"177 750 OFFCURVE",
"171 753 OFFCURVE",
"164 753 CURVE SMOOTH",
"152 753 OFFCURVE",
"142 743 OFFCURVE",
"142 731 CURVE SMOOTH",
"142 726 OFFCURVE",
"144 721 OFFCURVE",
"147 717 CURVE SMOOTH",
"180 675 OFFCURVE",
"229 646 OFFCURVE",
"283 646 CURVE SMOOTH",
"344 646 OFFCURVE",
"386 675 OFFCURVE",
"417 719 CURVE SMOOTH",
"419 722 OFFCURVE",
"421 726 OFFCURVE",
"421 730 CURVE SMOOTH",
"421 742 OFFCURVE",
"412 753 OFFCURVE",
"400 753 CURVE SMOOTH",
"393 753 OFFCURVE",
"385 749 OFFCURVE",
"381 743 CURVE SMOOTH",
"359 711 OFFCURVE",
"328 690 OFFCURVE",
"283 690 CURVE SMOOTH",
"243 690 OFFCURVE",
"206 713 OFFCURVE"
);
},
{
closed = 1;
nodes = (
"505 0 CURVE SMOOTH",
"518 0 OFFCURVE",
"530 12 OFFCURVE",
"530 25 CURVE SMOOTH",
"530 28 OFFCURVE",
"529 33 OFFCURVE",
"519 57 CURVE SMOOTH",
"480 156 OFFCURVE",
"382 375 OFFCURVE",
"310 530 CURVE SMOOTH",
"306 539 OFFCURVE",
"296 544 OFFCURVE",
"286 544 CURVE SMOOTH",
"282 544 LINE SMOOTH",
"272 544 OFFCURVE",
"262 538 OFFCURVE",
"258 529 CURVE SMOOTH",
"189 376 OFFCURVE",
"103 178 OFFCURVE",
"58 57 CURVE SMOOTH",
"49 34 OFFCURVE",
"48 30 OFFCURVE",
"48 26 CURVE SMOOTH",
"48 11 OFFCURVE",
"60 0 OFFCURVE",
"72 0 CURVE SMOOTH",
"82 0 OFFCURVE",
"93 6 OFFCURVE",
"97 17 CURVE SMOOTH",
"110 53 OFFCURVE",
"127 97 OFFCURVE",
"146 145 CURVE",
"428 145 LINE",
"449 97 OFFCURVE",
"468 52 OFFCURVE",
"482 16 CURVE SMOOTH",
"486 6 OFFCURVE",
"495 0 OFFCURVE"
);
},
{
closed = 1;
nodes = (
"407 195 CURVE",
"167 195 LINE",
"204 284 OFFCURVE",
"247 380 OFFCURVE",
"284 465 CURVE",
"324 381 OFFCURVE",
"368 284 OFFCURVE"
);
}
);
};
components = (
{
name = A;
},
{
name = brevecomb.case;
transform = "{1, 0, 0, 1, 287, 3}";
}
);
guideLines = (
{
angle = 90;
position = "{283, 398}";
}
);
layerId = "5A9DA08A-6EB1-451A-A52A-FC81F1DBA669";
width = 580;
}
);
leftKerningGroup = A;
note = Abreve;
rightKerningGroup = A;
unicode = 0102;
userData = {
com.typemytype.robofont.guides = (
{
angle = 90;
isGlobal = 0;
magnetic = 5;
x = 283;
y = 398;
}
);
com.typemytype.robofont.layerData = {
background = {
anchors = (
);
components = (
);
contours = (
);
lib = {
};
name = Abreve;
unicodes = (
);
width = 580;
};
};
};
},
{
glyphname = Acircumflex;
lastChange = "2016-04-29 04:27:07 +0000";
layers = (
{
background = {
paths = (
{
closed = 1;
nodes = (
"383 614 CURVE SMOOTH",
"397 614 OFFCURVE",
"406 624 OFFCURVE",
"406 635 CURVE SMOOTH",
"406 642 OFFCURVE",
"403 649 OFFCURVE",
"397 654 CURVE SMOOTH",
"369 675 OFFCURVE",
"335 699 OFFCURVE",
"301 723 CURVE SMOOTH",
"297 726 OFFCURVE",
"291 728 OFFCURVE",
"287 728 CURVE SMOOTH",
"282 728 LINE SMOOTH",
"278 728 OFFCURVE",
"272 726 OFFCURVE",
"268 723 CURVE SMOOTH",
"235 699 OFFCURVE",
"200 675 OFFCURVE",
"172 654 CURVE SMOOTH",
"166 649 OFFCURVE",
"163 642 OFFCURVE",
"163 635 CURVE SMOOTH",
"163 623 OFFCURVE",
"173 614 OFFCURVE",
"186 614 CURVE SMOOTH",
"190 614 OFFCURVE",
"194 615 OFFCURVE",
"198 618 CURVE SMOOTH",
"223 637 OFFCURVE",
"254 658 OFFCURVE",
"285 680 CURVE",
"315 658 OFFCURVE",
"346 637 OFFCURVE",
"371 618 CURVE SMOOTH",
"375 615 OFFCURVE",
"379 614 OFFCURVE"
);
},
{
closed = 1;
nodes = (
"505 0 CURVE SMOOTH",
"518 0 OFFCURVE",
"530 12 OFFCURVE",
"530 25 CURVE SMOOTH",
"530 28 OFFCURVE",
"529 33 OFFCURVE",
"519 57 CURVE SMOOTH",
"480 156 OFFCURVE",
"382 375 OFFCURVE",
"310 530 CURVE SMOOTH",
"306 539 OFFCURVE",
"296 544 OFFCURVE",
"286 544 CURVE SMOOTH",
"282 544 LINE SMOOTH",
"272 544 OFFCURVE",
"262 538 OFFCURVE",
"258 529 CURVE SMOOTH",
"189 376 OFFCURVE",
"103 178 OFFCURVE",
"58 57 CURVE SMOOTH",
"49 34 OFFCURVE",
"48 30 OFFCURVE",
"48 26 CURVE SMOOTH",
"48 11 OFFCURVE",
"60 0 OFFCURVE",
"72 0 CURVE SMOOTH",
"82 0 OFFCURVE",
"93 6 OFFCURVE",
"97 17 CURVE SMOOTH",
"110 53 OFFCURVE",
"127 97 OFFCURVE",
"146 145 CURVE",
"428 145 LINE",
"449 97 OFFCURVE",
"468 52 OFFCURVE",
"482 16 CURVE SMOOTH",
"486 6 OFFCURVE",
"495 0 OFFCURVE"
);
},
{
closed = 1;
nodes = (
"407 195 CURVE",
"167 195 LINE",
"204 284 OFFCURVE",
"247 380 OFFCURVE",
"284 465 CURVE",
"324 381 OFFCURVE",
"368 284 OFFCURVE"
);
}
);
};
components = (
{
name = A;
},
{
alignment = -1;
name = circumflexcomb.case;
transform = "{1, 0, 0, 1, 287, -19}";
}
);
guideLines = (
{
angle = 90;
position = "{286, 476}";
}
);
layerId = "5A9DA08A-6EB1-451A-A52A-FC81F1DBA669";
width = 580;
}
);
leftKerningGroup = A;
note = Acircumflex;
rightKerningGroup = A;
unicode = 00C2;
userData = {
com.typemytype.robofont.guides = (
{
angle = 90;
isGlobal = 0;
magnetic = 5;
x = 286;
y = 476;
}
);
com.typemytype.robofont.layerData = {
background = {
anchors = (
);
components = (
);
contours = (
);
lib = {
};
name = Acircumflex;
unicodes = (
);
width = 580;
};
};
};
},
{
glyphname = Adieresis;
lastChange = "2016-04-29 04:27:07 +0000";
layers = (
{
background = {
paths = (
{
closed = 1;
nodes = (
"380 710 CURVE SMOOTH",
"360 710 OFFCURVE",
"341 692 OFFCURVE",
"341 662 CURVE SMOOTH",
"341 630 OFFCURVE",
"360 614 OFFCURVE",
"380 614 CURVE SMOOTH",
"398 614 OFFCURVE",
"418 629 OFFCURVE",
"418 662 CURVE SMOOTH",
"418 693 OFFCURVE",
"398 710 OFFCURVE"
);
},
{
closed = 1;
nodes = (
"187 710 CURVE SMOOTH",
"167 710 OFFCURVE",
"147 691 OFFCURVE",
"147 662 CURVE SMOOTH",
"147 631 OFFCURVE",
"167 614 OFFCURVE",
"187 614 CURVE SMOOTH",
"205 614 OFFCURVE",
"225 629 OFFCURVE",
"225 662 CURVE SMOOTH",
"225 693 OFFCURVE",
"205 710 OFFCURVE"
);
},
{
closed = 1;
nodes = (
"505 0 CURVE SMOOTH",
"518 0 OFFCURVE",
"530 12 OFFCURVE",
"530 25 CURVE SMOOTH",
"530 28 OFFCURVE",
"529 33 OFFCURVE",
"519 57 CURVE SMOOTH",
"480 156 OFFCURVE",
"382 375 OFFCURVE",
"310 530 CURVE SMOOTH",
"306 539 OFFCURVE",
"296 544 OFFCURVE",
"286 544 CURVE SMOOTH",
"282 544 LINE SMOOTH",
"272 544 OFFCURVE",
"262 538 OFFCURVE",
"258 529 CURVE SMOOTH",
"189 376 OFFCURVE",
"103 178 OFFCURVE",
"58 57 CURVE SMOOTH",
"49 34 OFFCURVE",
"48 30 OFFCURVE",
"48 26 CURVE SMOOTH",
"48 11 OFFCURVE",
"60 0 OFFCURVE",
"72 0 CURVE SMOOTH",
"82 0 OFFCURVE",
"93 6 OFFCURVE",
"97 17 CURVE SMOOTH",
"110 53 OFFCURVE",
"127 97 OFFCURVE",
"146 145 CURVE",
"428 145 LINE",
"449 97 OFFCURVE",
"468 52 OFFCURVE",
"482 16 CURVE SMOOTH",
"486 6 OFFCURVE",
"495 0 OFFCURVE"
);
},
{
closed = 1;
nodes = (
"407 195 CURVE",
"167 195 LINE",
"204 284 OFFCURVE",
"247 380 OFFCURVE",
"284 465 CURVE",
"324 381 OFFCURVE",
"368 284 OFFCURVE"
);
}
);
};
components = (
{
name = A;
},
{
alignment = -1;
name = dieresiscomb.case;
transform = "{1, 0, 0, 1, 287, -18}";
}
);
layerId = "5A9DA08A-6EB1-451A-A52A-FC81F1DBA669";
width = 580;
}
);
leftKerningGroup = A;
note = Adieresis;
rightKerningGroup = A;
unicode = 00C4;
userData = {
com.typemytype.robofont.layerData = {
background = {
anchors = (
);
components = (
);
contours = (
);
lib = {
};
name = Adieresis;
unicodes = (
);
width = 580;
};
};
};
},
{
glyphname = Agrave;
lastChange = "2016-04-29 04:27:07 +0000";
layers = (
{
background = {
paths = (
{
closed = 1;
nodes = (
"505 0 CURVE SMOOTH",
"518 0 OFFCURVE",
"530 12 OFFCURVE",
"530 25 CURVE SMOOTH",
"530 28 OFFCURVE",
"529 33 OFFCURVE",
"519 57 CURVE SMOOTH",
"480 156 OFFCURVE",
"382 375 OFFCURVE",
"310 530 CURVE SMOOTH",
"306 539 OFFCURVE",
"296 544 OFFCURVE",
"286 544 CURVE SMOOTH",
"282 544 LINE SMOOTH",
"272 544 OFFCURVE",
"262 538 OFFCURVE",
"258 529 CURVE SMOOTH",
"189 376 OFFCURVE",
"103 178 OFFCURVE",
"58 57 CURVE SMOOTH",
"49 34 OFFCURVE",
"48 30 OFFCURVE",
"48 26 CURVE SMOOTH",
"48 11 OFFCURVE",
"60 0 OFFCURVE",
"72 0 CURVE SMOOTH",
"82 0 OFFCURVE",
"93 6 OFFCURVE",
"97 17 CURVE SMOOTH",
"110 53 OFFCURVE",
"127 97 OFFCURVE",
"146 145 CURVE",
"428 145 LINE",
"449 97 OFFCURVE",
"468 52 OFFCURVE",
"482 16 CURVE SMOOTH",
"486 6 OFFCURVE",
"495 0 OFFCURVE"
);
},
{
closed = 1;
nodes = (
"407 195 CURVE",
"167 195 LINE",
"204 284 OFFCURVE",
"247 380 OFFCURVE",
"284 465 CURVE",
"324 381 OFFCURVE",
"368 284 OFFCURVE"
);
},
{
closed = 1;
nodes = (
"181 747 CURVE SMOOTH",
"177 749 OFFCURVE",
"174 750 OFFCURVE",
"170 750 CURVE SMOOTH",
"158 750 OFFCURVE",
"148 739 OFFCURVE",
"148 728 CURVE SMOOTH",
"148 720 OFFCURVE",
"152 713 OFFCURVE",
"159 709 CURVE SMOOTH",
"194 689 OFFCURVE",
"246 650 OFFCURVE",
"272 630 CURVE SMOOTH",
"276 627 OFFCURVE",
"281 625 OFFCURVE",
"286 625 CURVE SMOOTH",
"298 625 OFFCURVE",
"308 636 OFFCURVE",
"308 647 CURVE SMOOTH",
"308 654 OFFCURVE",
"305 660 OFFCURVE",
"300 664 CURVE SMOOTH",
"272 686 OFFCURVE",
"218 727 OFFCURVE"
);
}
);
};
components = (
{
name = A;
},
{
name = gravecomb.case;
transform = "{1, 0, 0, 1, 287, 3}";
}
);
layerId = "5A9DA08A-6EB1-451A-A52A-FC81F1DBA669";
width = 580;
}
);
leftKerningGroup = A;
note = Agrave;
rightKerningGroup = A;
unicode = 00C0;
userData = {
com.typemytype.robofont.layerData = {
background = {
anchors = (
);
components = (
);
contours = (
);
lib = {
};
name = Agrave;
unicodes = (
);
width = 580;
};
};
};
},
{
glyphname = Amacron;
lastChange = "2016-04-29 04:27:07 +0000";
layers = (
{
background = {
paths = (
{
closed = 1;
nodes = (
"397 664 LINE SMOOTH",
"409 664 OFFCURVE",
"419 674 OFFCURVE",
"419 686 CURVE SMOOTH",
"419 698 OFFCURVE",
"409 708 OFFCURVE",
"397 708 CURVE SMOOTH",
"168 708 LINE SMOOTH",
"156 708 OFFCURVE",
"146 698 OFFCURVE",
"146 686 CURVE SMOOTH",
"146 674 OFFCURVE",
"156 664 OFFCURVE",
"168 664 CURVE SMOOTH"
);
},
{
closed = 1;
nodes = (
"505 0 CURVE SMOOTH",
"518 0 OFFCURVE",
"530 12 OFFCURVE",
"530 25 CURVE SMOOTH",
"530 28 OFFCURVE",
"529 33 OFFCURVE",
"519 57 CURVE SMOOTH",
"480 156 OFFCURVE",
"382 375 OFFCURVE",
"310 530 CURVE SMOOTH",
"306 539 OFFCURVE",
"296 544 OFFCURVE",
"286 544 CURVE SMOOTH",
"282 544 LINE SMOOTH",
"272 544 OFFCURVE",
"262 538 OFFCURVE",
"258 529 CURVE SMOOTH",
"189 376 OFFCURVE",
"103 178 OFFCURVE",
"58 57 CURVE SMOOTH",
"49 34 OFFCURVE",
"48 30 OFFCURVE",
"48 26 CURVE SMOOTH",
"48 11 OFFCURVE",
"60 0 OFFCURVE",
"72 0 CURVE SMOOTH",
"82 0 OFFCURVE",
"93 6 OFFCURVE",
"97 17 CURVE SMOOTH",
"110 53 OFFCURVE",
"127 97 OFFCURVE",
"146 145 CURVE",
"428 145 LINE",
"449 97 OFFCURVE",
"468 52 OFFCURVE",
"482 16 CURVE SMOOTH",
"486 6 OFFCURVE",
"495 0 OFFCURVE"
);
},
{
closed = 1;
nodes = (
"407 195 CURVE",
"167 195 LINE",
"204 284 OFFCURVE",
"247 380 OFFCURVE",
"284 465 CURVE",
"324 381 OFFCURVE",
"368 284 OFFCURVE"
);
}
);
};
components = (
{
name = A;
},
{
name = macroncomb.case;
transform = "{1, 0, 0, 1, 287, 3}";
}
);
layerId = "5A9DA08A-6EB1-451A-A52A-FC81F1DBA669";
width = 580;
}
);
leftKerningGroup = A;
note = Amacron;
rightKerningGroup = A;
unicode = 0100;
userData = {
com.typemytype.robofont.layerData = {
background = {
anchors = (
);
components = (
);
contours = (
);
lib = {
};
name = Amacron;
unicodes = (
);
width = 580;
};
};
};
},
{
glyphname = Aogonek;
lastChange = "2016-04-29 04:27:07 +0000";
layers = (
{
layerId = "5A9DA08A-6EB1-451A-A52A-FC81F1DBA669";
paths = (
{
closed = 1;
nodes = (
"523 -221 CURVE SMOOTH",
"535 -221 OFFCURVE",
"545 -211 OFFCURVE",
"545 -199 CURVE SMOOTH",
"545 -187 OFFCURVE",
"535 -177 OFFCURVE",
"523 -177 CURVE SMOOTH",
"474 -177 OFFCURVE",
"427 -167 OFFCURVE",
"427 -139 CURVE SMOOTH",
"427 -115 OFFCURVE",
"445 -95 OFFCURVE",
"522 -31 CURVE SMOOTH",
"530 -25 OFFCURVE",
"536 -16 OFFCURVE",
"536 -4 CURVE SMOOTH",
"536 9 OFFCURVE",
"531 27 OFFCURVE",
"519 57 CURVE SMOOTH",
"480 155 OFFCURVE",
"382 375 OFFCURVE",
"310 530 CURVE SMOOTH",
"306 539 OFFCURVE",
"296 544 OFFCURVE",
"286 544 CURVE SMOOTH",
"282 544 LINE SMOOTH",
"272 544 OFFCURVE",
"262 538 OFFCURVE",
"258 529 CURVE SMOOTH",
"189 376 OFFCURVE",
"103 178 OFFCURVE",
"58 57 CURVE SMOOTH",
"49 34 OFFCURVE",
"48 30 OFFCURVE",
"48 26 CURVE SMOOTH",
"48 11 OFFCURVE",
"60 0 OFFCURVE",
"72 0 CURVE SMOOTH",
"82 0 OFFCURVE",
"93 6 OFFCURVE",
"97 17 CURVE SMOOTH",
"110 53 OFFCURVE",
"127 97 OFFCURVE",
"146 145 CURVE",
"428 145 LINE",
"448 99 OFFCURVE",
"466 56 OFFCURVE",
"486 6 CURVE",
"486 -4 LINE",
"395 -78 OFFCURVE",
"383 -110 OFFCURVE",
"383 -139 CURVE SMOOTH",
"383 -181 OFFCURVE",
"416 -221 OFFCURVE"
);
},
{
closed = 1;
nodes = (
"407 195 CURVE",
"167 195 LINE",
"204 284 OFFCURVE",
"247 380 OFFCURVE",
"284 465 CURVE",
"324 381 OFFCURVE",
"368 284 OFFCURVE"
);
}
);
width = 580;
}
);
leftKerningGroup = A;
note = Aogonek;
rightKerningGroup = A;
unicode = 0104;
userData = {
com.typemytype.robofont.layerData = {
background = {
anchors = (
);
components = (
);
contours = (
);
lib = {
};
name = Aogonek;
unicodes = (
);
width = 580;
};
};
};
},
{
glyphname = Aring;
lastChange = "2016-04-29 04:27:07 +0000";
layers = (
{
layerId = "5A9DA08A-6EB1-451A-A52A-FC81F1DBA669";
paths = (
{
closed = 1;
nodes = (
"505 0 CURVE SMOOTH",
"518 0 OFFCURVE",
"530 12 OFFCURVE",
"530 25 CURVE SMOOTH",
"530 28 OFFCURVE",
"529 33 OFFCURVE",
"519 57 CURVE SMOOTH",
"482 151 OFFCURVE",
"392 354 OFFCURVE",
"321 507 CURVE",
"365 521 OFFCURVE",
"389 560 OFFCURVE",
"389 600 CURVE SMOOTH",
"389 651 OFFCURVE",
"349 700 OFFCURVE",
"280 700 CURVE SMOOTH",
"213 700 OFFCURVE",
"174 648 OFFCURVE",
"174 600 CURVE SMOOTH",
"174 560 OFFCURVE",
"200 518 OFFCURVE",
"247 505 CURVE",
"181 355 OFFCURVE",
"101 172 OFFCURVE",
"58 57 CURVE SMOOTH",
"49 34 OFFCURVE",
"48 30 OFFCURVE",
"48 26 CURVE SMOOTH",
"48 11 OFFCURVE",
"60 0 OFFCURVE",
"72 0 CURVE SMOOTH",
"82 0 OFFCURVE",
"93 6 OFFCURVE",
"97 17 CURVE SMOOTH",
"110 53 OFFCURVE",
"127 97 OFFCURVE",
"146 145 CURVE",
"428 145 LINE",
"449 97 OFFCURVE",
"468 52 OFFCURVE",
"482 16 CURVE SMOOTH",
"486 6 OFFCURVE",
"495 0 OFFCURVE"
);
},
{
closed = 1;
nodes = (
"345 600 CURVE SMOOTH",
"345 569 OFFCURVE",
"319 544 OFFCURVE",
"280 544 CURVE SMOOTH",
"243 544 OFFCURVE",
"218 572 OFFCURVE",
"218 600 CURVE SMOOTH",
"218 628 OFFCURVE",
"243 656 OFFCURVE",
"280 656 CURVE SMOOTH",
"319 656 OFFCURVE",
"345 631 OFFCURVE"
);
},
{
closed = 1;
nodes = (
"407 195 CURVE",
"167 195 LINE",
"204 284 OFFCURVE",
"247 380 OFFCURVE",
"284 465 CURVE",
"324 381 OFFCURVE",
"368 284 OFFCURVE"
);
}
);
width = 580;
}
);
leftKerningGroup = A;
note = Aring;
rightKerningGroup = A;
unicode = 00C5;
userData = {
com.typemytype.robofont.layerData = {
background = {
anchors = (
);
components = (
);
contours = (
);
lib = {
};
name = Aring;
unicodes = (
);
width = 580;
};
};
};
},
{
glyphname = Atilde;
lastChange = "2016-04-29 04:27:07 +0000";
layers = (
{
background = {
paths = (
{
closed = 1;
nodes = (
"147 664 CURVE SMOOTH",
"144 660 OFFCURVE",
"142 655 OFFCURVE",
"142 650 CURVE SMOOTH",
"142 638 OFFCURVE",
"152 628 OFFCURVE",
"164 628 CURVE SMOOTH",
"171 628 OFFCURVE",
"177 631 OFFCURVE",
"181 636 CURVE SMOOTH",
"198 658 OFFCURVE",
"214 675 OFFCURVE",
"232 675 CURVE SMOOTH",
"249 675 OFFCURVE",
"262 664 OFFCURVE",
"278 652 CURVE SMOOTH",
"302 634 OFFCURVE",
"325 622 OFFCURVE",
"349 622 CURVE SMOOTH",
"383 622 OFFCURVE",
"409 641 OFFCURVE",
"441 683 CURVE SMOOTH",
"444 687 OFFCURVE",
"446 691 OFFCURVE",
"446 696 CURVE SMOOTH",
"446 707 OFFCURVE",
"437 718 OFFCURVE",
"424 718 CURVE SMOOTH",
"418 718 OFFCURVE",
"411 715 OFFCURVE",
"407 709 CURVE SMOOTH",
"387 683 OFFCURVE",
"371 666 OFFCURVE",
"349 666 CURVE SMOOTH",
"333 666 OFFCURVE",
"320 676 OFFCURVE",
"304 688 CURVE SMOOTH",
"280 706 OFFCURVE",
"257 719 OFFCURVE",
"232 719 CURVE SMOOTH",
"204 719 OFFCURVE",
"176 700 OFFCURVE"
);
},
{
closed = 1;
nodes = (
"505 0 CURVE SMOOTH",
"518 0 OFFCURVE",
"530 12 OFFCURVE",
"530 25 CURVE SMOOTH",
"530 28 OFFCURVE",
"529 33 OFFCURVE",
"519 57 CURVE SMOOTH",
"480 156 OFFCURVE",
"382 375 OFFCURVE",
"310 530 CURVE SMOOTH",
"306 539 OFFCURVE",
"296 544 OFFCURVE",
"286 544 CURVE SMOOTH",
"282 544 LINE SMOOTH",
"272 544 OFFCURVE",
"262 538 OFFCURVE",
"258 529 CURVE SMOOTH",
"189 376 OFFCURVE",
"103 178 OFFCURVE",
"58 57 CURVE SMOOTH",
"49 34 OFFCURVE",
"48 30 OFFCURVE",
"48 26 CURVE SMOOTH",
"48 11 OFFCURVE",
"60 0 OFFCURVE",
"72 0 CURVE SMOOTH",
"82 0 OFFCURVE",
"93 6 OFFCURVE",
"97 17 CURVE SMOOTH",
"110 53 OFFCURVE",
"127 97 OFFCURVE",
"146 145 CURVE",
"428 145 LINE",
"449 97 OFFCURVE",
"468 52 OFFCURVE",
"482 16 CURVE SMOOTH",
"486 6 OFFCURVE",
"495 0 OFFCURVE"
);
},
{
closed = 1;
nodes = (
"407 195 CURVE",
"167 195 LINE",
"204 284 OFFCURVE",
"247 380 OFFCURVE",
"284 465 CURVE",
"324 381 OFFCURVE",
"368 284 OFFCURVE"
);
}
);
};
components = (
{
name = A;
},
{
alignment = -1;
name = tildecomb.case;
transform = "{1, 0, 0, 1, 287, -20}";
}
);
layerId = "5A9DA08A-6EB1-451A-A52A-FC81F1DBA669";
width = 580;
}
);
leftKerningGroup = A;
note = Atilde;
rightKerningGroup = A;
unicode = 00C3;
userData = {
com.typemytype.robofont.layerData = {
background = {
anchors = (
);
components = (
);
contours = (
);
lib = {
};
name = Atilde;
unicodes = (
);
width = 580;
};
};
};
},
{
glyphname = AE;
lastChange = "2016-04-29 04:27:07 +0000";
layers = (
{
layerId = "5A9DA08A-6EB1-451A-A52A-FC81F1DBA669";
paths = (
{
closed = 1;
nodes = (
"393 0 CURVE SMOOTH",
"672 0 LINE SMOOTH",
"686 0 OFFCURVE",
"697 12 OFFCURVE",
"697 25 CURVE SMOOTH",
"697 39 OFFCURVE",
"686 50 OFFCURVE",
"672 50 CURVE SMOOTH",
"418 50 LINE",
"418 261 LINE",
"627 261 LINE SMOOTH",
"641 261 OFFCURVE",
"652 273 OFFCURVE",
"652 286 CURVE SMOOTH",
"652 300 OFFCURVE",
"641 311 OFFCURVE",
"627 311 CURVE SMOOTH",
"418 311 LINE",
"418 485 LINE",
"670 485 LINE SMOOTH",
"684 485 OFFCURVE",
"695 497 OFFCURVE",
"695 510 CURVE SMOOTH",
"695 524 OFFCURVE",
"684 535 OFFCURVE",
"670 535 CURVE SMOOTH",
"356 535 LINE SMOOTH",
"344 535 OFFCURVE",
"338 531 OFFCURVE",
"333 523 CURVE SMOOTH",
"229 353 OFFCURVE",
"104 164 OFFCURVE",
"22 39 CURVE SMOOTH",
"19 35 OFFCURVE",
"18 30 OFFCURVE",
"18 25 CURVE SMOOTH",
"18 12 OFFCURVE",
"30 0 OFFCURVE",
"43 0 CURVE SMOOTH",
"51 0 OFFCURVE",
"60 4 OFFCURVE",
"64 11 CURVE SMOOTH",
"89 50 OFFCURVE",
"119 96 OFFCURVE",
"151 145 CURVE",
"368 145 LINE",
"368 25 LINE SMOOTH",
"368 12 OFFCURVE",
"380 0 OFFCURVE"
);
},
{
closed = 1;
nodes = (
"368 485 CURVE",
"368 195 LINE",
"184 195 LINE",
"244 288 OFFCURVE",
"309 390 OFFCURVE"
);
}
);
width = 755;
}
);
leftKerningGroup = A;
note = AE;
rightKerningGroup = E;
unicode = 00C6;
userData = {
com.typemytype.robofont.layerData = {
background = {
anchors = (
);
components = (
);
contours = (
);
lib = {
};
name = AE;
unicodes = (
);
width = 755;
};
};
};
},
{
glyphname = B;
lastChange = "2016-04-06 21:42:18 +0000";
layers = (
{
layerId = "5A9DA08A-6EB1-451A-A52A-FC81F1DBA669";
paths = (
{
closed = 1;
nodes = (
"123 0 CURVE SMOOTH",
"278 0 LINE SMOOTH",
"354 0 OFFCURVE",
"399 22 OFFCURVE",
"429 51 CURVE SMOOTH",
"457 79 OFFCURVE",
"470 116 OFFCURVE",
"470 152 CURVE SMOOTH",
"470 192 OFFCURVE",
"456 227 OFFCURVE",
"426 257 CURVE SMOOTH",
"411 272 OFFCURVE",
"392 284 OFFCURVE",
"370 293 CURVE",
"376 297 OFFCURVE",
"381 302 OFFCURVE",
"385 306 CURVE SMOOTH",
"407 329 OFFCURVE",
"422 363 OFFCURVE",
"422 399 CURVE SMOOTH",
"422 431 OFFCURVE",
"407 468 OFFCURVE",
"385 491 CURVE SMOOTH",
"360 515 OFFCURVE",
"321 535 OFFCURVE",
"262 535 CURVE SMOOTH",
"123 535 LINE SMOOTH",
"109 535 OFFCURVE",
"98 524 OFFCURVE",
"98 510 CURVE SMOOTH",
"98 25 LINE SMOOTH",
"98 11 OFFCURVE",
"109 0 OFFCURVE"
);
},
{
closed = 1;
nodes = (
"271 310 CURVE",
"148 310 LINE",
"148 485 LINE",
"262 485 LINE SMOOTH",
"303 485 OFFCURVE",
"331 473 OFFCURVE",
"349 455 CURVE SMOOTH",
"363 441 OFFCURVE",
"372 419 OFFCURVE",
"372 399 CURVE SMOOTH",
"372 377 OFFCURVE",
"363 355 OFFCURVE",
"349 342 CURVE SMOOTH",
"334 327 OFFCURVE",
"305 312 OFFCURVE"
);
},
{
closed = 1;
nodes = (
"281 260 LINE SMOOTH",
"325 260 OFFCURVE",
"366 245 OFFCURVE",
"390 221 CURVE SMOOTH",
"410 201 OFFCURVE",
"420 178 OFFCURVE",
"420 152 CURVE SMOOTH",
"420 128 OFFCURVE",
"411 105 OFFCURVE",
"393 87 CURVE SMOOTH",
"371 64 OFFCURVE",
"336 50 OFFCURVE",
"278 50 CURVE SMOOTH",
"148 50 LINE",
"148 260 LINE"
);
}
);
width = 528;
}
);
note = B;
unicode = 0042;
userData = {
com.typemytype.robofont.layerData = {
background = {
anchors = (
);
components = (
);
contours = (
);
lib = {
};
name = B;
unicodes = (
);
width = 528;
};
};
};
},
{
color = 6;
glyphname = C;
lastChange = "2016-04-29 04:27:07 +0000";
layers = (
{
anchors = (
{
name = bottom;
position = "{340, -9}";
},
{
name = top;
position = "{328, 540}";
}
);
layerId = "5A9DA08A-6EB1-451A-A52A-FC81F1DBA669";
paths = (
{
closed = 1;
nodes = (
"458 468 CURVE SMOOTH",
"462 466 OFFCURVE",
"466 465 OFFCURVE",
"470 465 CURVE SMOOTH",
"485 465 OFFCURVE",
"495 478 OFFCURVE",
"495 490 CURVE SMOOTH",
"495 499 OFFCURVE",
"490 507 OFFCURVE",
"482 512 CURVE SMOOTH",
"446 532 OFFCURVE",
"392 544 OFFCURVE",
"334 544 CURVE SMOOTH",
"188 544 OFFCURVE",
"61 432 OFFCURVE",
"61 264 CURVE SMOOTH",
"61 110 OFFCURVE",
"163 -9 OFFCURVE",
"340 -9 CURVE SMOOTH",
"396 -9 OFFCURVE",
"446 3 OFFCURVE",
"486 24 CURVE SMOOTH",
"495 28 OFFCURVE",
"500 37 OFFCURVE",
"500 46 CURVE SMOOTH",
"500 61 OFFCURVE",
"489 71 OFFCURVE",
"475 71 CURVE SMOOTH",
"471 71 OFFCURVE",
"467 70 OFFCURVE",
"464 68 CURVE SMOOTH",
"430 51 OFFCURVE",
"388 41 OFFCURVE",
"340 41 CURVE SMOOTH",
"195 41 OFFCURVE",
"111 138 OFFCURVE",
"111 264 CURVE SMOOTH",
"111 402 OFFCURVE",
"214 494 OFFCURVE",
"334 494 CURVE SMOOTH",
"382 494 OFFCURVE",
"428 484 OFFCURVE"
);
}
);
width = 566;
}
);
leftKerningGroup = O;
note = C;
rightKerningGroup = C;
unicode = 0043;
userData = {
com.typemytype.robofont.layerData = {
background = {
anchors = (
);
components = (
);
contours = (
);
lib = {
};
name = C;
unicodes = (
);
width = 566;
};
};
};
},
{
glyphname = Cacute;
lastChange = "2016-04-29 04:27:07 +0000";
layers = (
{
background = {
paths = (
{
closed = 1;
nodes = (
"448 708 CURVE SMOOTH",
"455 712 OFFCURVE",
"459 720 OFFCURVE",
"459 728 CURVE SMOOTH",
"459 738 OFFCURVE",
"450 749 OFFCURVE",
"436 749 CURVE SMOOTH",
"433 749 OFFCURVE",
"429 748 OFFCURVE",
"426 746 CURVE SMOOTH",
"379 719 OFFCURVE",
"331 687 OFFCURVE",
"301 666 CURVE SMOOTH",
"295 662 OFFCURVE",
"292 655 OFFCURVE",
"292 648 CURVE SMOOTH",
"292 636 OFFCURVE",
"301 626 OFFCURVE",
"314 626 CURVE SMOOTH",
"318 626 OFFCURVE",
"323 627 OFFCURVE",
"327 630 CURVE SMOOTH",
"355 651 OFFCURVE",
"403 681 OFFCURVE"
);
},
{
closed = 1;
nodes = (
"458 468 CURVE SMOOTH",
"462 466 OFFCURVE",
"466 465 OFFCURVE",
"470 465 CURVE SMOOTH",
"485 465 OFFCURVE",
"495 478 OFFCURVE",
"495 490 CURVE SMOOTH",
"495 499 OFFCURVE",
"490 507 OFFCURVE",
"482 512 CURVE SMOOTH",
"446 532 OFFCURVE",
"392 544 OFFCURVE",
"334 544 CURVE SMOOTH",
"188 544 OFFCURVE",
"61 432 OFFCURVE",
"61 264 CURVE SMOOTH",
"61 110 OFFCURVE",
"163 -9 OFFCURVE",
"340 -9 CURVE SMOOTH",
"396 -9 OFFCURVE",
"446 3 OFFCURVE",
"486 24 CURVE SMOOTH",
"495 28 OFFCURVE",
"500 37 OFFCURVE",
"500 46 CURVE SMOOTH",
"500 61 OFFCURVE",
"489 71 OFFCURVE",
"475 71 CURVE SMOOTH",
"471 71 OFFCURVE",
"467 70 OFFCURVE",
"464 68 CURVE SMOOTH",
"430 51 OFFCURVE",
"388 41 OFFCURVE",
"340 41 CURVE SMOOTH",
"195 41 OFFCURVE",
"111 138 OFFCURVE",
"111 264 CURVE SMOOTH",
"111 402 OFFCURVE",
"214 494 OFFCURVE",
"334 494 CURVE SMOOTH",
"382 494 OFFCURVE",
"428 484 OFFCURVE"
);
}
);
};
components = (
{
name = C;
},
{
name = acutecomb.case;
transform = "{1, 0, 0, 1, 328, 5}";
}
);
layerId = "5A9DA08A-6EB1-451A-A52A-FC81F1DBA669";
width = 566;
}
);
leftKerningGroup = O;
note = Cacute;
rightKerningGroup = C;
unicode = 0106;
userData = {
com.typemytype.robofont.layerData = {
background = {
anchors = (
);
components = (
);
contours = (
);
lib = {
};
name = Cacute;
unicodes = (
);
width = 566;
};
};
};
},
{
glyphname = Ccaron;
lastChange = "2016-04-29 04:27:07 +0000";
layers = (
{
background = {
paths = (
{
closed = 1;
nodes = (
"331 633 OFFCURVE",
"336 635 OFFCURVE",
"340 638 CURVE SMOOTH",
"373 662 OFFCURVE",
"408 686 OFFCURVE",
"436 707 CURVE SMOOTH",
"442 712 OFFCURVE",
"445 719 OFFCURVE",
"445 726 CURVE SMOOTH",
"445 737 OFFCURVE",
"435 747 OFFCURVE",
"422 747 CURVE SMOOTH",
"418 747 OFFCURVE",
"414 746 OFFCURVE",
"410 743 CURVE SMOOTH",
"385 724 OFFCURVE",
"354 703 OFFCURVE",
"323 681 CURVE",
"293 703 OFFCURVE",
"262 724 OFFCURVE",
"237 743 CURVE SMOOTH",
"233 746 OFFCURVE",
"229 747 OFFCURVE",
"225 747 CURVE SMOOTH",
"211 747 OFFCURVE",
"202 737 OFFCURVE",
"202 726 CURVE SMOOTH",
"202 719 OFFCURVE",
"205 712 OFFCURVE",
"211 707 CURVE SMOOTH",
"239 686 OFFCURVE",
"273 662 OFFCURVE",
"307 638 CURVE SMOOTH",
"311 635 OFFCURVE",
"316 633 OFFCURVE",
"322 633 CURVE SMOOTH",
"326 633 LINE SMOOTH"
);
},
{
closed = 1;
nodes = (
"458 468 CURVE SMOOTH",
"462 466 OFFCURVE",
"466 465 OFFCURVE",
"470 465 CURVE SMOOTH",
"485 465 OFFCURVE",
"495 478 OFFCURVE",
"495 490 CURVE SMOOTH",
"495 499 OFFCURVE",
"490 507 OFFCURVE",
"482 512 CURVE SMOOTH",
"446 532 OFFCURVE",
"392 544 OFFCURVE",
"334 544 CURVE SMOOTH",
"188 544 OFFCURVE",
"61 432 OFFCURVE",
"61 264 CURVE SMOOTH",
"61 110 OFFCURVE",
"163 -9 OFFCURVE",
"340 -9 CURVE SMOOTH",
"396 -9 OFFCURVE",
"446 3 OFFCURVE",
"486 24 CURVE SMOOTH",
"495 28 OFFCURVE",
"500 37 OFFCURVE",
"500 46 CURVE SMOOTH",
"500 61 OFFCURVE",
"489 71 OFFCURVE",
"475 71 CURVE SMOOTH",
"471 71 OFFCURVE",
"467 70 OFFCURVE",
"464 68 CURVE SMOOTH",
"430 51 OFFCURVE",
"388 41 OFFCURVE",
"340 41 CURVE SMOOTH",
"195 41 OFFCURVE",
"111 138 OFFCURVE",
"111 264 CURVE SMOOTH",
"111 402 OFFCURVE",
"214 494 OFFCURVE",
"334 494 CURVE SMOOTH",
"382 494 OFFCURVE",
"428 484 OFFCURVE"
);
}
);
};
components = (
{
name = C;
},
{
name = caroncomb.case;
transform = "{1, 0, 0, 1, 328, 5}";
}
);
layerId = "5A9DA08A-6EB1-451A-A52A-FC81F1DBA669";
width = 566;
}
);
leftKerningGroup = O;
note = Ccaron;
rightKerningGroup = C;
unicode = 010C;
userData = {
com.typemytype.robofont.layerData = {
background = {
anchors = (
);
components = (
);
contours = (
);
lib = {
};
name = Ccaron;
unicodes = (
);
width = 566;
};
};
};
},
{
glyphname = Ccedilla;
lastChange = "2016-04-29 04:27:07 +0000";
layers = (
{
background = {
paths = (
{
closed = 1;
nodes = (
"458 468 CURVE SMOOTH",
"462 466 OFFCURVE",
"466 465 OFFCURVE",
"470 465 CURVE SMOOTH",
"485 465 OFFCURVE",
"495 478 OFFCURVE",
"495 490 CURVE SMOOTH",
"495 499 OFFCURVE",
"490 507 OFFCURVE",
"482 512 CURVE SMOOTH",
"446 532 OFFCURVE",
"392 544 OFFCURVE",
"334 544 CURVE SMOOTH",
"188 544 OFFCURVE",
"61 432 OFFCURVE",
"61 264 CURVE SMOOTH",
"61 110 OFFCURVE",
"163 -9 OFFCURVE",
"340 -9 CURVE SMOOTH",
"396 -9 OFFCURVE",
"446 3 OFFCURVE",
"486 24 CURVE SMOOTH",
"495 28 OFFCURVE",
"500 37 OFFCURVE",
"500 46 CURVE SMOOTH",
"500 61 OFFCURVE",
"489 71 OFFCURVE",
"475 71 CURVE SMOOTH",
"471 71 OFFCURVE",
"467 70 OFFCURVE",
"464 68 CURVE SMOOTH",
"430 51 OFFCURVE",
"388 41 OFFCURVE",
"340 41 CURVE SMOOTH",
"195 41 OFFCURVE",
"111 138 OFFCURVE",
"111 264 CURVE SMOOTH",
"111 402 OFFCURVE",
"214 494 OFFCURVE",
"334 494 CURVE SMOOTH",
"382 494 OFFCURVE",
"428 484 OFFCURVE"
);
},
{
closed = 1;
nodes = (
"348 -137 CURVE SMOOTH",
"353 -133 OFFCURVE",
"355 -127 OFFCURVE",
"355 -121 CURVE SMOOTH",
"355 -109 OFFCURVE",
"344 -99 OFFCURVE",
"333 -99 CURVE SMOOTH",
"327 -99 OFFCURVE",
"322 -101 OFFCURVE",
"318 -105 CURVE SMOOTH",
"291 -131 OFFCURVE",
"240 -181 OFFCURVE",
"216 -205 CURVE SMOOTH",
"211 -210 OFFCURVE",
"210 -215 OFFCURVE",
"210 -221 CURVE SMOOTH",
"210 -234 OFFCURVE",
"221 -243 OFFCURVE",
"232 -243 CURVE SMOOTH",
"238 -243 OFFCURVE",
"244 -241 OFFCURVE",
"248 -237 CURVE SMOOTH",
"270 -214 OFFCURVE",
"321 -163 OFFCURVE"
);
}
);
};
components = (
{
name = C;
},
{
name = cedillacomb;
transform = "{1, 0, 0, 1, 340, -9}";
}
);
layerId = "5A9DA08A-6EB1-451A-A52A-FC81F1DBA669";
width = 566;
}
);
leftKerningGroup = O;
note = Ccedilla;
rightKerningGroup = C;
unicode = 00C7;
userData = {
com.typemytype.robofont.layerData = {
background = {
anchors = (
);
components = (
);
contours = (
);
lib = {
};
name = Ccedilla;
unicodes = (
);
width = 566;
};
};
};
},
{
color = 6;
glyphname = D;
lastChange = "2016-04-29 04:27:07 +0000";
layers = (
{
anchors = (
{
name = top;
position = "{274, 535}";
}
);
layerId = "5A9DA08A-6EB1-451A-A52A-FC81F1DBA669";
paths = (
{
closed = 1;
nodes = (
"299 0 LINE SMOOTH",
"451 0 OFFCURVE",
"551 118 OFFCURVE",
"551 268 CURVE SMOOTH",
"551 426 OFFCURVE",
"431 535 OFFCURVE",
"299 535 CURVE SMOOTH",
"123 535 LINE SMOOTH",
"109 535 OFFCURVE",
"98 524 OFFCURVE",
"98 510 CURVE SMOOTH",
"98 25 LINE SMOOTH",
"98 11 OFFCURVE",
"109 0 OFFCURVE",
"123 0 CURVE SMOOTH"
);
},
{
closed = 1;
nodes = (
"299 485 LINE SMOOTH",
"407 485 OFFCURVE",
"501 394 OFFCURVE",
"501 268 CURVE SMOOTH",
"501 148 OFFCURVE",
"423 50 OFFCURVE",
"299 50 CURVE SMOOTH",
"148 50 LINE",
"148 485 LINE"
);
}
);
width = 612;
}
);
note = D;
rightKerningGroup = O;
unicode = 0044;
userData = {
com.typemytype.robofont.layerData = {
background = {
anchors = (
);
components = (
);
contours = (
);
lib = {
};
name = D;
unicodes = (
);
width = 612;
};
};
};
},
{
glyphname = Eth;
lastChange = "2016-04-29 04:27:07 +0000";
layers = (
{
layerId = "5A9DA08A-6EB1-451A-A52A-FC81F1DBA669";
paths = (
{
closed = 1;
nodes = (
"310 247 LINE SMOOTH",
"324 247 OFFCURVE",
"335 259 OFFCURVE",
"335 272 CURVE SMOOTH",
"335 286 OFFCURVE",
"324 297 OFFCURVE",
"310 297 CURVE SMOOTH",
"163 297 LINE",
"163 485 LINE",
"314 485 LINE SMOOTH",
"422 485 OFFCURVE",
"516 394 OFFCURVE",
"516 268 CURVE SMOOTH",
"516 148 OFFCURVE",
"438 50 OFFCURVE",
"314 50 CURVE SMOOTH",
"163 50 LINE",
"163 247 LINE"
);
},
{
closed = 1;
nodes = (
"138 0 CURVE SMOOTH",
"314 0 LINE SMOOTH",
"466 0 OFFCURVE",
"566 118 OFFCURVE",
"566 268 CURVE SMOOTH",
"566 426 OFFCURVE",
"446 535 OFFCURVE",
"314 535 CURVE SMOOTH",
"138 535 LINE SMOOTH",
"124 535 OFFCURVE",
"113 524 OFFCURVE",
"113 510 CURVE SMOOTH",
"113 297 LINE",
"64 297 LINE SMOOTH",
"51 297 OFFCURVE",
"39 286 OFFCURVE",
"39 272 CURVE SMOOTH",
"39 259 OFFCURVE",
"51 247 OFFCURVE",
"64 247 CURVE SMOOTH",
"113 247 LINE",
"113 25 LINE SMOOTH",
"113 11 OFFCURVE",
"124 0 OFFCURVE"
);
}
);
width = 627;
}
);
note = Eth;
rightKerningGroup = O;
unicode = 00D0;
userData = {
com.typemytype.robofont.layerData = {
background = {
anchors = (
);
components = (
);
contours = (
);
lib = {
};
name = Eth;
unicodes = (
);
width = 627;
};
};
};
},
{
glyphname = Dcaron;
lastChange = "2016-04-29 04:27:07 +0000";
layers = (
{
background = {
paths = (
{
closed = 1;
nodes = (
"279 633 OFFCURVE",
"284 635 OFFCURVE",
"288 638 CURVE SMOOTH",
"321 662 OFFCURVE",
"356 686 OFFCURVE",
"384 707 CURVE SMOOTH",
"390 712 OFFCURVE",
"393 719 OFFCURVE",
"393 726 CURVE SMOOTH",
"393 737 OFFCURVE",
"383 747 OFFCURVE",
"370 747 CURVE SMOOTH",
"366 747 OFFCURVE",
"362 746 OFFCURVE",
"358 743 CURVE SMOOTH",
"333 724 OFFCURVE",
"302 703 OFFCURVE",
"271 681 CURVE",
"241 703 OFFCURVE",
"210 724 OFFCURVE",
"185 743 CURVE SMOOTH",
"181 746 OFFCURVE",
"177 747 OFFCURVE",
"173 747 CURVE SMOOTH",
"159 747 OFFCURVE",
"150 737 OFFCURVE",
"150 726 CURVE SMOOTH",
"150 719 OFFCURVE",
"153 712 OFFCURVE",
"159 707 CURVE SMOOTH",
"187 686 OFFCURVE",
"221 662 OFFCURVE",
"255 638 CURVE SMOOTH",
"259 635 OFFCURVE",
"264 633 OFFCURVE",
"270 633 CURVE SMOOTH",
"274 633 LINE SMOOTH"
);
},
{
closed = 1;
nodes = (
"299 0 LINE SMOOTH",
"451 0 OFFCURVE",
"551 118 OFFCURVE",
"551 268 CURVE SMOOTH",
"551 426 OFFCURVE",
"431 535 OFFCURVE",
"299 535 CURVE SMOOTH",
"123 535 LINE SMOOTH",
"109 535 OFFCURVE",
"98 524 OFFCURVE",
"98 510 CURVE SMOOTH",
"98 25 LINE SMOOTH",
"98 11 OFFCURVE",
"109 0 OFFCURVE",
"123 0 CURVE SMOOTH"
);
},
{
closed = 1;
nodes = (
"299 485 LINE SMOOTH",
"407 485 OFFCURVE",
"501 394 OFFCURVE",
"501 268 CURVE SMOOTH",
"501 148 OFFCURVE",
"423 50 OFFCURVE",
"299 50 CURVE SMOOTH",
"148 50 LINE",
"148 485 LINE"
);
}
);
};
components = (
{
name = D;
},
{
name = caroncomb.case;
transform = "{1, 0, 0, 1, 274, 0}";
}
);
layerId = "5A9DA08A-6EB1-451A-A52A-FC81F1DBA669";
width = 612;
}
);
note = Dcaron;
rightKerningGroup = O;
unicode = 010E;
userData = {
com.typemytype.robofont.layerData = {
background = {
anchors = (
);
components = (
);
contours = (
);
lib = {
};
name = Dcaron;
unicodes = (
);
width = 612;
};
};
};
},
{
glyphname = Dcroat;
lastChange = "2016-04-29 04:27:07 +0000";
layers = (
{
layerId = "5A9DA08A-6EB1-451A-A52A-FC81F1DBA669";
paths = (
{
closed = 1;
nodes = (
"310 247 LINE SMOOTH",
"324 247 OFFCURVE",
"335 259 OFFCURVE",
"335 272 CURVE SMOOTH",
"335 286 OFFCURVE",
"324 297 OFFCURVE",
"310 297 CURVE SMOOTH",
"163 297 LINE",
"163 485 LINE",
"314 485 LINE SMOOTH",
"422 485 OFFCURVE",
"516 394 OFFCURVE",
"516 268 CURVE SMOOTH",
"516 148 OFFCURVE",
"438 50 OFFCURVE",
"314 50 CURVE SMOOTH",
"163 50 LINE",
"163 247 LINE"
);
},
{
closed = 1;
nodes = (
"138 0 CURVE SMOOTH",
"314 0 LINE SMOOTH",
"466 0 OFFCURVE",
"566 118 OFFCURVE",
"566 268 CURVE SMOOTH",
"566 426 OFFCURVE",
"446 535 OFFCURVE",
"314 535 CURVE SMOOTH",
"138 535 LINE SMOOTH",
"124 535 OFFCURVE",
"113 524 OFFCURVE",
"113 510 CURVE SMOOTH",
"113 297 LINE",
"64 297 LINE SMOOTH",
"51 297 OFFCURVE",
"39 286 OFFCURVE",
"39 272 CURVE SMOOTH",
"39 259 OFFCURVE",
"51 247 OFFCURVE",
"64 247 CURVE SMOOTH",
"113 247 LINE",
"113 25 LINE SMOOTH",
"113 11 OFFCURVE",
"124 0 OFFCURVE"
);
}
);
width = 627;
}
);
note = Dcroat;
rightKerningGroup = O;
unicode = 0110;
userData = {
com.typemytype.robofont.layerData = {
background = {
anchors = (
);
components = (
);
contours = (
);
lib = {
};
name = Dcroat;
unicodes = (
);
width = 627;
};
};
};
},
{
color = 6;
glyphname = E;
lastChange = "2016-04-29 04:27:07 +0000";
layers = (
{
anchors = (
{
name = bottom;
position = "{255, 0}";
},
{
name = top;
position = "{264, 535}";
}
);
layerId = "5A9DA08A-6EB1-451A-A52A-FC81F1DBA669";
paths = (
{
closed = 1;
nodes = (
"123 0 CURVE SMOOTH",
"402 0 LINE SMOOTH",
"416 0 OFFCURVE",
"427 12 OFFCURVE",
"427 25 CURVE SMOOTH",
"427 39 OFFCURVE",
"416 50 OFFCURVE",
"402 50 CURVE SMOOTH",
"148 50 LINE",
"148 261 LINE",
"357 261 LINE SMOOTH",
"371 261 OFFCURVE",
"382 273 OFFCURVE",
"382 286 CURVE SMOOTH",
"382 300 OFFCURVE",
"371 311 OFFCURVE",
"357 311 CURVE SMOOTH",
"148 311 LINE",
"148 485 LINE",
"400 485 LINE SMOOTH",
"414 485 OFFCURVE",
"425 497 OFFCURVE",
"425 510 CURVE SMOOTH",
"425 524 OFFCURVE",
"414 535 OFFCURVE",
"400 535 CURVE SMOOTH",
"120 535 LINE SMOOTH",
"108 535 OFFCURVE",
"98 523 OFFCURVE",
"98 510 CURVE SMOOTH",
"98 25 LINE SMOOTH",
"98 12 OFFCURVE",
"110 0 OFFCURVE"
);
}
);
width = 487;
}
);
note = E;
rightKerningGroup = E;
unicode = 0045;
userData = {
com.typemytype.robofont.layerData = {
background = {
anchors = (
);
components = (
);
contours = (
);
lib = {
};
name = E;
unicodes = (
);
width = 487;
};
};
};
},
{
glyphname = Eacute;
lastChange = "2016-04-29 04:27:07 +0000";
layers = (
{
background = {
paths = (
{
closed = 1;
nodes = (
"123 0 CURVE SMOOTH",
"402 0 LINE SMOOTH",
"416 0 OFFCURVE",
"427 12 OFFCURVE",
"427 25 CURVE SMOOTH",
"427 39 OFFCURVE",
"416 50 OFFCURVE",
"402 50 CURVE SMOOTH",
"148 50 LINE",
"148 261 LINE",
"357 261 LINE SMOOTH",
"371 261 OFFCURVE",
"382 273 OFFCURVE",
"382 286 CURVE SMOOTH",
"382 300 OFFCURVE",
"371 311 OFFCURVE",
"357 311 CURVE SMOOTH",
"148 311 LINE",
"148 485 LINE",
"400 485 LINE SMOOTH",
"414 485 OFFCURVE",
"425 497 OFFCURVE",
"425 510 CURVE SMOOTH",
"425 524 OFFCURVE",
"414 535 OFFCURVE",
"400 535 CURVE",
"120 535 LINE SMOOTH",
"108 535 OFFCURVE",
"98 523 OFFCURVE",
"98 510 CURVE SMOOTH",
"98 25 LINE SMOOTH",
"98 12 OFFCURVE",
"110 0 OFFCURVE"
);
},
{
closed = 1;
nodes = (
"383 708 CURVE SMOOTH",
"390 712 OFFCURVE",
"394 720 OFFCURVE",
"394 728 CURVE SMOOTH",
"394 738 OFFCURVE",
"385 749 OFFCURVE",
"371 749 CURVE SMOOTH",
"368 749 OFFCURVE",
"364 748 OFFCURVE",
"361 746 CURVE SMOOTH",
"314 719 OFFCURVE",
"266 687 OFFCURVE",
"236 666 CURVE SMOOTH",
"230 662 OFFCURVE",
"227 655 OFFCURVE",
"227 648 CURVE SMOOTH",
"227 636 OFFCURVE",
"236 626 OFFCURVE",
"249 626 CURVE SMOOTH",
"253 626 OFFCURVE",
"258 627 OFFCURVE",
"262 630 CURVE SMOOTH",
"290 651 OFFCURVE",
"338 681 OFFCURVE"
);
}
);
};
components = (
{
name = E;
},
{
name = acutecomb.case;
transform = "{1, 0, 0, 1, 264, 0}";
}
);
layerId = "5A9DA08A-6EB1-451A-A52A-FC81F1DBA669";
width = 487;
}
);
note = Eacute;
rightKerningGroup = E;
unicode = 00C9;
userData = {
com.typemytype.robofont.layerData = {
background = {
anchors = (
);
components = (
);
contours = (
);
lib = {
};
name = Eacute;
unicodes = (
);
width = 487;
};
};
};
},
{
glyphname = Ecaron;
lastChange = "2016-04-29 04:27:07 +0000";
layers = (
{
background = {
paths = (
{
closed = 1;
nodes = (
"123 0 CURVE SMOOTH",
"402 0 LINE SMOOTH",
"416 0 OFFCURVE",
"427 12 OFFCURVE",
"427 25 CURVE SMOOTH",
"427 39 OFFCURVE",
"416 50 OFFCURVE",
"402 50 CURVE SMOOTH",
"148 50 LINE",
"148 261 LINE",
"357 261 LINE SMOOTH",
"371 261 OFFCURVE",
"382 273 OFFCURVE",
"382 286 CURVE SMOOTH",
"382 300 OFFCURVE",
"371 311 OFFCURVE",
"357 311 CURVE SMOOTH",
"148 311 LINE",
"148 485 LINE",
"400 485 LINE SMOOTH",
"414 485 OFFCURVE",
"425 497 OFFCURVE",
"425 510 CURVE SMOOTH",
"425 524 OFFCURVE",
"414 535 OFFCURVE",
"400 535 CURVE",
"120 535 LINE SMOOTH",
"108 535 OFFCURVE",
"98 523 OFFCURVE",
"98 510 CURVE SMOOTH",
"98 25 LINE SMOOTH",
"98 12 OFFCURVE",
"110 0 OFFCURVE"
);
},
{
closed = 1;
nodes = (
"260 633 OFFCURVE",
"265 635 OFFCURVE",
"269 638 CURVE SMOOTH",
"302 662 OFFCURVE",
"337 686 OFFCURVE",
"365 707 CURVE SMOOTH",
"371 712 OFFCURVE",
"374 719 OFFCURVE",
"374 726 CURVE SMOOTH",
"374 737 OFFCURVE",
"364 747 OFFCURVE",
"351 747 CURVE SMOOTH",
"347 747 OFFCURVE",
"343 746 OFFCURVE",
"339 743 CURVE SMOOTH",
"314 724 OFFCURVE",
"283 703 OFFCURVE",
"252 681 CURVE",
"222 703 OFFCURVE",
"191 724 OFFCURVE",
"166 743 CURVE SMOOTH",
"162 746 OFFCURVE",
"158 747 OFFCURVE",
"154 747 CURVE SMOOTH",
"140 747 OFFCURVE",
"131 737 OFFCURVE",
"131 726 CURVE SMOOTH",
"131 719 OFFCURVE",
"134 712 OFFCURVE",
"140 707 CURVE SMOOTH",
"168 686 OFFCURVE",
"202 662 OFFCURVE",
"236 638 CURVE SMOOTH",
"240 635 OFFCURVE",
"245 633 OFFCURVE",
"251 633 CURVE SMOOTH",
"255 633 LINE SMOOTH"
);
}
);
};
components = (
{
name = E;
},
{
name = caroncomb.case;
transform = "{1, 0, 0, 1, 264, 0}";
}
);
layerId = "5A9DA08A-6EB1-451A-A52A-FC81F1DBA669";
width = 487;
}
);
note = Ecaron;
rightKerningGroup = E;
unicode = 011A;
userData = {
com.typemytype.robofont.layerData = {
background = {
anchors = (
);
components = (
);
contours = (
);
lib = {
};
name = Ecaron;
unicodes = (
);
width = 487;
};
};
};
},
{
glyphname = Ecircumflex;
lastChange = "2016-04-29 04:27:07 +0000";
layers = (
{
background = {
paths = (
{
closed = 1;
nodes = (
"352 634 CURVE SMOOTH",
"366 634 OFFCURVE",
"375 644 OFFCURVE",
"375 655 CURVE SMOOTH",
"375 662 OFFCURVE",
"372 669 OFFCURVE",
"366 674 CURVE SMOOTH",
"338 695 OFFCURVE",
"304 719 OFFCURVE",
"270 743 CURVE SMOOTH",
"266 746 OFFCURVE",
"260 748 OFFCURVE",
"256 748 CURVE SMOOTH",
"251 748 LINE SMOOTH",
"247 748 OFFCURVE",
"241 746 OFFCURVE",
"237 743 CURVE SMOOTH",
"204 719 OFFCURVE",
"169 695 OFFCURVE",
"141 674 CURVE SMOOTH",
"135 669 OFFCURVE",
"132 662 OFFCURVE",
"132 655 CURVE SMOOTH",
"132 643 OFFCURVE",
"142 634 OFFCURVE",
"155 634 CURVE SMOOTH",
"159 634 OFFCURVE",
"163 635 OFFCURVE",
"167 638 CURVE SMOOTH",
"192 657 OFFCURVE",
"223 678 OFFCURVE",
"254 700 CURVE",
"284 678 OFFCURVE",
"315 657 OFFCURVE",
"340 638 CURVE SMOOTH",
"344 635 OFFCURVE",
"348 634 OFFCURVE"
);
},
{
closed = 1;
nodes = (
"123 0 CURVE SMOOTH",
"402 0 LINE SMOOTH",
"416 0 OFFCURVE",
"427 12 OFFCURVE",
"427 25 CURVE SMOOTH",
"427 39 OFFCURVE",
"416 50 OFFCURVE",
"402 50 CURVE SMOOTH",
"148 50 LINE",
"148 261 LINE",
"357 261 LINE SMOOTH",
"371 261 OFFCURVE",
"382 273 OFFCURVE",
"382 286 CURVE SMOOTH",
"382 300 OFFCURVE",
"371 311 OFFCURVE",
"357 311 CURVE SMOOTH",
"148 311 LINE",
"148 485 LINE",
"400 485 LINE SMOOTH",
"414 485 OFFCURVE",
"425 497 OFFCURVE",
"425 510 CURVE SMOOTH",
"425 524 OFFCURVE",
"414 535 OFFCURVE",
"400 535 CURVE",
"120 535 LINE SMOOTH",
"108 535 OFFCURVE",
"98 523 OFFCURVE",
"98 510 CURVE SMOOTH",
"98 25 LINE SMOOTH",
"98 12 OFFCURVE",
"110 0 OFFCURVE"
);
}
);
};
components = (
{
name = E;
},
{
name = circumflexcomb.case;
transform = "{1, 0, 0, 1, 264, 0}";
}
);
layerId = "5A9DA08A-6EB1-451A-A52A-FC81F1DBA669";
width = 487;
}
);
note = Ecircumflex;
rightKerningGroup = E;
unicode = 00CA;
userData = {
com.typemytype.robofont.layerData = {
background = {
anchors = (
);
components = (
);
contours = (
);
lib = {
};
name = Ecircumflex;
unicodes = (
);
width = 487;
};
};
};
},
{
glyphname = Edieresis;
lastChange = "2016-04-29 04:27:07 +0000";
layers = (
{
background = {
paths = (
{
closed = 1;
nodes = (
"123 0 CURVE SMOOTH",
"402 0 LINE SMOOTH",
"416 0 OFFCURVE",
"427 12 OFFCURVE",
"427 25 CURVE SMOOTH",
"427 39 OFFCURVE",
"416 50 OFFCURVE",
"402 50 CURVE SMOOTH",
"148 50 LINE",
"148 261 LINE",
"357 261 LINE SMOOTH",
"371 261 OFFCURVE",
"382 273 OFFCURVE",
"382 286 CURVE SMOOTH",
"382 300 OFFCURVE",
"371 311 OFFCURVE",
"357 311 CURVE SMOOTH",
"148 311 LINE",
"148 485 LINE",
"400 485 LINE SMOOTH",
"414 485 OFFCURVE",
"425 497 OFFCURVE",
"425 510 CURVE SMOOTH",
"425 524 OFFCURVE",
"414 535 OFFCURVE",
"400 535 CURVE",
"120 535 LINE SMOOTH",
"108 535 OFFCURVE",
"98 523 OFFCURVE",
"98 510 CURVE SMOOTH",
"98 25 LINE SMOOTH",
"98 12 OFFCURVE",
"110 0 OFFCURVE"
);
},
{
closed = 1;
nodes = (
"351 730 CURVE SMOOTH",
"331 730 OFFCURVE",
"312 712 OFFCURVE",
"312 682 CURVE SMOOTH",
"312 650 OFFCURVE",
"331 634 OFFCURVE",
"351 634 CURVE SMOOTH",
"369 634 OFFCURVE",
"389 649 OFFCURVE",
"389 682 CURVE SMOOTH",
"389 713 OFFCURVE",
"369 730 OFFCURVE"
);
},
{
closed = 1;
nodes = (
"158 730 CURVE SMOOTH",
"138 730 OFFCURVE",
"118 711 OFFCURVE",
"118 682 CURVE SMOOTH",
"118 651 OFFCURVE",
"138 634 OFFCURVE",
"158 634 CURVE SMOOTH",
"176 634 OFFCURVE",
"196 649 OFFCURVE",
"196 682 CURVE SMOOTH",
"196 713 OFFCURVE",
"176 730 OFFCURVE"
);
}
);
};
components = (
{
name = E;
},
{
name = dieresiscomb.case;
transform = "{1, 0, 0, 1, 264, 0}";
}
);
layerId = "5A9DA08A-6EB1-451A-A52A-FC81F1DBA669";
width = 487;
}
);
note = Edieresis;
rightKerningGroup = E;
unicode = 00CB;
userData = {
com.typemytype.robofont.layerData = {
background = {
anchors = (
);
components = (
);
contours = (
);
lib = {
};
name = Edieresis;
unicodes = (
);
width = 487;
};
};
};
},
{
glyphname = Edotaccent;
lastChange = "2016-04-29 04:27:07 +0000";
layers = (
{
background = {
paths = (
{
closed = 1;
nodes = (
"259 739 CURVE SMOOTH",
"236 739 OFFCURVE",
"216 718 OFFCURVE",
"216 689 CURVE SMOOTH",
"216 662 OFFCURVE",
"235 642 OFFCURVE",
"259 642 CURVE SMOOTH",
"280 642 OFFCURVE",
"299 660 OFFCURVE",
"299 689 CURVE SMOOTH",
"299 720 OFFCURVE",
"279 739 OFFCURVE"
);
},
{
closed = 1;
nodes = (
"123 0 CURVE SMOOTH",
"402 0 LINE SMOOTH",
"416 0 OFFCURVE",
"427 12 OFFCURVE",
"427 25 CURVE SMOOTH",
"427 39 OFFCURVE",
"416 50 OFFCURVE",
"402 50 CURVE SMOOTH",
"148 50 LINE",
"148 261 LINE",
"357 261 LINE SMOOTH",
"371 261 OFFCURVE",
"382 273 OFFCURVE",
"382 286 CURVE SMOOTH",
"382 300 OFFCURVE",
"371 311 OFFCURVE",
"357 311 CURVE SMOOTH",
"148 311 LINE",
"148 485 LINE",
"400 485 LINE SMOOTH",
"414 485 OFFCURVE",
"425 497 OFFCURVE",
"425 510 CURVE SMOOTH",
"425 524 OFFCURVE",
"414 535 OFFCURVE",
"400 535 CURVE",
"120 535 LINE SMOOTH",
"108 535 OFFCURVE",
"98 523 OFFCURVE",
"98 510 CURVE SMOOTH",
"98 25 LINE SMOOTH",
"98 12 OFFCURVE",
"110 0 OFFCURVE"
);
}
);
};
components = (
{
name = E;
},
{
name = dotaccentcomb.case;
transform = "{1, 0, 0, 1, 264, 0}";
}
);
layerId = "5A9DA08A-6EB1-451A-A52A-FC81F1DBA669";
width = 487;
}
);
note = Edotaccent;
rightKerningGroup = E;
unicode = 0116;
userData = {
com.typemytype.robofont.layerData = {
background = {
anchors = (
);
components = (
);
contours = (
);
lib = {
};
name = Edotaccent;
unicodes = (
);
width = 487;
};
};
};
},
{
glyphname = Egrave;
lastChange = "2016-04-29 04:27:07 +0000";
layers = (
{
background = {
paths = (
{
closed = 1;
nodes = (
"167 747 CURVE SMOOTH",
"163 749 OFFCURVE",
"160 750 OFFCURVE",
"156 750 CURVE SMOOTH",
"144 750 OFFCURVE",
"134 739 OFFCURVE",
"134 728 CURVE SMOOTH",
"134 720 OFFCURVE",
"138 713 OFFCURVE",
"145 709 CURVE SMOOTH",
"180 689 OFFCURVE",
"232 650 OFFCURVE",
"258 630 CURVE SMOOTH",
"262 627 OFFCURVE",
"267 625 OFFCURVE",
"272 625 CURVE SMOOTH",
"284 625 OFFCURVE",
"294 636 OFFCURVE",
"294 647 CURVE SMOOTH",
"294 654 OFFCURVE",
"291 660 OFFCURVE",
"286 664 CURVE SMOOTH",
"258 686 OFFCURVE",
"204 727 OFFCURVE"
);
},
{
closed = 1;
nodes = (
"123 0 CURVE SMOOTH",
"402 0 LINE SMOOTH",
"416 0 OFFCURVE",
"427 12 OFFCURVE",
"427 25 CURVE SMOOTH",
"427 39 OFFCURVE",
"416 50 OFFCURVE",
"402 50 CURVE SMOOTH",
"148 50 LINE",
"148 261 LINE",
"357 261 LINE SMOOTH",
"371 261 OFFCURVE",
"382 273 OFFCURVE",
"382 286 CURVE SMOOTH",
"382 300 OFFCURVE",
"371 311 OFFCURVE",
"357 311 CURVE SMOOTH",
"148 311 LINE",
"148 485 LINE",
"400 485 LINE SMOOTH",
"414 485 OFFCURVE",
"425 497 OFFCURVE",
"425 510 CURVE SMOOTH",
"425 524 OFFCURVE",
"414 535 OFFCURVE",
"400 535 CURVE",
"120 535 LINE SMOOTH",
"108 535 OFFCURVE",
"98 523 OFFCURVE",
"98 510 CURVE SMOOTH",
"98 25 LINE SMOOTH",
"98 12 OFFCURVE",
"110 0 OFFCURVE"
);
}
);
};
components = (
{
name = E;
},
{
name = gravecomb.case;
transform = "{1, 0, 0, 1, 264, 0}";
}
);
layerId = "5A9DA08A-6EB1-451A-A52A-FC81F1DBA669";
width = 487;
}
);
note = Egrave;
rightKerningGroup = E;
unicode = 00C8;
userData = {
com.typemytype.robofont.layerData = {
background = {
anchors = (
);
components = (
);
contours = (
);
lib = {
};
name = Egrave;
unicodes = (
);
width = 487;
};
};
};
},
{
glyphname = Emacron;
lastChange = "2016-04-29 04:27:07 +0000";
layers = (
{
background = {
paths = (
{
closed = 1;
nodes = (
"361 664 LINE SMOOTH",
"373 664 OFFCURVE",
"383 674 OFFCURVE",
"383 686 CURVE SMOOTH",
"383 698 OFFCURVE",
"373 708 OFFCURVE",
"361 708 CURVE SMOOTH",
"132 708 LINE SMOOTH",
"120 708 OFFCURVE",
"110 698 OFFCURVE",
"110 686 CURVE SMOOTH",
"110 674 OFFCURVE",
"120 664 OFFCURVE",
"132 664 CURVE SMOOTH"
);
},
{
closed = 1;
nodes = (
"123 0 CURVE SMOOTH",
"402 0 LINE SMOOTH",
"416 0 OFFCURVE",
"427 12 OFFCURVE",
"427 25 CURVE SMOOTH",
"427 39 OFFCURVE",
"416 50 OFFCURVE",
"402 50 CURVE SMOOTH",
"148 50 LINE",
"148 261 LINE",
"357 261 LINE SMOOTH",
"371 261 OFFCURVE",
"382 273 OFFCURVE",
"382 286 CURVE SMOOTH",
"382 300 OFFCURVE",
"371 311 OFFCURVE",
"357 311 CURVE SMOOTH",
"148 311 LINE",
"148 485 LINE",
"400 485 LINE SMOOTH",
"414 485 OFFCURVE",
"425 497 OFFCURVE",
"425 510 CURVE SMOOTH",
"425 524 OFFCURVE",
"414 535 OFFCURVE",
"400 535 CURVE",
"120 535 LINE SMOOTH",
"108 535 OFFCURVE",
"98 523 OFFCURVE",
"98 510 CURVE SMOOTH",
"98 25 LINE SMOOTH",
"98 12 OFFCURVE",
"110 0 OFFCURVE"
);
}
);
};
components = (
{
name = E;
},
{
name = macroncomb.case;
transform = "{1, 0, 0, 1, 264, 0}";
}
);
layerId = "5A9DA08A-6EB1-451A-A52A-FC81F1DBA669";
width = 487;
}
);
note = Emacron;
rightKerningGroup = E;
unicode = 0112;
userData = {
com.typemytype.robofont.layerData = {
background = {
anchors = (
);
components = (
);
contours = (
);
lib = {
};
name = Emacron;
unicodes = (
);
width = 487;
};
};
};
},
{
glyphname = Eogonek;
lastChange = "2016-04-29 04:27:07 +0000";
layers = (
{
layerId = "5A9DA08A-6EB1-451A-A52A-FC81F1DBA669";
paths = (
{
closed = 1;
nodes = (
"420 -221 CURVE SMOOTH",
"432 -221 OFFCURVE",
"442 -211 OFFCURVE",
"442 -199 CURVE SMOOTH",
"442 -187 OFFCURVE",
"432 -177 OFFCURVE",
"420 -177 CURVE SMOOTH",
"371 -177 OFFCURVE",
"324 -167 OFFCURVE",
"324 -139 CURVE SMOOTH",
"324 -115 OFFCURVE",
"343 -88 OFFCURVE",
"419 -18 CURVE SMOOTH",
"423 -14 OFFCURVE",
"427 -4 OFFCURVE",
"427 5 CURVE SMOOTH",
"427 29 LINE SMOOTH",
"427 39 OFFCURVE",
"416 50 OFFCURVE",
"402 50 CURVE SMOOTH",
"148 50 LINE",
"148 261 LINE",
"357 261 LINE SMOOTH",
"371 261 OFFCURVE",
"382 273 OFFCURVE",
"382 286 CURVE SMOOTH",
"382 300 OFFCURVE",
"371 311 OFFCURVE",
"357 311 CURVE SMOOTH",
"148 311 LINE",
"148 485 LINE",
"400 485 LINE SMOOTH",
"414 485 OFFCURVE",
"425 497 OFFCURVE",
"425 510 CURVE SMOOTH",
"425 524 OFFCURVE",
"414 535 OFFCURVE",
"400 535 CURVE",
"120 535 LINE SMOOTH",
"108 535 OFFCURVE",
"98 523 OFFCURVE",
"98 510 CURVE SMOOTH",
"98 25 LINE SMOOTH",
"98 12 OFFCURVE",
"110 0 OFFCURVE",
"123 0 CURVE SMOOTH",
"373 0 LINE",
"373 -4 LINE",
"292 -78 OFFCURVE",
"280 -110 OFFCURVE",
"280 -139 CURVE SMOOTH",
"280 -181 OFFCURVE",
"313 -221 OFFCURVE"
);
}
);
width = 487;
}
);
note = Eogonek;
rightKerningGroup = E;
unicode = 0118;
userData = {
com.typemytype.robofont.layerData = {
background = {
anchors = (
);
components = (
);
contours = (
);
lib = {
};
name = Eogonek;
unicodes = (
);
width = 487;
};
};
};
},
{
glyphname = F;
lastChange = "2016-04-03 12:04:32 +0000";
layers = (
{
layerId = "5A9DA08A-6EB1-451A-A52A-FC81F1DBA669";
paths = (
{
closed = 1;
nodes = (
"123 0 CURVE SMOOTH",
"137 0 OFFCURVE",
"148 11 OFFCURVE",
"148 25 CURVE SMOOTH",
"148 242 LINE",
"357 242 LINE SMOOTH",
"371 242 OFFCURVE",
"382 254 OFFCURVE",
"382 267 CURVE SMOOTH",
"382 281 OFFCURVE",
"371 292 OFFCURVE",
"357 292 CURVE SMOOTH",
"148 292 LINE",
"148 485 LINE",
"408 485 LINE SMOOTH",
"422 485 OFFCURVE",
"433 497 OFFCURVE",
"433 510 CURVE SMOOTH",
"433 524 OFFCURVE",
"422 535 OFFCURVE",
"408 535 CURVE SMOOTH",
"123 535 LINE SMOOTH",
"110 535 OFFCURVE",
"98 525 OFFCURVE",
"98 510 CURVE SMOOTH",
"98 25 LINE SMOOTH",
"98 12 OFFCURVE",
"110 0 OFFCURVE"
);
}
);
width = 475;
}
);
note = F;
unicode = 0046;
userData = {
com.typemytype.robofont.guides = (
);
com.typemytype.robofont.layerData = {
background = {
anchors = (
);
components = (
);
contours = (
);
lib = {
};
name = F;
unicodes = (
);
width = 475;
};
};
};
},
{
glyphname = G;
lastChange = "2016-04-29 04:27:07 +0000";
layers = (
{
anchors = (
{
name = bottom;
position = "{332, -9}";
},
{
name = top;
position = "{330, 545}";
}
);
layerId = "5A9DA08A-6EB1-451A-A52A-FC81F1DBA669";
paths = (
{
closed = 1;
nodes = (
"524 44 CURVE SMOOTH",
"532 49 OFFCURVE",
"537 58 OFFCURVE",
"537 69 CURVE SMOOTH",
"537 249 LINE SMOOTH",
"537 268 OFFCURVE",
"526 274 OFFCURVE",
"501 274 CURVE SMOOTH",
"348 274 LINE SMOOTH",
"335 274 OFFCURVE",
"323 263 OFFCURVE",
"323 249 CURVE SMOOTH",
"323 236 OFFCURVE",
"335 224 OFFCURVE",
"348 224 CURVE SMOOTH",
"487 224 LINE",
"487 79 LINE",
"446 56 OFFCURVE",
"397 41 OFFCURVE",
"332 41 CURVE SMOOTH",
"192 41 OFFCURVE",
"111 140 OFFCURVE",
"111 264 CURVE SMOOTH",
"111 402 OFFCURVE",
"205 494 OFFCURVE",
"335 494 CURVE SMOOTH",
"388 494 OFFCURVE",
"433 484 OFFCURVE",
"472 469 CURVE SMOOTH",
"475 468 OFFCURVE",
"478 467 OFFCURVE",
"481 467 CURVE SMOOTH",
"497 467 OFFCURVE",
"506 479 OFFCURVE",
"506 492 CURVE SMOOTH",
"506 503 OFFCURVE",
"500 511 OFFCURVE",
"490 515 CURVE SMOOTH",
"445 531 OFFCURVE",
"394 544 OFFCURVE",
"335 544 CURVE SMOOTH",
"177 544 OFFCURVE",
"61 432 OFFCURVE",
"61 264 CURVE SMOOTH",
"61 112 OFFCURVE",
"160 -9 OFFCURVE",
"332 -9 CURVE SMOOTH",
"415 -9 OFFCURVE",
"475 13 OFFCURVE"
);
}
);
width = 618;
}
);
leftKerningGroup = O;
note = G;
unicode = 0047;
userData = {
com.typemytype.robofont.layerData = {
background = {
anchors = (
);
components = (
);
contours = (
);
lib = {
};
name = G;
unicodes = (
);
width = 618;
};
};
};
},
{
glyphname = Gbreve;
lastChange = "2016-04-29 04:27:07 +0000";
layers = (
{
background = {
paths = (
{
closed = 1;
nodes = (
"220 745 CURVE SMOOTH",
"216 750 OFFCURVE",
"210 753 OFFCURVE",
"203 753 CURVE SMOOTH",
"191 753 OFFCURVE",
"181 743 OFFCURVE",
"181 731 CURVE SMOOTH",
"181 726 OFFCURVE",
"183 721 OFFCURVE",
"186 717 CURVE SMOOTH",
"219 675 OFFCURVE",
"268 646 OFFCURVE",
"322 646 CURVE SMOOTH",
"383 646 OFFCURVE",
"425 675 OFFCURVE",
"456 719 CURVE SMOOTH",
"458 722 OFFCURVE",
"460 726 OFFCURVE",
"460 730 CURVE SMOOTH",
"460 742 OFFCURVE",
"451 753 OFFCURVE",
"439 753 CURVE SMOOTH",
"432 753 OFFCURVE",
"424 749 OFFCURVE",
"420 743 CURVE SMOOTH",
"398 711 OFFCURVE",
"367 690 OFFCURVE",
"322 690 CURVE SMOOTH",
"282 690 OFFCURVE",
"245 713 OFFCURVE"
);
},
{
closed = 1;
nodes = (
"524 44 CURVE SMOOTH",
"532 49 OFFCURVE",
"537 58 OFFCURVE",
"537 69 CURVE SMOOTH",
"537 249 LINE SMOOTH",
"537 268 OFFCURVE",
"526 274 OFFCURVE",
"501 274 CURVE SMOOTH",
"348 274 LINE SMOOTH",
"335 274 OFFCURVE",
"323 263 OFFCURVE",
"323 249 CURVE SMOOTH",
"323 236 OFFCURVE",
"335 224 OFFCURVE",
"348 224 CURVE SMOOTH",
"487 224 LINE",
"487 79 LINE",
"446 56 OFFCURVE",
"397 41 OFFCURVE",
"332 41 CURVE SMOOTH",
"192 41 OFFCURVE",
"111 140 OFFCURVE",
"111 264 CURVE SMOOTH",
"111 402 OFFCURVE",
"205 494 OFFCURVE",
"335 494 CURVE SMOOTH",
"388 494 OFFCURVE",
"433 484 OFFCURVE",
"472 469 CURVE SMOOTH",
"475 468 OFFCURVE",
"478 467 OFFCURVE",
"481 467 CURVE SMOOTH",
"497 467 OFFCURVE",
"506 479 OFFCURVE",
"506 492 CURVE SMOOTH",
"506 503 OFFCURVE",
"500 511 OFFCURVE",
"490 515 CURVE SMOOTH",
"445 531 OFFCURVE",
"394 544 OFFCURVE",
"335 544 CURVE SMOOTH",
"177 544 OFFCURVE",
"61 432 OFFCURVE",
"61 264 CURVE SMOOTH",
"61 112 OFFCURVE",
"160 -9 OFFCURVE",
"332 -9 CURVE SMOOTH",
"415 -9 OFFCURVE",
"475 13 OFFCURVE"
);
}
);
};
components = (
{
name = G;
},
{
name = brevecomb.case;
transform = "{1, 0, 0, 1, 330, 10}";
}
);
layerId = "5A9DA08A-6EB1-451A-A52A-FC81F1DBA669";
width = 618;
}
);
leftKerningGroup = O;
note = Gbreve;
unicode = 011E;
userData = {
com.typemytype.robofont.layerData = {
background = {
anchors = (
);
components = (
);
contours = (
);
lib = {
};
name = Gbreve;
unicodes = (
);
width = 618;
};
};
};
},
{
glyphname = Gcommaaccent;
lastChange = "2016-04-29 04:27:07 +0000";
layers = (
{
background = {
paths = (
{
closed = 1;
nodes = (
"352 -91 CURVE SMOOTH",
"349 -84 OFFCURVE",
"341 -80 OFFCURVE",
"333 -80 CURVE SMOOTH",
"320 -80 OFFCURVE",
"311 -89 OFFCURVE",
"311 -102 CURVE SMOOTH",
"311 -106 OFFCURVE",
"312 -109 OFFCURVE",
"314 -113 CURVE SMOOTH",
"318 -120 OFFCURVE",
"320 -130 OFFCURVE",
"320 -139 CURVE SMOOTH",
"320 -170 OFFCURVE",
"293 -196 OFFCURVE",
"256 -213 CURVE SMOOTH",
"248 -217 OFFCURVE",
"243 -225 OFFCURVE",
"243 -233 CURVE SMOOTH",
"243 -245 OFFCURVE",
"254 -255 OFFCURVE",
"265 -255 CURVE SMOOTH",
"268 -255 OFFCURVE",
"271 -254 OFFCURVE",
"274 -253 CURVE SMOOTH",
"331 -226 OFFCURVE",
"364 -184 OFFCURVE",
"364 -139 CURVE SMOOTH",
"364 -122 OFFCURVE",
"360 -106 OFFCURVE"
);
},
{
closed = 1;
nodes = (
"524 44 CURVE SMOOTH",
"532 49 OFFCURVE",
"537 58 OFFCURVE",
"537 69 CURVE SMOOTH",
"537 249 LINE SMOOTH",
"537 268 OFFCURVE",
"526 274 OFFCURVE",
"501 274 CURVE SMOOTH",
"348 274 LINE SMOOTH",
"335 274 OFFCURVE",
"323 263 OFFCURVE",
"323 249 CURVE SMOOTH",
"323 236 OFFCURVE",
"335 224 OFFCURVE",
"348 224 CURVE SMOOTH",
"487 224 LINE",
"487 79 LINE",
"446 56 OFFCURVE",
"397 41 OFFCURVE",
"332 41 CURVE SMOOTH",
"192 41 OFFCURVE",
"111 140 OFFCURVE",
"111 264 CURVE SMOOTH",
"111 402 OFFCURVE",
"205 494 OFFCURVE",
"335 494 CURVE SMOOTH",
"388 494 OFFCURVE",
"433 484 OFFCURVE",
"472 469 CURVE SMOOTH",
"475 468 OFFCURVE",
"478 467 OFFCURVE",
"481 467 CURVE SMOOTH",
"497 467 OFFCURVE",
"506 479 OFFCURVE",
"506 492 CURVE SMOOTH",
"506 503 OFFCURVE",
"500 511 OFFCURVE",
"490 515 CURVE SMOOTH",
"445 531 OFFCURVE",
"394 544 OFFCURVE",
"335 544 CURVE SMOOTH",
"177 544 OFFCURVE",
"61 432 OFFCURVE",
"61 264 CURVE SMOOTH",
"61 112 OFFCURVE",
"160 -9 OFFCURVE",
"332 -9 CURVE SMOOTH",
"415 -9 OFFCURVE",
"475 13 OFFCURVE"
);
}
);
};
components = (
{
name = G;
},
{
name = commaaccentcomb;
transform = "{1, 0, 0, 1, 332, -9}";
}
);
layerId = "5A9DA08A-6EB1-451A-A52A-FC81F1DBA669";
width = 618;
}
);
leftKerningGroup = O;
note = uni0122;
unicode = 0122;
userData = {
com.typemytype.robofont.layerData = {
background = {
anchors = (
);
components = (
);
contours = (
);
lib = {
};
name = uni0122;
unicodes = (
);
width = 618;
};
};
};
},
{
glyphname = H;
lastChange = "2016-04-03 12:04:32 +0000";
layers = (
{
layerId = "5A9DA08A-6EB1-451A-A52A-FC81F1DBA669";
paths = (
{
closed = 1;
nodes = (
"508 0 CURVE SMOOTH",
"522 0 OFFCURVE",
"533 11 OFFCURVE",
"533 25 CURVE SMOOTH",
"533 510 LINE SMOOTH",
"533 524 OFFCURVE",
"522 535 OFFCURVE",
"508 535 CURVE SMOOTH",
"495 535 OFFCURVE",
"483 524 OFFCURVE",
"483 510 CURVE SMOOTH",
"483 310 LINE",
"148 310 LINE",
"148 510 LINE SMOOTH",
"148 524 OFFCURVE",
"137 535 OFFCURVE",
"123 535 CURVE SMOOTH",
"110 535 OFFCURVE",
"98 524 OFFCURVE",
"98 510 CURVE SMOOTH",
"98 25 LINE SMOOTH",
"98 12 OFFCURVE",
"110 0 OFFCURVE",
"123 0 CURVE SMOOTH",
"137 0 OFFCURVE",
"148 11 OFFCURVE",
"148 25 CURVE SMOOTH",
"148 260 LINE",
"483 260 LINE",
"483 25 LINE SMOOTH",
"483 12 OFFCURVE",
"495 0 OFFCURVE"
);
}
);
width = 631;
}
);
note = H;
unicode = 0048;
userData = {
com.typemytype.robofont.layerData = {
background = {
anchors = (
);
components = (
);
contours = (
);
lib = {
};
name = H;
unicodes = (
);
width = 631;
};
};
};
},
{
color = 6;
glyphname = I;
lastChange = "2016-04-07 01:21:37 +0000";
layers = (
{
anchors = (
{
name = bottom;
position = "{128, 0}";
},
{
name = top;
position = "{128, 535}";
}
);
layerId = "5A9DA08A-6EB1-451A-A52A-FC81F1DBA669";
paths = (
{
closed = 1;
nodes = (
"153 510 LINE SMOOTH",
"153 524 OFFCURVE",
"142 535 OFFCURVE",
"128 535 CURVE SMOOTH",
"115 535 OFFCURVE",
"103 524 OFFCURVE",
"103 510 CURVE SMOOTH",
"103 25 LINE SMOOTH",
"103 12 OFFCURVE",
"115 0 OFFCURVE",
"128 0 CURVE SMOOTH",
"142 0 OFFCURVE",
"153 11 OFFCURVE",
"153 25 CURVE SMOOTH"
);
}
);
width = 256;
}
);
note = I;
unicode = 0049;
userData = {
com.typemytype.robofont.layerData = {
background = {
anchors = (
);
components = (
);
contours = (
);
lib = {
};
name = I;
unicodes = (
);
width = 256;
};
};
};
},
{
glyphname = Idieresis;
lastChange = "2016-04-07 19:07:18 +0000";
layers = (
{
background = {
paths = (
{
closed = 1;
nodes = (
"228 730 CURVE SMOOTH",
"208 730 OFFCURVE",
"189 712 OFFCURVE",
"189 682 CURVE SMOOTH",
"189 650 OFFCURVE",
"208 634 OFFCURVE",
"228 634 CURVE SMOOTH",
"246 634 OFFCURVE",
"266 649 OFFCURVE",
"266 682 CURVE SMOOTH",
"266 713 OFFCURVE",
"246 730 OFFCURVE"
);
},
{
closed = 1;
nodes = (
"35 730 CURVE SMOOTH",
"15 730 OFFCURVE",
"-5 711 OFFCURVE",
"-5 682 CURVE SMOOTH",
"-5 651 OFFCURVE",
"15 634 OFFCURVE",
"35 634 CURVE SMOOTH",
"53 634 OFFCURVE",
"73 649 OFFCURVE",
"73 682 CURVE SMOOTH",
"73 713 OFFCURVE",
"53 730 OFFCURVE"
);
},
{
closed = 1;
nodes = (
"153 510 LINE SMOOTH",
"153 524 OFFCURVE",
"142 535 OFFCURVE",
"128 535 CURVE SMOOTH",
"115 535 OFFCURVE",
"103 524 OFFCURVE",
"103 510 CURVE SMOOTH",
"103 25 LINE SMOOTH",
"103 12 OFFCURVE",
"115 0 OFFCURVE",
"128 0 CURVE SMOOTH",
"142 0 OFFCURVE",
"153 11 OFFCURVE",
"153 25 CURVE SMOOTH"
);
}
);
};
components = (
{
name = I;
},
{
name = dieresiscomb.case;
transform = "{1, 0, 0, 1, 128, 0}";
}
);
layerId = "5A9DA08A-6EB1-451A-A52A-FC81F1DBA669";
width = 256;
}
);
note = Idieresis;
unicode = 00CF;
userData = {
com.typemytype.robofont.layerData = {
background = {
anchors = (
);
components = (
);
contours = (
);
lib = {
};
name = Idieresis;
unicodes = (
);
width = 256;
};
};
};
},
{
glyphname = Igrave;
lastChange = "2016-04-07 19:07:27 +0000";
layers = (
{
background = {
paths = (
{
closed = 1;
nodes = (
"28 747 CURVE SMOOTH",
"24 749 OFFCURVE",
"21 750 OFFCURVE",
"17 750 CURVE SMOOTH",
"5 750 OFFCURVE",
"-5 739 OFFCURVE",
"-5 728 CURVE SMOOTH",
"-5 720 OFFCURVE",
"-1 713 OFFCURVE",
"6 709 CURVE SMOOTH",
"41 689 OFFCURVE",
"93 650 OFFCURVE",
"119 630 CURVE SMOOTH",
"123 627 OFFCURVE",
"128 625 OFFCURVE",
"133 625 CURVE SMOOTH",
"145 625 OFFCURVE",
"155 636 OFFCURVE",
"155 647 CURVE SMOOTH",
"155 654 OFFCURVE",
"152 660 OFFCURVE",
"147 664 CURVE SMOOTH",
"119 686 OFFCURVE",
"65 727 OFFCURVE"
);
},
{
closed = 1;
nodes = (
"153 510 LINE SMOOTH",
"153 524 OFFCURVE",
"142 535 OFFCURVE",
"128 535 CURVE SMOOTH",
"115 535 OFFCURVE",
"103 524 OFFCURVE",
"103 510 CURVE SMOOTH",
"103 25 LINE SMOOTH",
"103 12 OFFCURVE",
"115 0 OFFCURVE",
"128 0 CURVE SMOOTH",
"142 0 OFFCURVE",
"153 11 OFFCURVE",
"153 25 CURVE SMOOTH"
);
}
);
};
components = (
{
name = I;
},
{
name = gravecomb.case;
transform = "{1, 0, 0, 1, 128, 0}";
}
);
layerId = "5A9DA08A-6EB1-451A-A52A-FC81F1DBA669";
width = 256;
}
);
note = Igrave;
unicode = 00CC;
userData = {
com.typemytype.robofont.layerData = {
background = {
anchors = (
);
components = (
);
contours = (
);
lib = {
};
name = Igrave;
unicodes = (
);
width = 256;
};
};
};
},
{
glyphname = Imacron;
lastChange = "2016-04-07 05:41:32 +0000";
layers = (
{
components = (
{
name = I;
}
);
layerId = "5A9DA08A-6EB1-451A-A52A-FC81F1DBA669";
paths = (
{
closed = 1;
nodes = (
"221 664 LINE SMOOTH",
"230 664 OFFCURVE",
"238 674 OFFCURVE",
"238 686 CURVE SMOOTH",
"238 698 OFFCURVE",
"230 708 OFFCURVE",
"221 708 CURVE SMOOTH",
"36 708 LINE SMOOTH",
"26 708 OFFCURVE",
"18 698 OFFCURVE",
"18 686 CURVE SMOOTH",
"18 674 OFFCURVE",
"26 664 OFFCURVE",
"36 664 CURVE SMOOTH"
);
}
);
width = 256;
}
);
note = Imacron;
unicode = 012A;
userData = {
com.typemytype.robofont.layerData = {
background = {
anchors = (
);
components = (
);
contours = (
);
lib = {
};
name = Imacron;
unicodes = (
);
width = 256;
};
};
};
},
{
glyphname = Iogonek;
lastChange = "2016-04-03 12:04:32 +0000";
layers = (
{
layerId = "5A9DA08A-6EB1-451A-A52A-FC81F1DBA669";
paths = (
{
closed = 1;
nodes = (
"140 -221 CURVE SMOOTH",
"152 -221 OFFCURVE",
"162 -211 OFFCURVE",
"162 -199 CURVE SMOOTH",
"162 -187 OFFCURVE",
"152 -177 OFFCURVE",
"140 -177 CURVE SMOOTH",
"91 -177 OFFCURVE",
"44 -167 OFFCURVE",
"44 -139 CURVE SMOOTH",
"44 -115 OFFCURVE",
"68 -89 OFFCURVE",
"139 -31 CURVE SMOOTH",
"148 -24 OFFCURVE",
"153 -14 OFFCURVE",
"153 -4 CURVE SMOOTH",
"153 510 LINE SMOOTH",
"153 524 OFFCURVE",
"142 535 OFFCURVE",
"128 535 CURVE SMOOTH",
"115 535 OFFCURVE",
"103 524 OFFCURVE",
"103 510 CURVE SMOOTH",
"103 -4 LINE",
"12 -78 OFFCURVE",
"0 -110 OFFCURVE",
"0 -139 CURVE SMOOTH",
"0 -181 OFFCURVE",
"33 -221 OFFCURVE"
);
}
);
width = 256;
}
);
note = Iogonek;
unicode = 012E;
userData = {
com.typemytype.robofont.layerData = {
background = {
anchors = (
);
components = (
);
contours = (
);
lib = {
};
name = Iogonek;
unicodes = (
);
width = 256;
};
};
};
},
{
glyphname = J;
lastChange = "2016-04-03 12:04:32 +0000";
layers = (
{
layerId = "5A9DA08A-6EB1-451A-A52A-FC81F1DBA669";
paths = (
{
closed = 1;
nodes = (
"95 52 CURVE SMOOTH",
"83 57 OFFCURVE",
"76 60 OFFCURVE",
"71 60 CURVE SMOOTH",
"58 60 OFFCURVE",
"46 50 OFFCURVE",
"46 35 CURVE SMOOTH",
"46 26 OFFCURVE",
"51 16 OFFCURVE",
"61 12 CURVE SMOOTH",
"93 -2 OFFCURVE",
"127 -9 OFFCURVE",
"160 -9 CURVE SMOOTH",
"251 -9 OFFCURVE",
"303 46 OFFCURVE",
"303 167 CURVE SMOOTH",
"303 510 LINE SMOOTH",
"303 524 OFFCURVE",
"292 535 OFFCURVE",
"278 535 CURVE SMOOTH",
"265 535 OFFCURVE",
"253 524 OFFCURVE",
"253 510 CURVE SMOOTH",
"253 167 LINE SMOOTH",
"253 88 OFFCURVE",
"225 41 OFFCURVE",
"160 41 CURVE SMOOTH",
"133 41 OFFCURVE",
"110 46 OFFCURVE"
);
}
);
width = 389;
}
);
note = J;
unicode = 004A;
userData = {
com.typemytype.robofont.layerData = {
background = {
anchors = (
);
components = (
);
contours = (
);
lib = {
};
name = J;
unicodes = (
);
width = 389;
};
};
};
},
{
color = 6;
glyphname = K;
lastChange = "2016-04-29 04:27:07 +0000";
layers = (
{
anchors = (
{
name = bottom;
position = "{275, 15}";
}
);
layerId = "5A9DA08A-6EB1-451A-A52A-FC81F1DBA669";
paths = (
{
closed = 1;
nodes = (
"479 0 CURVE SMOOTH",
"493 0 OFFCURVE",
"504 13 OFFCURVE",
"504 25 CURVE SMOOTH",
"504 31 OFFCURVE",
"502 37 OFFCURVE",
"498 41 CURVE SMOOTH",
"447 99 OFFCURVE",
"341 229 OFFCURVE",
"280 302 CURVE",
"348 365 OFFCURVE",
"425 438 OFFCURVE",
"477 493 CURVE SMOOTH",
"481 498 OFFCURVE",
"484 504 OFFCURVE",
"484 510 CURVE SMOOTH",
"484 523 OFFCURVE",
"472 535 OFFCURVE",
"459 535 CURVE SMOOTH",
"452 535 OFFCURVE",
"446 532 OFFCURVE",
"441 527 CURVE SMOOTH",
"360 443 OFFCURVE",
"223 318 OFFCURVE",
"148 249 CURVE",
"148 510 LINE SMOOTH",
"148 524 OFFCURVE",
"137 535 OFFCURVE",
"123 535 CURVE SMOOTH",
"110 535 OFFCURVE",
"98 524 OFFCURVE",
"98 510 CURVE SMOOTH",
"98 25 LINE SMOOTH",
"98 12 OFFCURVE",
"110 0 OFFCURVE",
"123 0 CURVE SMOOTH",
"137 0 OFFCURVE",
"148 11 OFFCURVE",
"148 25 CURVE SMOOTH",
"148 182 LINE",
"168 201 OFFCURVE",
"203 232 OFFCURVE",
"243 269 CURVE",
"304 195 OFFCURVE",
"409 67 OFFCURVE",
"460 9 CURVE SMOOTH",
"465 3 OFFCURVE",
"472 0 OFFCURVE"
);
}
);
width = 557;
}
);
note = K;
rightKerningGroup = K;
unicode = 004B;
userData = {
com.typemytype.robofont.layerData = {
background = {
anchors = (
);
components = (
);
contours = (
);
lib = {
};
name = K;
unicodes = (
);
width = 557;
};
};
};
},
{
glyphname = Kcommaaccent;
lastChange = "2016-04-29 04:27:07 +0000";
layers = (
{
background = {
paths = (
{
closed = 1;
nodes = (
"479 0 CURVE SMOOTH",
"493 0 OFFCURVE",
"504 13 OFFCURVE",
"504 25 CURVE SMOOTH",
"504 31 OFFCURVE",
"502 37 OFFCURVE",
"498 41 CURVE SMOOTH",
"447 99 OFFCURVE",
"341 229 OFFCURVE",
"280 302 CURVE",
"348 365 OFFCURVE",
"425 438 OFFCURVE",
"477 493 CURVE",
"481 498 OFFCURVE",
"484 504 OFFCURVE",
"484 510 CURVE SMOOTH",
"484 523 OFFCURVE",
"472 535 OFFCURVE",
"459 535 CURVE SMOOTH",
"452 535 OFFCURVE",
"446 532 OFFCURVE",
"441 527 CURVE SMOOTH",
"360 443 OFFCURVE",
"223 318 OFFCURVE",
"148 249 CURVE",
"148 510 LINE SMOOTH",
"148 524 OFFCURVE",
"137 535 OFFCURVE",
"123 535 CURVE SMOOTH",
"110 535 OFFCURVE",
"98 524 OFFCURVE",
"98 510 CURVE SMOOTH",
"98 25 LINE SMOOTH",
"98 12 OFFCURVE",
"110 0 OFFCURVE",
"123 0 CURVE SMOOTH",
"137 0 OFFCURVE",
"148 11 OFFCURVE",
"148 25 CURVE SMOOTH",
"148 182 LINE",
"168 201 OFFCURVE",
"203 232 OFFCURVE",
"243 269 CURVE",
"304 195 OFFCURVE",
"409 67 OFFCURVE",
"460 9 CURVE SMOOTH",
"465 3 OFFCURVE",
"472 0 OFFCURVE"
);
},
{
closed = 1;
nodes = (
"298 -71 CURVE SMOOTH",
"295 -64 OFFCURVE",
"287 -60 OFFCURVE",
"279 -60 CURVE SMOOTH",
"266 -60 OFFCURVE",
"257 -69 OFFCURVE",
"257 -82 CURVE SMOOTH",
"257 -86 OFFCURVE",
"258 -89 OFFCURVE",
"260 -93 CURVE SMOOTH",
"264 -100 OFFCURVE",
"266 -110 OFFCURVE",
"266 -119 CURVE SMOOTH",
"266 -150 OFFCURVE",
"239 -176 OFFCURVE",
"202 -193 CURVE SMOOTH",
"194 -197 OFFCURVE",
"189 -205 OFFCURVE",
"189 -213 CURVE SMOOTH",
"189 -225 OFFCURVE",
"200 -235 OFFCURVE",
"211 -235 CURVE SMOOTH",
"214 -235 OFFCURVE",
"217 -234 OFFCURVE",
"220 -233 CURVE SMOOTH",
"277 -206 OFFCURVE",
"310 -164 OFFCURVE",
"310 -119 CURVE SMOOTH",
"310 -102 OFFCURVE",
"306 -86 OFFCURVE"
);
}
);
};
components = (
{
name = K;
},
{
name = commaaccentcomb;
transform = "{1, 0, 0, 1, 275, 15}";
}
);
layerId = "5A9DA08A-6EB1-451A-A52A-FC81F1DBA669";
width = 557;
}
);
note = uni0136;
rightKerningGroup = K;
unicode = 0136;
userData = {
com.typemytype.robofont.layerData = {
background = {
anchors = (
);
components = (
);
contours = (
);
lib = {
};
name = uni0136;
unicodes = (
);
width = 553;
};
};
};
},
{
color = 6;
glyphname = L;
lastChange = "2016-04-29 04:27:07 +0000";
layers = (
{
anchors = (
{
name = bottom;
position = "{260, 0}";
},
{
name = top;
position = "{123, 535}";
}
);
layerId = "5A9DA08A-6EB1-451A-A52A-FC81F1DBA669";
paths = (
{
closed = 1;
nodes = (
"394 0 LINE SMOOTH",
"408 0 OFFCURVE",
"419 12 OFFCURVE",
"419 25 CURVE SMOOTH",
"419 39 OFFCURVE",
"408 50 OFFCURVE",
"394 50 CURVE SMOOTH",
"148 50 LINE",
"148 510 LINE SMOOTH",
"148 524 OFFCURVE",
"137 535 OFFCURVE",
"123 535 CURVE SMOOTH",
"110 535 OFFCURVE",
"98 524 OFFCURVE",
"98 510 CURVE SMOOTH",
"98 25 LINE SMOOTH",
"98 12 OFFCURVE",
"110 0 OFFCURVE",
"123 0 CURVE SMOOTH"
);
}
);
width = 459;
}
);
note = L;
rightKerningGroup = L;
unicode = 004C;
userData = {
com.typemytype.robofont.layerData = {
background = {
anchors = (
);
components = (
);
contours = (
);
lib = {
};
name = L;
unicodes = (
);
width = 459;
};
};
};
},
{
glyphname = Lcaron;
lastChange = "2016-04-29 04:27:07 +0000";
layers = (
{
components = (
{
name = L;
}
);
layerId = "5A9DA08A-6EB1-451A-A52A-FC81F1DBA669";
paths = (
{
closed = 1;
nodes = (
"341 483 LINE SMOOTH",
"343 497 OFFCURVE",
"346 519 OFFCURVE",
"346 523 CURVE SMOOTH",
"346 535 OFFCURVE",
"337 548 OFFCURVE",
"321 548 CURVE SMOOTH",
"309 548 OFFCURVE",
"298 541 OFFCURVE",
"296 527 CURVE SMOOTH",
"279 409 LINE SMOOTH",
"277 397 OFFCURVE",
"276 387 OFFCURVE",
"276 384 CURVE SMOOTH",
"276 370 OFFCURVE",
"288 359 OFFCURVE",
"301 359 CURVE SMOOTH",
"313 359 OFFCURVE",
"324 368 OFFCURVE",
"326 380 CURVE SMOOTH"
);
}
);
width = 459;
}
);
note = Lcaron;
rightKerningGroup = L;
unicode = 013D;
userData = {
com.typemytype.robofont.layerData = {
background = {
anchors = (
);
components = (
);
contours = (
);
lib = {
};
name = Lcaron;
unicodes = (
);
width = 459;
};
};
};
},
{
glyphname = Lcommaaccent;
lastChange = "2016-04-29 04:27:07 +0000";
layers = (
{
background = {
paths = (
{
closed = 1;
nodes = (
"283 -91 CURVE SMOOTH",
"280 -84 OFFCURVE",
"272 -80 OFFCURVE",
"264 -80 CURVE SMOOTH",
"251 -80 OFFCURVE",
"242 -89 OFFCURVE",
"242 -102 CURVE SMOOTH",
"242 -106 OFFCURVE",
"243 -109 OFFCURVE",
"245 -113 CURVE SMOOTH",
"249 -120 OFFCURVE",
"251 -130 OFFCURVE",
"251 -139 CURVE SMOOTH",
"251 -170 OFFCURVE",
"224 -196 OFFCURVE",
"187 -213 CURVE SMOOTH",
"179 -217 OFFCURVE",
"174 -225 OFFCURVE",
"174 -233 CURVE SMOOTH",
"174 -245 OFFCURVE",
"185 -255 OFFCURVE",
"196 -255 CURVE SMOOTH",
"199 -255 OFFCURVE",
"202 -254 OFFCURVE",
"205 -253 CURVE SMOOTH",
"262 -226 OFFCURVE",
"295 -184 OFFCURVE",
"295 -139 CURVE SMOOTH",
"295 -122 OFFCURVE",
"291 -106 OFFCURVE"
);
},
{
closed = 1;
nodes = (
"394 0 LINE SMOOTH",
"408 0 OFFCURVE",
"419 12 OFFCURVE",
"419 25 CURVE SMOOTH",
"419 39 OFFCURVE",
"408 50 OFFCURVE",
"394 50 CURVE SMOOTH",
"148 50 LINE",
"148 510 LINE SMOOTH",
"148 524 OFFCURVE",
"137 535 OFFCURVE",
"123 535 CURVE SMOOTH",
"110 535 OFFCURVE",
"98 524 OFFCURVE",
"98 510 CURVE SMOOTH",
"98 25 LINE SMOOTH",
"98 12 OFFCURVE",
"110 0 OFFCURVE",
"123 0 CURVE SMOOTH"
);
}
);
};
components = (
{
name = L;
},
{
name = commaaccentcomb;
transform = "{1, 0, 0, 1, 260, 0}";
}
);
layerId = "5A9DA08A-6EB1-451A-A52A-FC81F1DBA669";
width = 459;
}
);
note = uni013B;
rightKerningGroup = L;
unicode = 013B;
userData = {
com.typemytype.robofont.layerData = {
background = {
anchors = (
);
components = (
);
contours = (
);
lib = {
};
name = uni013B;
unicodes = (
);
width = 469;
};
};
};
},
{
glyphname = Lslash;
lastChange = "2016-04-29 04:27:07 +0000";
layers = (
{
layerId = "5A9DA08A-6EB1-451A-A52A-FC81F1DBA669";
paths = (
{
closed = 1;
nodes = (
"409 0 LINE",
"423 0 OFFCURVE",
"434 12 OFFCURVE",
"434 25 CURVE SMOOTH",
"434 39 OFFCURVE",
"423 50 OFFCURVE",
"409 50 CURVE SMOOTH",
"163 50 LINE",
"163 241 LINE",
"291 326 LINE SMOOTH",
"298 331 OFFCURVE",
"302 339 OFFCURVE",
"302 348 CURVE SMOOTH",
"302 359 OFFCURVE",
"291 372 OFFCURVE",
"276 372 CURVE SMOOTH",
"272 372 OFFCURVE",
"267 371 OFFCURVE",
"263 368 CURVE SMOOTH",
"163 302 LINE",
"163 510 LINE SMOOTH",
"163 524 OFFCURVE",
"152 535 OFFCURVE",
"138 535 CURVE SMOOTH",
"125 535 OFFCURVE",
"113 524 OFFCURVE",
"113 510 CURVE SMOOTH",
"113 269 LINE",
"48 226 LINE SMOOTH",
"41 221 OFFCURVE",
"37 213 OFFCURVE",
"37 204 CURVE SMOOTH",
"37 193 OFFCURVE",
"49 180 OFFCURVE",
"63 180 CURVE SMOOTH",
"67 180 OFFCURVE",
"72 181 OFFCURVE",
"76 184 CURVE SMOOTH",
"113 208 LINE",
"113 25 LINE SMOOTH",
"113 12 OFFCURVE",
"125 0 OFFCURVE",
"138 0 CURVE SMOOTH"
);
}
);
width = 474;
}
);
note = Lslash;
rightKerningGroup = L;
unicode = 0141;
userData = {
com.typemytype.robofont.layerData = {
background = {
anchors = (
);
components = (
);
contours = (
);
lib = {
};
name = Lslash;
unicodes = (
);
width = 474;
};
};
};
},
{
glyphname = M;
lastChange = "2016-04-03 12:04:33 +0000";
layers = (
{
layerId = "5A9DA08A-6EB1-451A-A52A-FC81F1DBA669";
paths = (
{
closed = 1;
nodes = (
"714 -2 CURVE SMOOTH",
"728 -2 OFFCURVE",
"739 9 OFFCURVE",
"739 23 CURVE SMOOTH",
"739 27 OFFCURVE",
"738 37 OFFCURVE",
"728 103 CURVE SMOOTH",
"721 148 OFFCURVE",
"689 368 OFFCURVE",
"657 525 CURVE SMOOTH",
"655 537 OFFCURVE",
"643 545 OFFCURVE",
"631 545 CURVE SMOOTH",
"622 545 OFFCURVE",
"614 542 OFFCURVE",
"608 532 CURVE SMOOTH",
"539 403 OFFCURVE",
"464 235 OFFCURVE",
"407 104 CURVE",
"342 237 OFFCURVE",
"263 400 OFFCURVE",
"208 512 CURVE SMOOTH",
"204 521 OFFCURVE",
"197 531 OFFCURVE",
"192 536 CURVE SMOOTH",
"188 541 OFFCURVE",
"182 544 OFFCURVE",
"174 544 CURVE SMOOTH",
"162 544 OFFCURVE",
"150 535 OFFCURVE",
"148 523 CURVE SMOOTH",
"123 380 OFFCURVE",
"93 142 OFFCURVE",
"83 53 CURVE SMOOTH",
"81 35 OFFCURVE",
"80 25 OFFCURVE",
"80 24 CURVE SMOOTH",
"80 9 OFFCURVE",
"91 -2 OFFCURVE",
"104 -2 CURVE SMOOTH",
"117 -2 OFFCURVE",
"129 8 OFFCURVE",
"130 20 CURVE SMOOTH",
"141 119 OFFCURVE",
"165 305 OFFCURVE",
"187 446 CURVE",
"247 321 OFFCURVE",
"326 154 OFFCURVE",
"385 31 CURVE SMOOTH",
"389 22 OFFCURVE",
"399 17 OFFCURVE",
"409 17 CURVE SMOOTH",
"420 17 OFFCURVE",
"427 24 OFFCURVE",
"431 34 CURVE SMOOTH",
"481 155 OFFCURVE",
"553 312 OFFCURVE",
"620 447 CURVE",
"647 303 OFFCURVE",
"674 134 OFFCURVE",
"689 20 CURVE SMOOTH",
"691 7 OFFCURVE",
"702 -2 OFFCURVE"
);
}
);
width = 820;
}
);
note = M;
unicode = 004D;
userData = {
com.typemytype.robofont.layerData = {
background = {
anchors = (
);
components = (
);
contours = (
);
lib = {
};
name = M;
unicodes = (
);
width = 820;
};
};
};
},
{
color = 6;
glyphname = N;
lastChange = "2016-04-23 21:54:11 +0000";
layers = (
{
anchors = (
{
name = bottom;
position = "{313, 16}";
},
{
name = top;
position = "{323, 513}";
}
);
layerId = "5A9DA08A-6EB1-451A-A52A-FC81F1DBA669";
paths = (
{
closed = 1;
nodes = (
"491 3 OFFCURVE",
"499 0 OFFCURVE",
"513 0 CURVE SMOOTH",
"526 0 OFFCURVE",
"537 11 OFFCURVE",
"537 25 CURVE SMOOTH",
"537 510 LINE SMOOTH",
"537 524 OFFCURVE",
"526 535 OFFCURVE",
"512 535 CURVE SMOOTH",
"499 535 OFFCURVE",
"487 524 OFFCURVE",
"487 510 CURVE SMOOTH",
"487 91 LINE",
"377 235 OFFCURVE",
"216 436 OFFCURVE",
"149 525 CURVE SMOOTH",
"144 532 OFFCURVE",
"137 535 OFFCURVE",
"122 535 CURVE SMOOTH",
"110 535 OFFCURVE",
"98 524 OFFCURVE",
"98 510 CURVE SMOOTH",
"98 25 LINE SMOOTH",
"98 12 OFFCURVE",
"110 0 OFFCURVE",
"123 0 CURVE SMOOTH",
"137 0 OFFCURVE",
"148 11 OFFCURVE",
"148 25 CURVE SMOOTH",
"148 444 LINE",
"238 328 OFFCURVE",
"394 133 OFFCURVE",
"486 10 CURVE SMOOTH"
);
}
);
width = 635;
},
{
anchors = (
{
name = bottom;
position = "{304, 0}";
},
{
name = top;
position = "{323, 535}";
}
);
associatedMasterId = "5A9DA08A-6EB1-451A-A52A-FC81F1DBA669";
layerId = "ECEC41D9-28CF-473F-BFF1-0C99526D8937";
name = "Regular Apr 7 16, 13:58";
paths = (
{
closed = 1;
nodes = (
"491 3 OFFCURVE",
"499 0 OFFCURVE",
"513 0 CURVE SMOOTH",
"526 0 OFFCURVE",
"537 11 OFFCURVE",
"537 25 CURVE SMOOTH",
"537 510 LINE SMOOTH",
"537 524 OFFCURVE",
"526 535 OFFCURVE",
"512 535 CURVE SMOOTH",
"499 535 OFFCURVE",
"487 524 OFFCURVE",
"487 510 CURVE SMOOTH",
"487 91 LINE",
"377 235 OFFCURVE",
"216 436 OFFCURVE",
"149 525 CURVE SMOOTH",
"144 532 OFFCURVE",
"137 535 OFFCURVE",
"122 535 CURVE SMOOTH",
"110 535 OFFCURVE",
"98 524 OFFCURVE",
"98 510 CURVE SMOOTH",
"98 25 LINE SMOOTH",
"98 12 OFFCURVE",
"110 0 OFFCURVE",
"123 0 CURVE SMOOTH",
"137 0 OFFCURVE",
"148 11 OFFCURVE",
"148 25 CURVE SMOOTH",
"148 444 LINE",
"238 328 OFFCURVE",
"394 133 OFFCURVE",
"486 10 CURVE SMOOTH"
);
}
);
width = 635;
},
{
anchors = (
{
name = bottom;
position = "{304, 0}";
},
{
name = top;
position = "{323, 535}";
}
);
associatedMasterId = "5A9DA08A-6EB1-451A-A52A-FC81F1DBA669";
layerId = "FC41D2D2-EB68-48D0-82DE-743C8A0C0409";
name = "Regular Apr 7 16, 13:58";
paths = (
{
closed = 1;
nodes = (
"491 3 OFFCURVE",
"499 0 OFFCURVE",
"513 0 CURVE SMOOTH",
"526 0 OFFCURVE",
"537 11 OFFCURVE",
"537 25 CURVE SMOOTH",
"537 510 LINE SMOOTH",
"537 524 OFFCURVE",
"526 535 OFFCURVE",
"512 535 CURVE SMOOTH",
"499 535 OFFCURVE",
"487 524 OFFCURVE",
"487 510 CURVE SMOOTH",
"487 91 LINE",
"377 235 OFFCURVE",
"216 436 OFFCURVE",
"149 525 CURVE SMOOTH",
"144 532 OFFCURVE",
"137 535 OFFCURVE",
"122 535 CURVE SMOOTH",
"110 535 OFFCURVE",
"98 524 OFFCURVE",
"98 510 CURVE SMOOTH",
"98 25 LINE SMOOTH",
"98 12 OFFCURVE",
"110 0 OFFCURVE",
"123 0 CURVE SMOOTH",
"137 0 OFFCURVE",
"148 11 OFFCURVE",
"148 25 CURVE SMOOTH",
"148 444 LINE",
"238 328 OFFCURVE",
"394 133 OFFCURVE",
"486 10 CURVE SMOOTH"
);
}
);
width = 635;
}
);
note = N;
unicode = 004E;
userData = {
com.typemytype.robofont.layerData = {
background = {
anchors = (
);
components = (
);
contours = (
);
lib = {
};
name = N;
unicodes = (
);
width = 635;
};
};
};
},
{
glyphname = Nacute;
lastChange = "2016-04-08 00:06:45 +0000";
layers = (
{
background = {
paths = (
{
closed = 1;
nodes = (
"491 3 OFFCURVE",
"499 0 OFFCURVE",
"513 0 CURVE SMOOTH",
"526 0 OFFCURVE",
"537 11 OFFCURVE",
"537 25 CURVE SMOOTH",
"537 510 LINE SMOOTH",
"537 524 OFFCURVE",
"526 535 OFFCURVE",
"512 535 CURVE SMOOTH",
"499 535 OFFCURVE",
"487 524 OFFCURVE",
"487 510 CURVE SMOOTH",
"487 91 LINE",
"377 235 OFFCURVE",
"216 436 OFFCURVE",
"149 525 CURVE SMOOTH",
"144 532 OFFCURVE",
"137 535 OFFCURVE",
"122 535 CURVE SMOOTH",
"110 535 OFFCURVE",
"98 524 OFFCURVE",
"98 510 CURVE SMOOTH",
"98 25 LINE SMOOTH",
"98 12 OFFCURVE",
"110 0 OFFCURVE",
"123 0 CURVE SMOOTH",
"137 0 OFFCURVE",
"148 11 OFFCURVE",
"148 25 CURVE SMOOTH",
"148 444 LINE",
"238 328 OFFCURVE",
"394 133 OFFCURVE",
"486 10 CURVE SMOOTH"
);
},
{
closed = 1;
nodes = (
"458 688 CURVE SMOOTH",
"465 692 OFFCURVE",
"469 700 OFFCURVE",
"469 708 CURVE SMOOTH",
"469 718 OFFCURVE",
"460 729 OFFCURVE",
"446 729 CURVE SMOOTH",
"443 729 OFFCURVE",
"439 728 OFFCURVE",
"436 726 CURVE SMOOTH",
"389 699 OFFCURVE",
"341 667 OFFCURVE",
"311 646 CURVE SMOOTH",
"305 642 OFFCURVE",
"302 635 OFFCURVE",
"302 628 CURVE SMOOTH",
"302 616 OFFCURVE",
"311 606 OFFCURVE",
"324 606 CURVE SMOOTH",
"328 606 OFFCURVE",
"333 607 OFFCURVE",
"337 610 CURVE SMOOTH",
"365 631 OFFCURVE",
"413 661 OFFCURVE"
);
}
);
};
components = (
{
name = N;
},
{
name = acutecomb.case;
transform = "{1, 0, 0, 1, 323, -22}";
}
);
layerId = "5A9DA08A-6EB1-451A-A52A-FC81F1DBA669";
width = 635;
}
);
note = Nacute;
unicode = 0143;
userData = {
com.typemytype.robofont.layerData = {
background = {
anchors = (
);
components = (
);
contours = (
);
lib = {
};
name = Nacute;
unicodes = (
);
width = 635;
};
};
};
},
{
glyphname = Ncaron;
lastChange = "2021-11-04 13:30:26 +0000";
layers = (
{
background = {
paths = (
{
closed = 1;
nodes = (
"323 613 OFFCURVE",
"328 615 OFFCURVE",
"332 618 CURVE SMOOTH",
"365 642 OFFCURVE",
"400 666 OFFCURVE",
"428 687 CURVE SMOOTH",
"434 692 OFFCURVE",
"437 699 OFFCURVE",
"437 706 CURVE SMOOTH",
"437 717 OFFCURVE",
"427 727 OFFCURVE",
"414 727 CURVE SMOOTH",
"410 727 OFFCURVE",
"406 726 OFFCURVE",
"402 723 CURVE SMOOTH",
"377 704 OFFCURVE",
"346 683 OFFCURVE",
"315 661 CURVE",
"285 683 OFFCURVE",
"254 704 OFFCURVE",
"229 723 CURVE SMOOTH",
"225 726 OFFCURVE",
"221 727 OFFCURVE",
"217 727 CURVE SMOOTH",
"203 727 OFFCURVE",
"194 717 OFFCURVE",
"194 706 CURVE SMOOTH",
"194 699 OFFCURVE",
"197 692 OFFCURVE",
"203 687 CURVE SMOOTH",
"231 666 OFFCURVE",
"265 642 OFFCURVE",
"299 618 CURVE SMOOTH",
"303 615 OFFCURVE",
"308 613 OFFCURVE",
"314 613 CURVE SMOOTH",
"318 613 LINE SMOOTH"
);
},
{
closed = 1;
nodes = (
"491 3 OFFCURVE",
"499 0 OFFCURVE",
"513 0 CURVE SMOOTH",
"526 0 OFFCURVE",
"537 11 OFFCURVE",
"537 25 CURVE SMOOTH",
"537 510 LINE SMOOTH",
"537 524 OFFCURVE",
"526 535 OFFCURVE",
"512 535 CURVE SMOOTH",
"499 535 OFFCURVE",
"487 524 OFFCURVE",
"487 510 CURVE SMOOTH",
"487 91 LINE",
"377 235 OFFCURVE",
"216 436 OFFCURVE",
"149 525 CURVE SMOOTH",
"144 532 OFFCURVE",
"137 535 OFFCURVE",
"122 535 CURVE SMOOTH",
"110 535 OFFCURVE",
"98 524 OFFCURVE",
"98 510 CURVE SMOOTH",
"98 25 LINE SMOOTH",
"98 12 OFFCURVE",
"110 0 OFFCURVE",
"123 0 CURVE SMOOTH",
"137 0 OFFCURVE",
"148 11 OFFCURVE",
"148 25 CURVE SMOOTH",
"148 444 LINE",
"238 328 OFFCURVE",
"394 133 OFFCURVE",
"486 10 CURVE SMOOTH"
);
}
);
};
components = (
{
name = N;
},
{
name = caroncomb.case;
transform = "{1, 0, 0, 1, 323, -22}";
}
);
layerId = "5A9DA08A-6EB1-451A-A52A-FC81F1DBA669";
width = 635;
},
{
associatedMasterId = "5A9DA08A-6EB1-451A-A52A-FC81F1DBA669";
components = (
{
alignment = -1;
name = N;
},
{
alignment = -1;
name = caroncomb.case;
transform = "{1, 0, 0, 1, 323, 0}";
}
);
layerId = "70C558E4-4982-4C3B-A745-74C34A2B6586";
name = "Regular Apr 7 16, 13:57";
width = 635;
}
);
note = Ncaron;
unicode = 0147;
userData = {
com.typemytype.robofont.layerData = {
background = {
anchors = (
);
components = (
);
contours = (
);
lib = {
};
name = Ncaron;
unicodes = (
);
width = 635;
};
};
};
},
{
glyphname = Ncommaaccent;
lastChange = "2016-04-23 21:54:11 +0000";
layers = (
{
background = {
paths = (
{
closed = 1;
nodes = (
"334 -81 CURVE SMOOTH",
"331 -74 OFFCURVE",
"323 -70 OFFCURVE",
"315 -70 CURVE SMOOTH",
"302 -70 OFFCURVE",
"293 -79 OFFCURVE",
"293 -92 CURVE SMOOTH",
"293 -96 OFFCURVE",
"294 -99 OFFCURVE",
"296 -103 CURVE SMOOTH",
"300 -110 OFFCURVE",
"302 -120 OFFCURVE",
"302 -129 CURVE SMOOTH",
"302 -160 OFFCURVE",
"275 -186 OFFCURVE",
"238 -203 CURVE SMOOTH",
"230 -207 OFFCURVE",
"225 -215 OFFCURVE",
"225 -223 CURVE SMOOTH",
"225 -235 OFFCURVE",
"236 -245 OFFCURVE",
"247 -245 CURVE SMOOTH",
"250 -245 OFFCURVE",
"253 -244 OFFCURVE",
"256 -243 CURVE SMOOTH",
"313 -216 OFFCURVE",
"346 -174 OFFCURVE",
"346 -129 CURVE SMOOTH",
"346 -112 OFFCURVE",
"342 -96 OFFCURVE"
);
},
{
closed = 1;
nodes = (
"491 3 OFFCURVE",
"499 0 OFFCURVE",
"513 0 CURVE SMOOTH",
"526 0 OFFCURVE",
"537 11 OFFCURVE",
"537 25 CURVE SMOOTH",
"537 510 LINE SMOOTH",
"537 524 OFFCURVE",
"526 535 OFFCURVE",
"512 535 CURVE SMOOTH",
"499 535 OFFCURVE",
"487 524 OFFCURVE",
"487 510 CURVE SMOOTH",
"487 91 LINE",
"377 235 OFFCURVE",
"216 436 OFFCURVE",
"149 525 CURVE SMOOTH",
"144 532 OFFCURVE",
"137 535 OFFCURVE",
"122 535 CURVE SMOOTH",
"110 535 OFFCURVE",
"98 524 OFFCURVE",
"98 510 CURVE SMOOTH",
"98 25 LINE SMOOTH",
"98 12 OFFCURVE",
"110 0 OFFCURVE",
"123 0 CURVE SMOOTH",
"137 0 OFFCURVE",
"148 11 OFFCURVE",
"148 25 CURVE SMOOTH",
"148 444 LINE",
"238 328 OFFCURVE",
"394 133 OFFCURVE",
"486 10 CURVE SMOOTH"
);
}
);
};
components = (
{
name = N;
},
{
name = commaaccentcomb;
transform = "{1, 0, 0, 1, 313, 16}";
}
);
layerId = "5A9DA08A-6EB1-451A-A52A-FC81F1DBA669";
width = 635;
}
);
note = uni0145;
unicode = 0145;
userData = {
com.typemytype.robofont.layerData = {
background = {
anchors = (
);
components = (
);
contours = (
);
lib = {
};
name = uni0145;
unicodes = (
);
width = 635;
};
};
};
},
{
glyphname = Ntilde;
lastChange = "2016-04-08 00:06:45 +0000";
layers = (
{
background = {
paths = (
{
closed = 1;
nodes = (
"166 664 CURVE SMOOTH",
"163 660 OFFCURVE",
"161 655 OFFCURVE",
"161 650 CURVE SMOOTH",
"161 638 OFFCURVE",
"171 628 OFFCURVE",
"183 628 CURVE SMOOTH",
"190 628 OFFCURVE",
"196 631 OFFCURVE",
"200 636 CURVE SMOOTH",
"217 658 OFFCURVE",
"233 675 OFFCURVE",
"251 675 CURVE SMOOTH",
"268 675 OFFCURVE",
"281 664 OFFCURVE",
"297 652 CURVE SMOOTH",
"321 634 OFFCURVE",
"344 622 OFFCURVE",
"368 622 CURVE SMOOTH",
"402 622 OFFCURVE",
"428 641 OFFCURVE",
"460 683 CURVE SMOOTH",
"463 687 OFFCURVE",
"465 691 OFFCURVE",
"465 696 CURVE SMOOTH",
"465 707 OFFCURVE",
"456 718 OFFCURVE",
"443 718 CURVE SMOOTH",
"437 718 OFFCURVE",
"430 715 OFFCURVE",
"426 709 CURVE SMOOTH",
"406 683 OFFCURVE",
"390 666 OFFCURVE",
"368 666 CURVE SMOOTH",
"352 666 OFFCURVE",
"339 676 OFFCURVE",
"323 688 CURVE SMOOTH",
"299 706 OFFCURVE",
"276 719 OFFCURVE",
"251 719 CURVE SMOOTH",
"223 719 OFFCURVE",
"195 700 OFFCURVE"
);
},
{
closed = 1;
nodes = (
"491 3 OFFCURVE",
"499 0 OFFCURVE",
"513 0 CURVE SMOOTH",
"526 0 OFFCURVE",
"537 11 OFFCURVE",
"537 25 CURVE SMOOTH",
"537 510 LINE SMOOTH",
"537 524 OFFCURVE",
"526 535 OFFCURVE",
"512 535 CURVE SMOOTH",
"499 535 OFFCURVE",
"487 524 OFFCURVE",
"487 510 CURVE SMOOTH",
"487 91 LINE",
"377 235 OFFCURVE",
"216 436 OFFCURVE",
"149 525 CURVE SMOOTH",
"144 532 OFFCURVE",
"137 535 OFFCURVE",
"122 535 CURVE SMOOTH",
"110 535 OFFCURVE",
"98 524 OFFCURVE",
"98 510 CURVE SMOOTH",
"98 25 LINE SMOOTH",
"98 12 OFFCURVE",
"110 0 OFFCURVE",
"123 0 CURVE SMOOTH",
"137 0 OFFCURVE",
"148 11 OFFCURVE",
"148 25 CURVE SMOOTH",
"148 444 LINE",
"238 328 OFFCURVE",
"394 133 OFFCURVE",
"486 10 CURVE SMOOTH"
);
}
);
};
components = (
{
name = N;
},
{
name = tildecomb.case;
transform = "{1, 0, 0, 1, 323, -22}";
}
);
layerId = "5A9DA08A-6EB1-451A-A52A-FC81F1DBA669";
width = 635;
}
);
note = Ntilde;
unicode = 00D1;
userData = {
com.typemytype.robofont.layerData = {
background = {
anchors = (
);
components = (
);
contours = (
);
lib = {
};
name = Ntilde;
unicodes = (
);
width = 635;
};
};
};
},
{
color = 6;
glyphname = O;
lastChange = "2016-04-29 04:27:07 +0000";
layers = (
{
anchors = (
{
name = top;
position = "{322, 537}";
}
);
layerId = "5A9DA08A-6EB1-451A-A52A-FC81F1DBA669";
paths = (
{
closed = 1;
nodes = (
"322 544 CURVE SMOOTH",
"167 544 OFFCURVE",
"61 431 OFFCURVE",
"61 264 CURVE SMOOTH",
"61 111 OFFCURVE",
"169 -9 OFFCURVE",
"322 -9 CURVE SMOOTH",
"484 -9 OFFCURVE",
"579 111 OFFCURVE",
"579 267 CURVE SMOOTH",
"579 431 OFFCURVE",
"464 544 OFFCURVE"
);
},
{
closed = 1;
nodes = (
"322 494 CURVE SMOOTH",
"438 494 OFFCURVE",
"529 399 OFFCURVE",
"529 267 CURVE SMOOTH",
"529 141 OFFCURVE",
"454 41 OFFCURVE",
"322 41 CURVE SMOOTH",
"197 41 OFFCURVE",
"111 141 OFFCURVE",
"111 264 CURVE SMOOTH",
"111 399 OFFCURVE",
"195 494 OFFCURVE"
);
}
);
width = 640;
}
);
leftKerningGroup = O;
note = O;
rightKerningGroup = O;
unicode = 004F;
userData = {
com.typemytype.robofont.layerData = {
background = {
anchors = (
);
components = (
);
contours = (
);
lib = {
};
name = O;
unicodes = (
);
width = 640;
};
};
};
},
{
glyphname = Oacute;
lastChange = "2016-04-29 04:27:07 +0000";
layers = (
{
background = {
paths = (
{
closed = 1;
nodes = (
"444 708 CURVE SMOOTH",
"451 712 OFFCURVE",
"455 720 OFFCURVE",
"455 728 CURVE SMOOTH",
"455 738 OFFCURVE",
"446 749 OFFCURVE",
"432 749 CURVE SMOOTH",
"429 749 OFFCURVE",
"425 748 OFFCURVE",
"422 746 CURVE SMOOTH",
"375 719 OFFCURVE",
"327 687 OFFCURVE",
"297 666 CURVE SMOOTH",
"291 662 OFFCURVE",
"288 655 OFFCURVE",
"288 648 CURVE SMOOTH",
"288 636 OFFCURVE",
"297 626 OFFCURVE",
"310 626 CURVE SMOOTH",
"314 626 OFFCURVE",
"319 627 OFFCURVE",
"323 630 CURVE SMOOTH",
"351 651 OFFCURVE",
"399 681 OFFCURVE"
);
},
{
closed = 1;
nodes = (
"322 544 CURVE SMOOTH",
"167 544 OFFCURVE",
"61 431 OFFCURVE",
"61 264 CURVE SMOOTH",
"61 111 OFFCURVE",
"169 -9 OFFCURVE",
"322 -9 CURVE SMOOTH",
"484 -9 OFFCURVE",
"579 111 OFFCURVE",
"579 267 CURVE SMOOTH",
"579 431 OFFCURVE",
"464 544 OFFCURVE"
);
},
{
closed = 1;
nodes = (
"322 494 CURVE SMOOTH",
"438 494 OFFCURVE",
"529 399 OFFCURVE",
"529 267 CURVE SMOOTH",
"529 141 OFFCURVE",
"454 41 OFFCURVE",
"322 41 CURVE SMOOTH",
"197 41 OFFCURVE",
"111 141 OFFCURVE",
"111 264 CURVE SMOOTH",
"111 399 OFFCURVE",
"195 494 OFFCURVE"
);
}
);
};
components = (
{
name = O;
},
{
name = acutecomb.case;
transform = "{1, 0, 0, 1, 322, 2}";
}
);
layerId = "5A9DA08A-6EB1-451A-A52A-FC81F1DBA669";
width = 640;
}
);
leftKerningGroup = O;
note = Oacute;
rightKerningGroup = O;
unicode = 00D3;
userData = {
com.typemytype.robofont.layerData = {
background = {
anchors = (
);
components = (
);
contours = (
);
lib = {
};
name = Oacute;
unicodes = (
);
width = 640;
};
};
};
},
{
glyphname = Ocircumflex;
lastChange = "2016-04-29 04:27:07 +0000";
layers = (
{
background = {
paths = (
{
closed = 1;
nodes = (
"418 624 CURVE SMOOTH",
"432 624 OFFCURVE",
"441 634 OFFCURVE",
"441 645 CURVE SMOOTH",
"441 652 OFFCURVE",
"438 659 OFFCURVE",
"432 664 CURVE SMOOTH",
"404 685 OFFCURVE",
"370 709 OFFCURVE",
"336 733 CURVE SMOOTH",
"332 736 OFFCURVE",
"326 738 OFFCURVE",
"322 738 CURVE SMOOTH",
"317 738 LINE SMOOTH",
"313 738 OFFCURVE",
"307 736 OFFCURVE",
"303 733 CURVE SMOOTH",
"270 709 OFFCURVE",
"235 685 OFFCURVE",
"207 664 CURVE SMOOTH",
"201 659 OFFCURVE",
"198 652 OFFCURVE",
"198 645 CURVE SMOOTH",
"198 633 OFFCURVE",
"208 624 OFFCURVE",
"221 624 CURVE SMOOTH",
"225 624 OFFCURVE",
"229 625 OFFCURVE",
"233 628 CURVE SMOOTH",
"258 647 OFFCURVE",
"289 668 OFFCURVE",
"320 690 CURVE",
"350 668 OFFCURVE",
"381 647 OFFCURVE",
"406 628 CURVE SMOOTH",
"410 625 OFFCURVE",
"414 624 OFFCURVE"
);
},
{
closed = 1;
nodes = (
"322 544 CURVE SMOOTH",
"167 544 OFFCURVE",
"61 431 OFFCURVE",
"61 264 CURVE SMOOTH",
"61 111 OFFCURVE",
"169 -9 OFFCURVE",
"322 -9 CURVE SMOOTH",
"484 -9 OFFCURVE",
"579 111 OFFCURVE",
"579 267 CURVE SMOOTH",
"579 431 OFFCURVE",
"464 544 OFFCURVE"
);
},
{
closed = 1;
nodes = (
"322 494 CURVE SMOOTH",
"438 494 OFFCURVE",
"529 399 OFFCURVE",
"529 267 CURVE SMOOTH",
"529 141 OFFCURVE",
"454 41 OFFCURVE",
"322 41 CURVE SMOOTH",
"197 41 OFFCURVE",
"111 141 OFFCURVE",
"111 264 CURVE SMOOTH",
"111 399 OFFCURVE",
"195 494 OFFCURVE"
);
}
);
};
components = (
{
name = O;
},
{
alignment = -1;
name = circumflexcomb.case;
transform = "{1, 0, 0, 1, 322, -8}";
}
);
layerId = "5A9DA08A-6EB1-451A-A52A-FC81F1DBA669";
width = 640;
}
);
leftKerningGroup = O;
note = Ocircumflex;
rightKerningGroup = O;
unicode = 00D4;
userData = {
com.typemytype.robofont.layerData = {
background = {
anchors = (
);
components = (
);
contours = (
);
lib = {
};
name = Ocircumflex;
unicodes = (
);
width = 640;
};
};
};
},
{
glyphname = Odieresis;
lastChange = "2016-04-29 04:27:07 +0000";
layers = (
{
background = {
paths = (
{
closed = 1;
nodes = (
"415 730 CURVE SMOOTH",
"395 730 OFFCURVE",
"376 712 OFFCURVE",
"376 682 CURVE SMOOTH",
"376 650 OFFCURVE",
"395 634 OFFCURVE",
"415 634 CURVE SMOOTH",
"433 634 OFFCURVE",
"453 649 OFFCURVE",
"453 682 CURVE SMOOTH",
"453 713 OFFCURVE",
"433 730 OFFCURVE"
);
},
{
closed = 1;
nodes = (
"222 730 CURVE SMOOTH",
"202 730 OFFCURVE",
"182 711 OFFCURVE",
"182 682 CURVE SMOOTH",
"182 651 OFFCURVE",
"202 634 OFFCURVE",
"222 634 CURVE SMOOTH",
"240 634 OFFCURVE",
"260 649 OFFCURVE",
"260 682 CURVE SMOOTH",
"260 713 OFFCURVE",
"240 730 OFFCURVE"
);
},
{
closed = 1;
nodes = (
"322 544 CURVE SMOOTH",
"167 544 OFFCURVE",
"61 431 OFFCURVE",
"61 264 CURVE SMOOTH",
"61 111 OFFCURVE",
"169 -9 OFFCURVE",
"322 -9 CURVE SMOOTH",
"484 -9 OFFCURVE",
"579 111 OFFCURVE",
"579 267 CURVE SMOOTH",
"579 431 OFFCURVE",
"464 544 OFFCURVE"
);
},
{
closed = 1;
nodes = (
"322 494 CURVE SMOOTH",
"438 494 OFFCURVE",
"529 399 OFFCURVE",
"529 267 CURVE SMOOTH",
"529 141 OFFCURVE",
"454 41 OFFCURVE",
"322 41 CURVE SMOOTH",
"197 41 OFFCURVE",
"111 141 OFFCURVE",
"111 264 CURVE SMOOTH",
"111 399 OFFCURVE",
"195 494 OFFCURVE"
);
}
);
};
components = (
{
name = O;
},
{
name = dieresiscomb.case;
transform = "{1, 0, 0, 1, 322, 2}";
}
);
layerId = "5A9DA08A-6EB1-451A-A52A-FC81F1DBA669";
width = 640;
}
);
leftKerningGroup = O;
note = Odieresis;
rightKerningGroup = O;
unicode = 00D6;
userData = {
com.typemytype.robofont.layerData = {
background = {
anchors = (
);
components = (
);
contours = (
);
lib = {
};
name = Odieresis;
unicodes = (
);
width = 640;
};
};
};
},
{
glyphname = Ograve;
lastChange = "2016-04-29 04:27:07 +0000";
layers = (
{
background = {
paths = (
{
closed = 1;
nodes = (
"214 747 CURVE SMOOTH",
"210 749 OFFCURVE",
"207 750 OFFCURVE",
"203 750 CURVE SMOOTH",
"191 750 OFFCURVE",
"181 739 OFFCURVE",
"181 728 CURVE SMOOTH",
"181 720 OFFCURVE",
"185 713 OFFCURVE",
"192 709 CURVE SMOOTH",
"227 689 OFFCURVE",
"279 650 OFFCURVE",
"305 630 CURVE SMOOTH",
"309 627 OFFCURVE",
"314 625 OFFCURVE",
"319 625 CURVE SMOOTH",
"331 625 OFFCURVE",
"341 636 OFFCURVE",
"341 647 CURVE SMOOTH",
"341 654 OFFCURVE",
"338 660 OFFCURVE",
"333 664 CURVE SMOOTH",
"305 686 OFFCURVE",
"251 727 OFFCURVE"
);
},
{
closed = 1;
nodes = (
"322 544 CURVE SMOOTH",
"167 544 OFFCURVE",
"61 431 OFFCURVE",
"61 264 CURVE SMOOTH",
"61 111 OFFCURVE",
"169 -9 OFFCURVE",
"322 -9 CURVE SMOOTH",
"484 -9 OFFCURVE",
"579 111 OFFCURVE",
"579 267 CURVE SMOOTH",
"579 431 OFFCURVE",
"464 544 OFFCURVE"
);
},
{
closed = 1;
nodes = (
"322 494 CURVE SMOOTH",
"438 494 OFFCURVE",
"529 399 OFFCURVE",
"529 267 CURVE SMOOTH",
"529 141 OFFCURVE",
"454 41 OFFCURVE",
"322 41 CURVE SMOOTH",
"197 41 OFFCURVE",
"111 141 OFFCURVE",
"111 264 CURVE SMOOTH",
"111 399 OFFCURVE",
"195 494 OFFCURVE"
);
}
);
};
components = (
{
name = O;
},
{
name = gravecomb.case;
transform = "{1, 0, 0, 1, 322, 2}";
}
);
layerId = "5A9DA08A-6EB1-451A-A52A-FC81F1DBA669";
width = 640;
}
);
leftKerningGroup = O;
note = Ograve;
rightKerningGroup = O;
unicode = 00D2;
userData = {
com.typemytype.robofont.layerData = {
background = {
anchors = (
);
components = (
);
contours = (
);
lib = {
};
name = Ograve;
unicodes = (
);
width = 640;
};
};
};
},
{
glyphname = Ohungarumlaut;
lastChange = "2016-04-29 04:27:07 +0000";
layers = (
{
background = {
paths = (
{
closed = 1;
nodes = (
"322 544 CURVE SMOOTH",
"167 544 OFFCURVE",
"61 431 OFFCURVE",
"61 264 CURVE SMOOTH",
"61 111 OFFCURVE",
"169 -9 OFFCURVE",
"322 -9 CURVE SMOOTH",
"484 -9 OFFCURVE",
"579 111 OFFCURVE",
"579 267 CURVE SMOOTH",
"579 431 OFFCURVE",
"464 544 OFFCURVE"
);
},
{
closed = 1;
nodes = (
"322 494 CURVE SMOOTH",
"438 494 OFFCURVE",
"529 399 OFFCURVE",
"529 267 CURVE SMOOTH",
"529 141 OFFCURVE",
"454 41 OFFCURVE",
"322 41 CURVE SMOOTH",
"197 41 OFFCURVE",
"111 141 OFFCURVE",
"111 264 CURVE SMOOTH",
"111 399 OFFCURVE",
"195 494 OFFCURVE"
);
},
{
closed = 1;
nodes = (
"484 729 CURVE SMOOTH",
"486 732 OFFCURVE",
"487 736 OFFCURVE",
"487 740 CURVE SMOOTH",
"487 752 OFFCURVE",
"479 763 OFFCURVE",
"466 763 CURVE SMOOTH",
"458 763 OFFCURVE",
"450 760 OFFCURVE",
"446 753 CURVE SMOOTH",
"423 716 OFFCURVE",
"410 687 OFFCURVE",
"401 667 CURVE SMOOTH",
"396 656 OFFCURVE",
"394 649 OFFCURVE",
"394 645 CURVE SMOOTH",
"394 633 OFFCURVE",
"404 624 OFFCURVE",
"416 624 CURVE SMOOTH",
"425 624 OFFCURVE",
"433 630 OFFCURVE",
"436 638 CURVE SMOOTH",
"448 667 OFFCURVE",
"462 696 OFFCURVE"
);
},
{
closed = 1;
nodes = (
"279 729 CURVE SMOOTH",
"281 732 OFFCURVE",
"282 736 OFFCURVE",
"282 740 CURVE SMOOTH",
"282 753 OFFCURVE",
"274 763 OFFCURVE",
"261 763 CURVE SMOOTH",
"253 763 OFFCURVE",
"245 760 OFFCURVE",
"241 753 CURVE SMOOTH",
"218 716 OFFCURVE",
"203 687 OFFCURVE",
"195 668 CURVE SMOOTH",
"189 655 OFFCURVE",
"189 648 OFFCURVE",
"189 645 CURVE SMOOTH",
"189 635 OFFCURVE",
"198 624 OFFCURVE",
"211 624 CURVE SMOOTH",
"220 624 OFFCURVE",
"228 630 OFFCURVE",
"231 638 CURVE SMOOTH",
"243 667 OFFCURVE",
"257 696 OFFCURVE"
);
}
);
};
components = (
{
name = O;
},
{
name = hungarumlautcomb.case;
transform = "{1, 0, 0, 1, 322, 2}";
}
);
layerId = "5A9DA08A-6EB1-451A-A52A-FC81F1DBA669";
width = 640;
}
);
leftKerningGroup = O;
note = Ohungarumlaut;
rightKerningGroup = O;
unicode = 0150;
userData = {
com.typemytype.robofont.layerData = {
background = {
anchors = (
);
components = (
);
contours = (
);
lib = {
};
name = Ohungarumlaut;
unicodes = (
);
width = 640;
};
};
};
},
{
glyphname = Omacron;
lastChange = "2016-04-29 04:27:07 +0000";
layers = (
{
background = {
paths = (
{
closed = 1;
nodes = (
"450 664 LINE SMOOTH",
"464 664 OFFCURVE",
"476 674 OFFCURVE",
"476 686 CURVE SMOOTH",
"476 698 OFFCURVE",
"464 708 OFFCURVE",
"450 708 CURVE SMOOTH",
"171 708 LINE SMOOTH",
"157 708 OFFCURVE",
"145 698 OFFCURVE",
"145 686 CURVE SMOOTH",
"145 674 OFFCURVE",
"157 664 OFFCURVE",
"171 664 CURVE SMOOTH"
);
},
{
closed = 1;
nodes = (
"322 544 CURVE SMOOTH",
"167 544 OFFCURVE",
"61 431 OFFCURVE",
"61 264 CURVE SMOOTH",
"61 111 OFFCURVE",
"169 -9 OFFCURVE",
"322 -9 CURVE SMOOTH",
"484 -9 OFFCURVE",
"579 111 OFFCURVE",
"579 267 CURVE SMOOTH",
"579 431 OFFCURVE",
"464 544 OFFCURVE"
);
},
{
closed = 1;
nodes = (
"322 494 CURVE SMOOTH",
"438 494 OFFCURVE",
"529 399 OFFCURVE",
"529 267 CURVE SMOOTH",
"529 141 OFFCURVE",
"454 41 OFFCURVE",
"322 41 CURVE SMOOTH",
"197 41 OFFCURVE",
"111 141 OFFCURVE",
"111 264 CURVE SMOOTH",
"111 399 OFFCURVE",
"195 494 OFFCURVE"
);
}
);
};
components = (
{
name = O;
}
);
layerId = "5A9DA08A-6EB1-451A-A52A-FC81F1DBA669";
paths = (
{
closed = 1;
nodes = (
"450 664 LINE SMOOTH",
"464 664 OFFCURVE",
"476 674 OFFCURVE",
"476 686 CURVE SMOOTH",
"476 698 OFFCURVE",
"464 708 OFFCURVE",
"450 708 CURVE SMOOTH",
"171 708 LINE SMOOTH",
"157 708 OFFCURVE",
"145 698 OFFCURVE",
"145 686 CURVE SMOOTH",
"145 674 OFFCURVE",
"157 664 OFFCURVE",
"171 664 CURVE SMOOTH"
);
}
);
width = 640;
}
);
leftKerningGroup = O;
note = Omacron;
rightKerningGroup = O;
unicode = 014C;
userData = {
com.typemytype.robofont.layerData = {
background = {
anchors = (
);
components = (
);
contours = (
);
lib = {
};
name = Omacron;
unicodes = (
);
width = 640;
};
};
};
},
{
glyphname = Oslash;
lastChange = "2016-04-29 04:27:07 +0000";
layers = (
{
layerId = "5A9DA08A-6EB1-451A-A52A-FC81F1DBA669";
paths = (
{
closed = 1;
nodes = (
"111 264 CURVE SMOOTH",
"111 399 OFFCURVE",
"195 494 OFFCURVE",
"322 494 CURVE SMOOTH",
"369 494 OFFCURVE",
"411 479 OFFCURVE",
"446 452 CURVE",
"167 109 LINE",
"131 149 OFFCURVE",
"111 204 OFFCURVE"
);
},
{
closed = 1;
nodes = (
"322 41 CURVE SMOOTH",
"277 41 OFFCURVE",
"237 54 OFFCURVE",
"204 76 CURVE",
"481 416 LINE",
"511 377 OFFCURVE",
"529 326 OFFCURVE",
"529 267 CURVE SMOOTH",
"529 141 OFFCURVE",
"454 41 OFFCURVE"
);
},
{
closed = 1;
nodes = (
"134 -10 CURVE SMOOTH",
"172 37 LINE",
"214 8 OFFCURVE",
"265 -9 OFFCURVE",
"322 -9 CURVE SMOOTH",
"484 -9 OFFCURVE",
"579 111 OFFCURVE",
"579 267 CURVE SMOOTH",
"579 343 OFFCURVE",
"554 408 OFFCURVE",
"513 456 CURVE",
"544 494 LINE SMOOTH",
"548 499 OFFCURVE",
"550 505 OFFCURVE",
"550 510 CURVE SMOOTH",
"550 523 OFFCURVE",
"538 535 OFFCURVE",
"525 535 CURVE SMOOTH",
"518 535 OFFCURVE",
"511 532 OFFCURVE",
"506 526 CURVE SMOOTH",
"477 491 LINE",
"434 525 OFFCURVE",
"380 544 OFFCURVE",
"322 544 CURVE SMOOTH",
"167 544 OFFCURVE",
"61 431 OFFCURVE",
"61 264 CURVE SMOOTH",
"61 187 OFFCURVE",
"88 119 OFFCURVE",
"135 70 CURVE",
"96 22 LINE SMOOTH",
"92 17 OFFCURVE",
"90 11 OFFCURVE",
"90 6 CURVE SMOOTH",
"90 -7 OFFCURVE",
"103 -19 OFFCURVE",
"115 -19 CURVE SMOOTH",
"122 -19 OFFCURVE",
"129 -16 OFFCURVE"
);
}
);
width = 640;
}
);
leftKerningGroup = O;
note = Oslash;
rightKerningGroup = O;
unicode = 00D8;
userData = {
com.typemytype.robofont.layerData = {
background = {
anchors = (
);
components = (
);
contours = (
);
lib = {
};
name = Oslash;
unicodes = (
);
width = 640;
};
};
};
},
{
glyphname = Otilde;
lastChange = "2016-04-29 04:27:07 +0000";
layers = (
{
background = {
paths = (
{
closed = 1;
nodes = (
"179 674 CURVE SMOOTH",
"176 670 OFFCURVE",
"174 665 OFFCURVE",
"174 660 CURVE SMOOTH",
"174 648 OFFCURVE",
"184 638 OFFCURVE",
"196 638 CURVE SMOOTH",
"203 638 OFFCURVE",
"209 641 OFFCURVE",
"213 646 CURVE SMOOTH",
"230 668 OFFCURVE",
"246 685 OFFCURVE",
"264 685 CURVE SMOOTH",
"281 685 OFFCURVE",
"294 674 OFFCURVE",
"310 662 CURVE SMOOTH",
"334 644 OFFCURVE",
"357 632 OFFCURVE",
"381 632 CURVE SMOOTH",
"415 632 OFFCURVE",
"441 651 OFFCURVE",
"473 693 CURVE SMOOTH",
"476 697 OFFCURVE",
"478 701 OFFCURVE",
"478 706 CURVE SMOOTH",
"478 717 OFFCURVE",
"469 728 OFFCURVE",
"456 728 CURVE SMOOTH",
"450 728 OFFCURVE",
"443 725 OFFCURVE",
"439 719 CURVE SMOOTH",
"419 693 OFFCURVE",
"403 676 OFFCURVE",
"381 676 CURVE SMOOTH",
"365 676 OFFCURVE",
"352 686 OFFCURVE",
"336 698 CURVE SMOOTH",
"312 716 OFFCURVE",
"289 729 OFFCURVE",
"264 729 CURVE SMOOTH",
"236 729 OFFCURVE",
"208 710 OFFCURVE"
);
},
{
closed = 1;
nodes = (
"322 544 CURVE SMOOTH",
"167 544 OFFCURVE",
"61 431 OFFCURVE",
"61 264 CURVE SMOOTH",
"61 111 OFFCURVE",
"169 -9 OFFCURVE",
"322 -9 CURVE SMOOTH",
"484 -9 OFFCURVE",
"579 111 OFFCURVE",
"579 267 CURVE SMOOTH",
"579 431 OFFCURVE",
"464 544 OFFCURVE"
);
},
{
closed = 1;
nodes = (
"322 494 CURVE SMOOTH",
"438 494 OFFCURVE",
"529 399 OFFCURVE",
"529 267 CURVE SMOOTH",
"529 141 OFFCURVE",
"454 41 OFFCURVE",
"322 41 CURVE SMOOTH",
"197 41 OFFCURVE",
"111 141 OFFCURVE",
"111 264 CURVE SMOOTH",
"111 399 OFFCURVE",
"195 494 OFFCURVE"
);
}
);
};
components = (
{
name = O;
},
{
alignment = -1;
name = tildecomb.case;
transform = "{1, 0, 0, 1, 322, -8}";
}
);
layerId = "5A9DA08A-6EB1-451A-A52A-FC81F1DBA669";
width = 640;
}
);
leftKerningGroup = O;
note = Otilde;
rightKerningGroup = O;
unicode = 00D5;
userData = {
com.typemytype.robofont.layerData = {
background = {
anchors = (
);
components = (
);
contours = (
);
lib = {
};
name = Otilde;
unicodes = (
);
width = 640;
};
};
};
},
{
glyphname = OE;
lastChange = "2016-04-29 04:27:07 +0000";
layers = (
{
layerId = "5A9DA08A-6EB1-451A-A52A-FC81F1DBA669";
paths = (
{
closed = 1;
nodes = (
"322 0 CURVE SMOOTH",
"726 0 LINE SMOOTH",
"740 0 OFFCURVE",
"751 12 OFFCURVE",
"751 25 CURVE SMOOTH",
"751 39 OFFCURVE",
"740 50 OFFCURVE",
"726 50 CURVE SMOOTH",
"472 50 LINE",
"472 261 LINE",
"681 261 LINE SMOOTH",
"695 261 OFFCURVE",
"706 273 OFFCURVE",
"706 286 CURVE SMOOTH",
"706 300 OFFCURVE",
"695 311 OFFCURVE",
"681 311 CURVE SMOOTH",
"472 311 LINE",
"472 485 LINE",
"724 485 LINE SMOOTH",
"738 485 OFFCURVE",
"749 497 OFFCURVE",
"749 510 CURVE SMOOTH",
"749 524 OFFCURVE",
"738 535 OFFCURVE",
"724 535 CURVE SMOOTH",
"322 535 LINE SMOOTH",
"167 535 OFFCURVE",
"61 425 OFFCURVE",
"61 265 CURVE SMOOTH",
"61 117 OFFCURVE",
"169 0 OFFCURVE"
);
},
{
closed = 1;
nodes = (
"322 50 LINE SMOOTH",
"197 50 OFFCURVE",
"111 145 OFFCURVE",
"111 265 CURVE SMOOTH",
"111 395 OFFCURVE",
"195 485 OFFCURVE",
"322 485 CURVE SMOOTH",
"422 485 LINE",
"422 50 LINE"
);
}
);
width = 811;
}
);
leftKerningGroup = O;
note = OE;
rightKerningGroup = E;
unicode = 0152;
userData = {
com.typemytype.robofont.layerData = {
background = {
anchors = (
);
components = (
);
contours = (
);
lib = {
};
name = OE;
unicodes = (
);
width = 811;
};
};
};
},
{
glyphname = P;
lastChange = "2016-04-29 04:27:07 +0000";
layers = (
{
layerId = "5A9DA08A-6EB1-451A-A52A-FC81F1DBA669";
paths = (
{
closed = 1;
nodes = (
"123 0 CURVE SMOOTH",
"137 0 OFFCURVE",
"148 11 OFFCURVE",
"148 25 CURVE SMOOTH",
"148 176 LINE",
"266 176 LINE SMOOTH",
"397 176 OFFCURVE",
"462 259 OFFCURVE",
"462 356 CURVE SMOOTH",
"462 459 OFFCURVE",
"383 535 OFFCURVE",
"266 535 CURVE SMOOTH",
"123 535 LINE SMOOTH",
"109 535 OFFCURVE",
"98 524 OFFCURVE",
"98 510 CURVE SMOOTH",
"98 25 LINE SMOOTH",
"98 12 OFFCURVE",
"110 0 OFFCURVE"
);
},
{
closed = 1;
nodes = (
"266 485 LINE SMOOTH",
"351 485 OFFCURVE",
"412 433 OFFCURVE",
"412 356 CURVE SMOOTH",
"412 283 OFFCURVE",
"361 226 OFFCURVE",
"266 226 CURVE SMOOTH",
"148 226 LINE",
"148 485 LINE"
);
}
);
width = 510;
}
);
note = P;
rightKerningGroup = P;
unicode = 0050;
userData = {
com.typemytype.robofont.layerData = {
background = {
anchors = (
);
components = (
);
contours = (
);
lib = {
};
name = P;
unicodes = (
);
width = 510;
};
};
};
},
{
glyphname = Thorn;
lastChange = "2016-04-29 04:27:07 +0000";
layers = (
{
layerId = "5A9DA08A-6EB1-451A-A52A-FC81F1DBA669";
paths = (
{
closed = 1;
nodes = (
"123 0 CURVE SMOOTH",
"137 0 OFFCURVE",
"148 11 OFFCURVE",
"148 25 CURVE SMOOTH",
"148 101 LINE",
"260 101 LINE SMOOTH",
"393 101 OFFCURVE",
"453 179 OFFCURVE",
"453 269 CURVE SMOOTH",
"453 368 OFFCURVE",
"378 441 OFFCURVE",
"260 441 CURVE SMOOTH",
"148 441 LINE",
"148 510 LINE SMOOTH",
"148 524 OFFCURVE",
"137 535 OFFCURVE",
"123 535 CURVE SMOOTH",
"110 535 OFFCURVE",
"98 524 OFFCURVE",
"98 510 CURVE SMOOTH",
"98 25 LINE SMOOTH",
"98 12 OFFCURVE",
"110 0 OFFCURVE"
);
},
{
closed = 1;
nodes = (
"260 391 LINE SMOOTH",
"344 391 OFFCURVE",
"403 342 OFFCURVE",
"403 269 CURVE SMOOTH",
"403 203 OFFCURVE",
"353 151 OFFCURVE",
"260 151 CURVE SMOOTH",
"148 151 LINE",
"148 391 LINE"
);
}
);
width = 505;
}
);
note = Thorn;
rightKerningGroup = P;
unicode = 00DE;
userData = {
com.typemytype.robofont.layerData = {
background = {
anchors = (
);
components = (
);
contours = (
);
lib = {
};
name = Thorn;
unicodes = (
);
width = 505;
};
};
};
},
{
glyphname = Q;
lastChange = "2016-04-29 04:27:07 +0000";
layers = (
{
layerId = "5A9DA08A-6EB1-451A-A52A-FC81F1DBA669";
paths = (
{
closed = 1;
nodes = (
"512 -143 CURVE SMOOTH",
"526 -143 OFFCURVE",
"537 -132 OFFCURVE",
"537 -118 CURVE SMOOTH",
"537 -105 OFFCURVE",
"526 -93 OFFCURVE",
"512 -93 CURVE SMOOTH",
"434 -93 OFFCURVE",
"377 -58 OFFCURVE",
"352 -8 CURVE",
"496 6 OFFCURVE",
"579 121 OFFCURVE",
"579 267 CURVE SMOOTH",
"579 431 OFFCURVE",
"464 544 OFFCURVE",
"322 544 CURVE SMOOTH",
"167 544 OFFCURVE",
"61 431 OFFCURVE",
"61 264 CURVE SMOOTH",
"61 119 OFFCURVE",
"158 4 OFFCURVE",
"299 -8 CURVE",
"325 -83 OFFCURVE",
"399 -143 OFFCURVE"
);
},
{
closed = 1;
nodes = (
"322 494 CURVE SMOOTH",
"438 494 OFFCURVE",
"529 399 OFFCURVE",
"529 267 CURVE SMOOTH",
"529 141 OFFCURVE",
"454 41 OFFCURVE",
"322 41 CURVE SMOOTH",
"197 41 OFFCURVE",
"111 141 OFFCURVE",
"111 264 CURVE SMOOTH",
"111 399 OFFCURVE",
"195 494 OFFCURVE"
);
}
);
width = 640;
}
);
leftKerningGroup = O;
note = Q;
rightKerningGroup = O;
unicode = 0051;
userData = {
com.typemytype.robofont.layerData = {
background = {
anchors = (
);
components = (
);
contours = (
);
lib = {
};
name = Q;
unicodes = (
);
width = 640;
};
};
};
},
{
color = 6;
glyphname = R;
lastChange = "2016-04-29 04:27:07 +0000";
layers = (
{
anchors = (
{
name = bottom;
position = "{269, 3}";
},
{
name = top;
position = "{252, 535}";
}
);
layerId = "5A9DA08A-6EB1-451A-A52A-FC81F1DBA669";
paths = (
{
closed = 1;
nodes = (
"464 0 CURVE SMOOTH",
"478 0 OFFCURVE",
"489 13 OFFCURVE",
"489 25 CURVE SMOOTH",
"489 31 OFFCURVE",
"487 37 OFFCURVE",
"483 41 CURVE SMOOTH",
"340 208 LINE",
"422 231 OFFCURVE",
"461 295 OFFCURVE",
"461 367 CURVE SMOOTH",
"461 464 OFFCURVE",
"387 535 OFFCURVE",
"270 535 CURVE SMOOTH",
"123 535 LINE SMOOTH",
"109 535 OFFCURVE",
"98 524 OFFCURVE",
"98 510 CURVE SMOOTH",
"98 25 LINE SMOOTH",
"98 12 OFFCURVE",
"110 0 OFFCURVE",
"123 0 CURVE SMOOTH",
"137 0 OFFCURVE",
"148 11 OFFCURVE",
"148 25 CURVE",
"148 199 LINE",
"282 199 LINE",
"445 9 LINE SMOOTH",
"450 3 OFFCURVE",
"457 0 OFFCURVE"
);
},
{
closed = 1;
nodes = (
"270 485 LINE SMOOTH",
"353 485 OFFCURVE",
"411 438 OFFCURVE",
"411 367 CURVE SMOOTH",
"411 301 OFFCURVE",
"362 249 OFFCURVE",
"270 249 CURVE SMOOTH",
"148 249 LINE",
"148 485 LINE"
);
}
);
width = 541;
}
);
note = R;
rightKerningGroup = R;
unicode = 0052;
userData = {
com.typemytype.robofont.layerData = {
background = {
anchors = (
);
components = (
);
contours = (
);
lib = {
};
name = R;
unicodes = (
);
width = 541;
};
};
};
},
{
glyphname = Racute;
lastChange = "2016-04-29 04:27:07 +0000";
layers = (
{
background = {
paths = (
{
closed = 1;
nodes = (
"378 708 CURVE SMOOTH",
"385 712 OFFCURVE",
"389 720 OFFCURVE",
"389 728 CURVE SMOOTH",
"389 738 OFFCURVE",
"380 749 OFFCURVE",
"366 749 CURVE SMOOTH",
"363 749 OFFCURVE",
"359 748 OFFCURVE",
"356 746 CURVE SMOOTH",
"309 719 OFFCURVE",
"261 687 OFFCURVE",
"231 666 CURVE SMOOTH",
"225 662 OFFCURVE",
"222 655 OFFCURVE",
"222 648 CURVE SMOOTH",
"222 636 OFFCURVE",
"231 626 OFFCURVE",
"244 626 CURVE SMOOTH",
"248 626 OFFCURVE",
"253 627 OFFCURVE",
"257 630 CURVE SMOOTH",
"285 651 OFFCURVE",
"333 681 OFFCURVE"
);
},
{
closed = 1;
nodes = (
"464 0 CURVE SMOOTH",
"478 0 OFFCURVE",
"489 13 OFFCURVE",
"489 25 CURVE SMOOTH",
"489 31 OFFCURVE",
"487 37 OFFCURVE",
"483 41 CURVE SMOOTH",
"340 208 LINE",
"422 231 OFFCURVE",
"461 295 OFFCURVE",
"461 367 CURVE SMOOTH",
"461 464 OFFCURVE",
"387 535 OFFCURVE",
"270 535 CURVE SMOOTH",
"123 535 LINE SMOOTH",
"109 535 OFFCURVE",
"98 524 OFFCURVE",
"98 510 CURVE SMOOTH",
"98 25 LINE SMOOTH",
"98 12 OFFCURVE",
"110 0 OFFCURVE",
"123 0 CURVE SMOOTH",
"137 0 OFFCURVE",
"148 11 OFFCURVE",
"148 25 CURVE",
"148 199 LINE",
"282 199 LINE",
"445 9 LINE SMOOTH",
"450 3 OFFCURVE",
"457 0 OFFCURVE"
);
},
{
closed = 1;
nodes = (
"270 485 LINE SMOOTH",
"353 485 OFFCURVE",
"411 438 OFFCURVE",
"411 367 CURVE SMOOTH",
"411 301 OFFCURVE",
"362 249 OFFCURVE",
"270 249 CURVE SMOOTH",
"148 249 LINE",
"148 485 LINE"
);
}
);
};
components = (
{
name = R;
},
{
name = acutecomb.case;
transform = "{1, 0, 0, 1, 252, 0}";
}
);
layerId = "5A9DA08A-6EB1-451A-A52A-FC81F1DBA669";
width = 541;
}
);
note = Racute;
rightKerningGroup = R;
unicode = 0154;
userData = {
com.typemytype.robofont.layerData = {
background = {
anchors = (
);
components = (
);
contours = (
);
lib = {
};
name = Racute;
unicodes = (
);
width = 541;
};
};
};
},
{
glyphname = Rcaron;
lastChange = "2016-04-29 04:27:07 +0000";
layers = (
{
background = {
paths = (
{
closed = 1;
nodes = (
"260 633 OFFCURVE",
"265 635 OFFCURVE",
"269 638 CURVE SMOOTH",
"302 662 OFFCURVE",
"337 686 OFFCURVE",
"365 707 CURVE SMOOTH",
"371 712 OFFCURVE",
"374 719 OFFCURVE",
"374 726 CURVE SMOOTH",
"374 737 OFFCURVE",
"364 747 OFFCURVE",
"351 747 CURVE SMOOTH",
"347 747 OFFCURVE",
"343 746 OFFCURVE",
"339 743 CURVE SMOOTH",
"314 724 OFFCURVE",
"283 703 OFFCURVE",
"252 681 CURVE",
"222 703 OFFCURVE",
"191 724 OFFCURVE",
"166 743 CURVE SMOOTH",
"162 746 OFFCURVE",
"158 747 OFFCURVE",
"154 747 CURVE SMOOTH",
"140 747 OFFCURVE",
"131 737 OFFCURVE",
"131 726 CURVE SMOOTH",
"131 719 OFFCURVE",
"134 712 OFFCURVE",
"140 707 CURVE SMOOTH",
"168 686 OFFCURVE",
"202 662 OFFCURVE",
"236 638 CURVE SMOOTH",
"240 635 OFFCURVE",
"245 633 OFFCURVE",
"251 633 CURVE SMOOTH",
"255 633 LINE SMOOTH"
);
},
{
closed = 1;
nodes = (
"464 0 CURVE SMOOTH",
"478 0 OFFCURVE",
"489 13 OFFCURVE",
"489 25 CURVE SMOOTH",
"489 31 OFFCURVE",
"487 37 OFFCURVE",
"483 41 CURVE SMOOTH",
"340 208 LINE",
"422 231 OFFCURVE",
"461 295 OFFCURVE",
"461 367 CURVE SMOOTH",
"461 464 OFFCURVE",
"387 535 OFFCURVE",
"270 535 CURVE SMOOTH",
"123 535 LINE SMOOTH",
"109 535 OFFCURVE",
"98 524 OFFCURVE",
"98 510 CURVE SMOOTH",
"98 25 LINE SMOOTH",
"98 12 OFFCURVE",
"110 0 OFFCURVE",
"123 0 CURVE SMOOTH",
"137 0 OFFCURVE",
"148 11 OFFCURVE",
"148 25 CURVE",
"148 199 LINE",
"282 199 LINE",
"445 9 LINE SMOOTH",
"450 3 OFFCURVE",
"457 0 OFFCURVE"
);
},
{
closed = 1;
nodes = (
"270 485 LINE SMOOTH",
"353 485 OFFCURVE",
"411 438 OFFCURVE",
"411 367 CURVE SMOOTH",
"411 301 OFFCURVE",
"362 249 OFFCURVE",
"270 249 CURVE SMOOTH",
"148 249 LINE",
"148 485 LINE"
);
}
);
};
components = (
{
name = R;
},
{
name = caroncomb.case;
transform = "{1, 0, 0, 1, 252, 0}";
}
);
layerId = "5A9DA08A-6EB1-451A-A52A-FC81F1DBA669";
width = 541;
}
);
note = Rcaron;
rightKerningGroup = R;
unicode = 0158;
userData = {
com.typemytype.robofont.layerData = {
background = {
anchors = (
);
components = (
);
contours = (
);
lib = {
};
name = Rcaron;
unicodes = (
);
width = 541;
};
};
};
},
{
glyphname = Rcommaaccent;
lastChange = "2016-04-29 04:27:07 +0000";
layers = (
{
background = {
paths = (
{
closed = 1;
nodes = (
"289 -91 CURVE SMOOTH",
"286 -84 OFFCURVE",
"278 -80 OFFCURVE",
"270 -80 CURVE SMOOTH",
"257 -80 OFFCURVE",
"248 -89 OFFCURVE",
"248 -102 CURVE SMOOTH",
"248 -106 OFFCURVE",
"249 -109 OFFCURVE",
"251 -113 CURVE SMOOTH",
"255 -120 OFFCURVE",
"257 -130 OFFCURVE",
"257 -139 CURVE SMOOTH",
"257 -170 OFFCURVE",
"230 -196 OFFCURVE",
"193 -213 CURVE SMOOTH",
"185 -217 OFFCURVE",
"180 -225 OFFCURVE",
"180 -233 CURVE SMOOTH",
"180 -245 OFFCURVE",
"191 -255 OFFCURVE",
"202 -255 CURVE SMOOTH",
"205 -255 OFFCURVE",
"208 -254 OFFCURVE",
"211 -253 CURVE SMOOTH",
"268 -226 OFFCURVE",
"301 -184 OFFCURVE",
"301 -139 CURVE SMOOTH",
"301 -122 OFFCURVE",
"297 -106 OFFCURVE"
);
},
{
closed = 1;
nodes = (
"464 0 CURVE SMOOTH",
"478 0 OFFCURVE",
"489 13 OFFCURVE",
"489 25 CURVE SMOOTH",
"489 31 OFFCURVE",
"487 37 OFFCURVE",
"483 41 CURVE SMOOTH",
"340 208 LINE",
"422 231 OFFCURVE",
"461 295 OFFCURVE",
"461 367 CURVE SMOOTH",
"461 464 OFFCURVE",
"387 535 OFFCURVE",
"270 535 CURVE SMOOTH",
"123 535 LINE SMOOTH",
"109 535 OFFCURVE",
"98 524 OFFCURVE",
"98 510 CURVE SMOOTH",
"98 25 LINE SMOOTH",
"98 12 OFFCURVE",
"110 0 OFFCURVE",
"123 0 CURVE SMOOTH",
"137 0 OFFCURVE",
"148 11 OFFCURVE",
"148 25 CURVE",
"148 199 LINE",
"282 199 LINE",
"445 9 LINE SMOOTH",
"450 3 OFFCURVE",
"457 0 OFFCURVE"
);
},
{
closed = 1;
nodes = (
"270 485 LINE SMOOTH",
"353 485 OFFCURVE",
"411 438 OFFCURVE",
"411 367 CURVE SMOOTH",
"411 301 OFFCURVE",
"362 249 OFFCURVE",
"270 249 CURVE SMOOTH",
"148 249 LINE",
"148 485 LINE"
);
}
);
};
components = (
{
name = R;
},
{
name = commaaccentcomb;
transform = "{1, 0, 0, 1, 269, 3}";
}
);
layerId = "5A9DA08A-6EB1-451A-A52A-FC81F1DBA669";
width = 541;
}
);
note = uni0156;
rightKerningGroup = R;
unicode = 0156;
userData = {
com.typemytype.robofont.layerData = {
background = {
anchors = (
);
components = (
);
contours = (
);
lib = {
};
name = uni0156;
unicodes = (
);
width = 541;
};
};
};
},
{
color = 6;
glyphname = S;
lastChange = "2016-04-29 04:27:07 +0000";
layers = (
{
anchors = (
{
name = bottom;
position = "{263, -9}";
},
{
name = top;
position = "{259, 536}";
}
);
layerId = "5A9DA08A-6EB1-451A-A52A-FC81F1DBA669";
paths = (
{
closed = 1;
nodes = (
"370 469 CURVE SMOOTH",
"387 462 OFFCURVE",
"390 461 OFFCURVE",
"393 461 CURVE SMOOTH",
"406 461 OFFCURVE",
"418 473 OFFCURVE",
"418 486 CURVE SMOOTH",
"418 496 OFFCURVE",
"412 505 OFFCURVE",
"402 509 CURVE SMOOTH",
"352 529 OFFCURVE",
"316 541 OFFCURVE",
"243 541 CURVE SMOOTH",
"138 541 OFFCURVE",
"82 475 OFFCURVE",
"82 412 CURVE SMOOTH",
"82 342 OFFCURVE",
"117 290 OFFCURVE",
"259 255 CURVE SMOOTH",
"360 230 OFFCURVE",
"402 194 OFFCURVE",
"402 138 CURVE SMOOTH",
"402 84 OFFCURVE",
"354 41 OFFCURVE",
"263 41 CURVE SMOOTH",
"207 41 OFFCURVE",
"154 54 OFFCURVE",
"106 81 CURVE SMOOTH",
"102 83 OFFCURVE",
"98 84 OFFCURVE",
"94 84 CURVE SMOOTH",
"79 84 OFFCURVE",
"69 71 OFFCURVE",
"69 59 CURVE SMOOTH",
"69 50 OFFCURVE",
"74 42 OFFCURVE",
"82 37 CURVE SMOOTH",
"138 6 OFFCURVE",
"199 -9 OFFCURVE",
"263 -9 CURVE SMOOTH",
"400 -9 OFFCURVE",
"452 64 OFFCURVE",
"452 138 CURVE SMOOTH",
"452 213 OFFCURVE",
"412 272 OFFCURVE",
"269 305 CURVE SMOOTH",
"161 330 OFFCURVE",
"132 365 OFFCURVE",
"132 408 CURVE SMOOTH",
"132 451 OFFCURVE",
"175 491 OFFCURVE",
"243 491 CURVE SMOOTH",
"304 491 OFFCURVE",
"338 482 OFFCURVE"
);
}
);
width = 525;
}
);
leftKerningGroup = S;
note = S;
rightKerningGroup = S;
unicode = 0053;
userData = {
com.typemytype.robofont.layerData = {
background = {
anchors = (
);
components = (
);
contours = (
);
lib = {
};
name = S;
unicodes = (
);
width = 525;
};
};
};
},
{
glyphname = Sacute;
lastChange = "2016-04-29 04:27:07 +0000";
layers = (
{
background = {
paths = (
{
closed = 1;
nodes = (
"389 708 CURVE SMOOTH",
"396 712 OFFCURVE",
"400 720 OFFCURVE",
"400 728 CURVE SMOOTH",
"400 738 OFFCURVE",
"391 749 OFFCURVE",
"377 749 CURVE SMOOTH",
"374 749 OFFCURVE",
"370 748 OFFCURVE",
"367 746 CURVE SMOOTH",
"320 719 OFFCURVE",
"272 687 OFFCURVE",
"242 666 CURVE SMOOTH",
"236 662 OFFCURVE",
"233 655 OFFCURVE",
"233 648 CURVE SMOOTH",
"233 636 OFFCURVE",
"242 626 OFFCURVE",
"255 626 CURVE SMOOTH",
"259 626 OFFCURVE",
"264 627 OFFCURVE",
"268 630 CURVE SMOOTH",
"296 651 OFFCURVE",
"344 681 OFFCURVE"
);
},
{
closed = 1;
nodes = (
"370 469 CURVE SMOOTH",
"387 462 OFFCURVE",
"390 461 OFFCURVE",
"393 461 CURVE SMOOTH",
"406 461 OFFCURVE",
"418 473 OFFCURVE",
"418 486 CURVE SMOOTH",
"418 496 OFFCURVE",
"412 505 OFFCURVE",
"402 509 CURVE SMOOTH",
"352 529 OFFCURVE",
"316 541 OFFCURVE",
"243 541 CURVE SMOOTH",
"138 541 OFFCURVE",
"82 475 OFFCURVE",
"82 412 CURVE SMOOTH",
"82 355 OFFCURVE",
"100 286 OFFCURVE",
"259 255 CURVE SMOOTH",
"360 233 OFFCURVE",
"402 194 OFFCURVE",
"402 138 CURVE SMOOTH",
"402 84 OFFCURVE",
"354 41 OFFCURVE",
"263 41 CURVE SMOOTH",
"207 41 OFFCURVE",
"154 54 OFFCURVE",
"106 81 CURVE SMOOTH",
"102 83 OFFCURVE",
"98 84 OFFCURVE",
"94 84 CURVE SMOOTH",
"79 84 OFFCURVE",
"69 71 OFFCURVE",
"69 59 CURVE SMOOTH",
"69 50 OFFCURVE",
"74 42 OFFCURVE",
"82 37 CURVE SMOOTH",
"138 6 OFFCURVE",
"199 -9 OFFCURVE",
"263 -9 CURVE SMOOTH",
"400 -9 OFFCURVE",
"452 64 OFFCURVE",
"452 138 CURVE SMOOTH",
"452 210 OFFCURVE",
"412 273 OFFCURVE",
"269 305 CURVE SMOOTH",
"160 326 OFFCURVE",
"132 369 OFFCURVE",
"132 412 CURVE SMOOTH",
"132 455 OFFCURVE",
"178 491 OFFCURVE",
"243 491 CURVE SMOOTH",
"304 491 OFFCURVE",
"338 482 OFFCURVE"
);
}
);
};
components = (
{
name = S;
},
{
name = acutecomb.case;
transform = "{1, 0, 0, 1, 259, 1}";
}
);
layerId = "5A9DA08A-6EB1-451A-A52A-FC81F1DBA669";
width = 525;
}
);
leftKerningGroup = S;
note = Sacute;
rightKerningGroup = S;
unicode = 015A;
userData = {
com.typemytype.robofont.layerData = {
background = {
anchors = (
);
components = (
);
contours = (
);
lib = {
};
name = Sacute;
unicodes = (
);
width = 525;
};
};
};
},
{
glyphname = Scaron;
lastChange = "2016-04-29 04:27:07 +0000";
layers = (
{
background = {
paths = (
{
closed = 1;
nodes = (
"370 469 CURVE SMOOTH",
"387 462 OFFCURVE",
"390 461 OFFCURVE",
"393 461 CURVE SMOOTH",
"406 461 OFFCURVE",
"418 473 OFFCURVE",
"418 486 CURVE SMOOTH",
"418 496 OFFCURVE",
"412 505 OFFCURVE",
"402 509 CURVE SMOOTH",
"352 529 OFFCURVE",
"316 541 OFFCURVE",
"243 541 CURVE SMOOTH",
"138 541 OFFCURVE",
"82 475 OFFCURVE",
"82 412 CURVE SMOOTH",
"82 355 OFFCURVE",
"100 286 OFFCURVE",
"259 255 CURVE SMOOTH",
"360 233 OFFCURVE",
"402 194 OFFCURVE",
"402 138 CURVE SMOOTH",
"402 84 OFFCURVE",
"354 41 OFFCURVE",
"263 41 CURVE SMOOTH",
"207 41 OFFCURVE",
"154 54 OFFCURVE",
"106 81 CURVE SMOOTH",
"102 83 OFFCURVE",
"98 84 OFFCURVE",
"94 84 CURVE SMOOTH",
"79 84 OFFCURVE",
"69 71 OFFCURVE",
"69 59 CURVE SMOOTH",
"69 50 OFFCURVE",
"74 42 OFFCURVE",
"82 37 CURVE SMOOTH",
"138 6 OFFCURVE",
"199 -9 OFFCURVE",
"263 -9 CURVE SMOOTH",
"400 -9 OFFCURVE",
"452 64 OFFCURVE",
"452 138 CURVE SMOOTH",
"452 210 OFFCURVE",
"412 273 OFFCURVE",
"269 305 CURVE SMOOTH",
"160 326 OFFCURVE",
"132 369 OFFCURVE",
"132 412 CURVE SMOOTH",
"132 455 OFFCURVE",
"178 491 OFFCURVE",
"243 491 CURVE SMOOTH",
"304 491 OFFCURVE",
"338 482 OFFCURVE"
);
},
{
closed = 1;
nodes = (
"262 633 OFFCURVE",
"267 635 OFFCURVE",
"271 638 CURVE SMOOTH",
"304 662 OFFCURVE",
"339 686 OFFCURVE",
"367 707 CURVE SMOOTH",
"373 712 OFFCURVE",
"376 719 OFFCURVE",
"376 726 CURVE SMOOTH",
"376 737 OFFCURVE",
"366 747 OFFCURVE",
"353 747 CURVE SMOOTH",
"349 747 OFFCURVE",
"345 746 OFFCURVE",
"341 743 CURVE SMOOTH",
"316 724 OFFCURVE",
"285 703 OFFCURVE",
"254 681 CURVE",
"224 703 OFFCURVE",
"193 724 OFFCURVE",
"168 743 CURVE SMOOTH",
"164 746 OFFCURVE",
"160 747 OFFCURVE",
"156 747 CURVE SMOOTH",
"142 747 OFFCURVE",
"133 737 OFFCURVE",
"133 726 CURVE SMOOTH",
"133 719 OFFCURVE",
"136 712 OFFCURVE",
"142 707 CURVE SMOOTH",
"170 686 OFFCURVE",
"204 662 OFFCURVE",
"238 638 CURVE SMOOTH",
"242 635 OFFCURVE",
"247 633 OFFCURVE",
"253 633 CURVE SMOOTH",
"257 633 LINE SMOOTH"
);
}
);
};
components = (
{
name = S;
},
{
name = caroncomb.case;
transform = "{1, 0, 0, 1, 259, 1}";
}
);
layerId = "5A9DA08A-6EB1-451A-A52A-FC81F1DBA669";
width = 525;
}
);
leftKerningGroup = S;
note = Scaron;
rightKerningGroup = S;
unicode = 0160;
userData = {
com.typemytype.robofont.layerData = {
background = {
anchors = (
);
components = (
);
contours = (
);
lib = {
};
name = Scaron;
unicodes = (
);
width = 525;
};
};
};
},
{
glyphname = Scedilla;
lastChange = "2016-04-29 04:27:07 +0000";
layers = (
{
background = {
paths = (
{
closed = 1;
nodes = (
"370 469 CURVE SMOOTH",
"387 462 OFFCURVE",
"390 461 OFFCURVE",
"393 461 CURVE SMOOTH",
"406 461 OFFCURVE",
"418 473 OFFCURVE",
"418 486 CURVE SMOOTH",
"418 496 OFFCURVE",
"412 505 OFFCURVE",
"402 509 CURVE SMOOTH",
"352 529 OFFCURVE",
"316 541 OFFCURVE",
"243 541 CURVE SMOOTH",
"138 541 OFFCURVE",
"82 475 OFFCURVE",
"82 412 CURVE SMOOTH",
"82 355 OFFCURVE",
"100 286 OFFCURVE",
"259 255 CURVE SMOOTH",
"360 233 OFFCURVE",
"402 194 OFFCURVE",
"402 138 CURVE SMOOTH",
"402 84 OFFCURVE",
"354 41 OFFCURVE",
"263 41 CURVE SMOOTH",
"207 41 OFFCURVE",
"154 54 OFFCURVE",
"106 81 CURVE SMOOTH",
"102 83 OFFCURVE",
"98 84 OFFCURVE",
"94 84 CURVE SMOOTH",
"79 84 OFFCURVE",
"69 71 OFFCURVE",
"69 59 CURVE SMOOTH",
"69 50 OFFCURVE",
"74 42 OFFCURVE",
"82 37 CURVE SMOOTH",
"138 6 OFFCURVE",
"199 -9 OFFCURVE",
"263 -9 CURVE SMOOTH",
"400 -9 OFFCURVE",
"452 64 OFFCURVE",
"452 138 CURVE SMOOTH",
"452 210 OFFCURVE",
"412 273 OFFCURVE",
"269 305 CURVE SMOOTH",
"160 326 OFFCURVE",
"132 369 OFFCURVE",
"132 412 CURVE SMOOTH",
"132 455 OFFCURVE",
"178 491 OFFCURVE",
"243 491 CURVE SMOOTH",
"304 491 OFFCURVE",
"338 482 OFFCURVE"
);
},
{
closed = 1;
nodes = (
"282 -94 CURVE SMOOTH",
"279 -87 OFFCURVE",
"271 -83 OFFCURVE",
"263 -83 CURVE SMOOTH",
"250 -83 OFFCURVE",
"241 -92 OFFCURVE",
"241 -105 CURVE SMOOTH",
"241 -109 OFFCURVE",
"242 -112 OFFCURVE",
"244 -116 CURVE SMOOTH",
"248 -123 OFFCURVE",
"250 -133 OFFCURVE",
"250 -142 CURVE SMOOTH",
"250 -173 OFFCURVE",
"223 -199 OFFCURVE",
"186 -216 CURVE SMOOTH",
"178 -220 OFFCURVE",
"173 -228 OFFCURVE",
"173 -236 CURVE SMOOTH",
"173 -248 OFFCURVE",
"184 -258 OFFCURVE",
"195 -258 CURVE SMOOTH",
"198 -258 OFFCURVE",
"201 -257 OFFCURVE",
"204 -256 CURVE SMOOTH",
"261 -229 OFFCURVE",
"294 -187 OFFCURVE",
"294 -142 CURVE SMOOTH",
"294 -125 OFFCURVE",
"290 -109 OFFCURVE"
);
}
);
};
components = (
{
name = S;
},
{
name = cedillacomb;
transform = "{1, 0, 0, 1, 263, -9}";
}
);
layerId = "5A9DA08A-6EB1-451A-A52A-FC81F1DBA669";
width = 525;
}
);
leftKerningGroup = S;
note = uni015E;
rightKerningGroup = S;
unicode = 015E;
userData = {
com.typemytype.robofont.layerData = {
background = {
anchors = (
);
components = (
);
contours = (
);
lib = {
};
name = uni015E;
unicodes = (
);
width = 525;
};
};
};
},
{
glyphname = Scommaaccent;
lastChange = "2016-04-29 04:27:07 +0000";
layers = (
{
background = {
paths = (
{
closed = 1;
nodes = (
"370 469 CURVE SMOOTH",
"387 462 OFFCURVE",
"390 461 OFFCURVE",
"393 461 CURVE SMOOTH",
"406 461 OFFCURVE",
"418 473 OFFCURVE",
"418 486 CURVE SMOOTH",
"418 496 OFFCURVE",
"412 505 OFFCURVE",
"402 509 CURVE SMOOTH",
"352 529 OFFCURVE",
"316 541 OFFCURVE",
"243 541 CURVE SMOOTH",
"138 541 OFFCURVE",
"82 475 OFFCURVE",
"82 412 CURVE SMOOTH",
"82 355 OFFCURVE",
"100 286 OFFCURVE",
"259 255 CURVE SMOOTH",
"360 233 OFFCURVE",
"402 194 OFFCURVE",
"402 138 CURVE SMOOTH",
"402 84 OFFCURVE",
"354 41 OFFCURVE",
"263 41 CURVE SMOOTH",
"207 41 OFFCURVE",
"154 54 OFFCURVE",
"106 81 CURVE SMOOTH",
"102 83 OFFCURVE",
"98 84 OFFCURVE",
"94 84 CURVE SMOOTH",
"79 84 OFFCURVE",
"69 71 OFFCURVE",
"69 59 CURVE SMOOTH",
"69 50 OFFCURVE",
"74 42 OFFCURVE",
"82 37 CURVE SMOOTH",
"138 6 OFFCURVE",
"199 -9 OFFCURVE",
"263 -9 CURVE SMOOTH",
"400 -9 OFFCURVE",
"452 64 OFFCURVE",
"452 138 CURVE SMOOTH",
"452 210 OFFCURVE",
"412 273 OFFCURVE",
"269 305 CURVE SMOOTH",
"160 326 OFFCURVE",
"132 369 OFFCURVE",
"132 412 CURVE SMOOTH",
"132 455 OFFCURVE",
"178 491 OFFCURVE",
"243 491 CURVE SMOOTH",
"304 491 OFFCURVE",
"338 482 OFFCURVE"
);
},
{
closed = 1;
nodes = (
"281 -137 CURVE SMOOTH",
"286 -133 OFFCURVE",
"288 -127 OFFCURVE",
"288 -121 CURVE SMOOTH",
"288 -109 OFFCURVE",
"277 -99 OFFCURVE",
"266 -99 CURVE SMOOTH",
"260 -99 OFFCURVE",
"255 -101 OFFCURVE",
"251 -105 CURVE SMOOTH",
"224 -131 OFFCURVE",
"173 -181 OFFCURVE",
"149 -205 CURVE SMOOTH",
"144 -210 OFFCURVE",
"143 -215 OFFCURVE",
"143 -221 CURVE SMOOTH",
"143 -234 OFFCURVE",
"154 -243 OFFCURVE",
"165 -243 CURVE SMOOTH",
"171 -243 OFFCURVE",
"177 -241 OFFCURVE",
"181 -237 CURVE SMOOTH",
"203 -214 OFFCURVE",
"254 -163 OFFCURVE"
);
}
);
};
components = (
{
name = S;
},
{
name = commaaccentcomb;
transform = "{1, 0, 0, 1, 263, -9}";
}
);
layerId = "5A9DA08A-6EB1-451A-A52A-FC81F1DBA669";
width = 525;
}
);
leftKerningGroup = S;
note = uni0218;
rightKerningGroup = S;
unicode = 0218;
userData = {
com.typemytype.robofont.layerData = {
background = {
anchors = (
);
components = (
);
contours = (
);
lib = {
};
name = uni0218;
unicodes = (
);
width = 525;
};
};
};
},
{
color = 6;
glyphname = T;
lastChange = "2016-04-29 04:27:07 +0000";
layers = (
{
anchors = (
{
name = bottom;
position = "{271, 0}";
},
{
name = top;
position = "{273, 535}";
}
);
layerId = "5A9DA08A-6EB1-451A-A52A-FC81F1DBA669";
paths = (
{
closed = 1;
nodes = (
"271 0 CURVE SMOOTH",
"285 0 OFFCURVE",
"296 11 OFFCURVE",
"296 25 CURVE SMOOTH",
"296 485 LINE",
"487 485 LINE SMOOTH",
"501 485 OFFCURVE",
"512 497 OFFCURVE",
"512 510 CURVE SMOOTH",
"512 524 OFFCURVE",
"501 535 OFFCURVE",
"487 535 CURVE SMOOTH",
"59 535 LINE SMOOTH",
"46 535 OFFCURVE",
"34 524 OFFCURVE",
"34 510 CURVE SMOOTH",
"34 497 OFFCURVE",
"46 485 OFFCURVE",
"59 485 CURVE SMOOTH",
"246 485 LINE",
"246 25 LINE SMOOTH",
"246 12 OFFCURVE",
"258 0 OFFCURVE"
);
}
);
width = 546;
}
);
leftKerningGroup = T;
note = T;
rightKerningGroup = T;
unicode = 0054;
userData = {
com.typemytype.robofont.layerData = {
background = {
anchors = (
);
components = (
);
contours = (
);
lib = {
};
name = T;
unicodes = (
);
width = 546;
};
};
};
},
{
glyphname = Tcaron;
lastChange = "2016-04-29 04:27:07 +0000";
layers = (
{
background = {
paths = (
{
closed = 1;
nodes = (
"271 0 CURVE SMOOTH",
"285 0 OFFCURVE",
"296 11 OFFCURVE",
"296 25 CURVE SMOOTH",
"296 485 LINE",
"487 485 LINE SMOOTH",
"501 485 OFFCURVE",
"512 497 OFFCURVE",
"512 510 CURVE SMOOTH",
"512 524 OFFCURVE",
"501 535 OFFCURVE",
"487 535 CURVE SMOOTH",
"59 535 LINE SMOOTH",
"46 535 OFFCURVE",
"34 524 OFFCURVE",
"34 510 CURVE SMOOTH",
"34 497 OFFCURVE",
"46 485 OFFCURVE",
"59 485 CURVE SMOOTH",
"246 485 LINE",
"246 25 LINE SMOOTH",
"246 12 OFFCURVE",
"258 0 OFFCURVE"
);
},
{
closed = 1;
nodes = (
"280 633 OFFCURVE",
"285 635 OFFCURVE",
"289 638 CURVE SMOOTH",
"322 662 OFFCURVE",
"357 686 OFFCURVE",
"385 707 CURVE SMOOTH",
"391 712 OFFCURVE",
"394 719 OFFCURVE",
"394 726 CURVE SMOOTH",
"394 737 OFFCURVE",
"384 747 OFFCURVE",
"371 747 CURVE SMOOTH",
"367 747 OFFCURVE",
"363 746 OFFCURVE",
"359 743 CURVE SMOOTH",
"334 724 OFFCURVE",
"303 703 OFFCURVE",
"272 681 CURVE",
"242 703 OFFCURVE",
"211 724 OFFCURVE",
"186 743 CURVE SMOOTH",
"182 746 OFFCURVE",
"178 747 OFFCURVE",
"174 747 CURVE SMOOTH",
"160 747 OFFCURVE",
"151 737 OFFCURVE",
"151 726 CURVE SMOOTH",
"151 719 OFFCURVE",
"154 712 OFFCURVE",
"160 707 CURVE SMOOTH",
"188 686 OFFCURVE",
"222 662 OFFCURVE",
"256 638 CURVE SMOOTH",
"260 635 OFFCURVE",
"265 633 OFFCURVE",
"271 633 CURVE SMOOTH",
"275 633 LINE SMOOTH"
);
}
);
};
components = (
{
name = T;
},
{
name = caroncomb.case;
transform = "{1, 0, 0, 1, 273, 0}";
}
);
layerId = "5A9DA08A-6EB1-451A-A52A-FC81F1DBA669";
width = 546;
}
);
leftKerningGroup = T;
note = Tcaron;
rightKerningGroup = T;
unicode = 0164;
userData = {
com.typemytype.robofont.layerData = {
background = {
anchors = (
);
components = (
);
contours = (
);
lib = {
};
name = Tcaron;
unicodes = (
);
width = 546;
};
};
};
},
{
glyphname = Tcedilla;
lastChange = "2016-04-29 04:27:07 +0000";
layers = (
{
background = {
paths = (
{
closed = 1;
nodes = (
"271 0 CURVE SMOOTH",
"285 0 OFFCURVE",
"296 11 OFFCURVE",
"296 25 CURVE SMOOTH",
"296 485 LINE",
"487 485 LINE SMOOTH",
"501 485 OFFCURVE",
"512 497 OFFCURVE",
"512 510 CURVE SMOOTH",
"512 524 OFFCURVE",
"501 535 OFFCURVE",
"487 535 CURVE SMOOTH",
"59 535 LINE SMOOTH",
"46 535 OFFCURVE",
"34 524 OFFCURVE",
"34 510 CURVE SMOOTH",
"34 497 OFFCURVE",
"46 485 OFFCURVE",
"59 485 CURVE SMOOTH",
"246 485 LINE",
"246 25 LINE SMOOTH",
"246 12 OFFCURVE",
"258 0 OFFCURVE"
);
},
{
closed = 1;
nodes = (
"288 -91 CURVE SMOOTH",
"285 -84 OFFCURVE",
"277 -80 OFFCURVE",
"269 -80 CURVE SMOOTH",
"256 -80 OFFCURVE",
"247 -89 OFFCURVE",
"247 -102 CURVE SMOOTH",
"247 -106 OFFCURVE",
"248 -109 OFFCURVE",
"250 -113 CURVE SMOOTH",
"254 -120 OFFCURVE",
"256 -130 OFFCURVE",
"256 -139 CURVE SMOOTH",
"256 -170 OFFCURVE",
"229 -196 OFFCURVE",
"192 -213 CURVE SMOOTH",
"184 -217 OFFCURVE",
"179 -225 OFFCURVE",
"179 -233 CURVE SMOOTH",
"179 -245 OFFCURVE",
"190 -255 OFFCURVE",
"201 -255 CURVE SMOOTH",
"204 -255 OFFCURVE",
"207 -254 OFFCURVE",
"210 -253 CURVE SMOOTH",
"267 -226 OFFCURVE",
"300 -184 OFFCURVE",
"300 -139 CURVE SMOOTH",
"300 -122 OFFCURVE",
"296 -106 OFFCURVE"
);
}
);
};
components = (
{
name = T;
},
{
name = cedillacomb;
transform = "{1, 0, 0, 1, 271, 0}";
}
);
layerId = "5A9DA08A-6EB1-451A-A52A-FC81F1DBA669";
width = 546;
}
);
leftKerningGroup = T;
note = uni0162;
rightKerningGroup = T;
unicode = 0162;
userData = {
com.typemytype.robofont.layerData = {
background = {
anchors = (
);
components = (
);
contours = (
);
lib = {
};
name = uni0162;
unicodes = (
);
width = 546;
};
};
};
},
{
glyphname = Tcommaaccent;
lastChange = "2016-04-29 04:27:07 +0000";
layers = (
{
background = {
paths = (
{
closed = 1;
nodes = (
"271 0 CURVE SMOOTH",
"285 0 OFFCURVE",
"296 11 OFFCURVE",
"296 25 CURVE SMOOTH",
"296 485 LINE",
"487 485 LINE SMOOTH",
"501 485 OFFCURVE",
"512 497 OFFCURVE",
"512 510 CURVE SMOOTH",
"512 524 OFFCURVE",
"501 535 OFFCURVE",
"487 535 CURVE SMOOTH",
"59 535 LINE SMOOTH",
"46 535 OFFCURVE",
"34 524 OFFCURVE",
"34 510 CURVE SMOOTH",
"34 497 OFFCURVE",
"46 485 OFFCURVE",
"59 485 CURVE SMOOTH",
"246 485 LINE",
"246 25 LINE SMOOTH",
"246 12 OFFCURVE",
"258 0 OFFCURVE"
);
},
{
closed = 1;
nodes = (
"283 -137 CURVE SMOOTH",
"288 -133 OFFCURVE",
"290 -127 OFFCURVE",
"290 -121 CURVE SMOOTH",
"290 -109 OFFCURVE",
"279 -99 OFFCURVE",
"268 -99 CURVE SMOOTH",
"262 -99 OFFCURVE",
"257 -101 OFFCURVE",
"253 -105 CURVE SMOOTH",
"226 -131 OFFCURVE",
"175 -181 OFFCURVE",
"151 -205 CURVE SMOOTH",
"146 -210 OFFCURVE",
"145 -215 OFFCURVE",
"145 -221 CURVE SMOOTH",
"145 -234 OFFCURVE",
"156 -243 OFFCURVE",
"167 -243 CURVE SMOOTH",
"173 -243 OFFCURVE",
"179 -241 OFFCURVE",
"183 -237 CURVE SMOOTH",
"205 -214 OFFCURVE",
"256 -163 OFFCURVE"
);
}
);
};
components = (
{
name = T;
},
{
name = commaaccentcomb;
transform = "{1, 0, 0, 1, 271, 0}";
}
);
layerId = "5A9DA08A-6EB1-451A-A52A-FC81F1DBA669";
width = 546;
}
);
leftKerningGroup = T;
note = uni021A;
rightKerningGroup = T;
unicode = 021A;
userData = {
com.typemytype.robofont.layerData = {
background = {
anchors = (
);
components = (
);
contours = (
);
lib = {
};
name = uni021A;
unicodes = (
);
width = 548;
};
};
};
},
{
color = 6;
glyphname = U;
lastChange = "2016-04-29 04:27:07 +0000";
layers = (
{
anchors = (
{
name = bottom;
position = "{306, -9}";
},
{
name = top;
position = "{309, 503}";
}
);
layerId = "5A9DA08A-6EB1-451A-A52A-FC81F1DBA669";
paths = (
{
closed = 1;
nodes = (
"136 510 LINE SMOOTH",
"136 524 OFFCURVE",
"125 535 OFFCURVE",
"111 535 CURVE SMOOTH",
"98 535 OFFCURVE",
"86 524 OFFCURVE",
"86 510 CURVE SMOOTH",
"86 214 LINE SMOOTH",
"86 71 OFFCURVE",
"176 -9 OFFCURVE",
"306 -9 CURVE SMOOTH",
"449 -9 OFFCURVE",
"530 71 OFFCURVE",
"530 217 CURVE SMOOTH",
"530 510 LINE SMOOTH",
"530 524 OFFCURVE",
"519 535 OFFCURVE",
"505 535 CURVE SMOOTH",
"492 535 OFFCURVE",
"480 524 OFFCURVE",
"480 510 CURVE SMOOTH",
"480 217 LINE SMOOTH",
"480 103 OFFCURVE",
"417 41 OFFCURVE",
"306 41 CURVE SMOOTH",
"206 41 OFFCURVE",
"136 103 OFFCURVE",
"136 214 CURVE SMOOTH"
);
}
);
width = 616;
}
);
leftKerningGroup = U;
note = U;
rightKerningGroup = U;
unicode = 0055;
userData = {
com.typemytype.robofont.layerData = {
background = {
anchors = (
);
components = (
);
contours = (
);
lib = {
};
name = U;
unicodes = (
);
width = 616;
};
};
};
},
{
glyphname = Uacute;
lastChange = "2016-04-29 04:27:07 +0000";
layers = (
{
background = {
paths = (
{
closed = 1;
nodes = (
"136 510 LINE SMOOTH",
"136 524 OFFCURVE",
"125 535 OFFCURVE",
"111 535 CURVE SMOOTH",
"98 535 OFFCURVE",
"86 524 OFFCURVE",
"86 510 CURVE SMOOTH",
"86 214 LINE SMOOTH",
"86 71 OFFCURVE",
"176 -9 OFFCURVE",
"306 -9 CURVE SMOOTH",
"449 -9 OFFCURVE",
"530 71 OFFCURVE",
"530 217 CURVE SMOOTH",
"530 510 LINE SMOOTH",
"530 524 OFFCURVE",
"519 535 OFFCURVE",
"505 535 CURVE SMOOTH",
"492 535 OFFCURVE",
"480 524 OFFCURVE",
"480 510 CURVE SMOOTH",
"480 217 LINE SMOOTH",
"480 103 OFFCURVE",
"417 41 OFFCURVE",
"306 41 CURVE SMOOTH",
"206 41 OFFCURVE",
"136 103 OFFCURVE",
"136 214 CURVE SMOOTH"
);
},
{
closed = 1;
nodes = (
"439 678 CURVE SMOOTH",
"446 682 OFFCURVE",
"450 690 OFFCURVE",
"450 698 CURVE SMOOTH",
"450 708 OFFCURVE",
"441 719 OFFCURVE",
"427 719 CURVE SMOOTH",
"424 719 OFFCURVE",
"420 718 OFFCURVE",
"417 716 CURVE SMOOTH",
"370 689 OFFCURVE",
"322 657 OFFCURVE",
"292 636 CURVE SMOOTH",
"286 632 OFFCURVE",
"283 625 OFFCURVE",
"283 618 CURVE SMOOTH",
"283 606 OFFCURVE",
"292 596 OFFCURVE",
"305 596 CURVE SMOOTH",
"309 596 OFFCURVE",
"314 597 OFFCURVE",
"318 600 CURVE SMOOTH",
"346 621 OFFCURVE",
"394 651 OFFCURVE"
);
}
);
};
components = (
{
name = U;
},
{
name = acutecomb.case;
transform = "{1, 0, 0, 1, 309, -32}";
}
);
layerId = "5A9DA08A-6EB1-451A-A52A-FC81F1DBA669";
width = 616;
}
);
leftKerningGroup = U;
note = Uacute;
rightKerningGroup = U;
unicode = 00DA;
userData = {
com.typemytype.robofont.layerData = {
background = {
anchors = (
);
components = (
);
contours = (
);
lib = {
};
name = Uacute;
unicodes = (
);
width = 616;
};
};
};
},
{
glyphname = Ucircumflex;
lastChange = "2016-04-29 04:27:07 +0000";
layers = (
{
background = {
paths = (
{
closed = 1;
nodes = (
"399 604 CURVE SMOOTH",
"413 604 OFFCURVE",
"422 614 OFFCURVE",
"422 625 CURVE SMOOTH",
"422 632 OFFCURVE",
"419 639 OFFCURVE",
"413 644 CURVE SMOOTH",
"385 665 OFFCURVE",
"351 689 OFFCURVE",
"317 713 CURVE SMOOTH",
"313 716 OFFCURVE",
"307 718 OFFCURVE",
"303 718 CURVE SMOOTH",
"298 718 LINE SMOOTH",
"294 718 OFFCURVE",
"288 716 OFFCURVE",
"284 713 CURVE SMOOTH",
"251 689 OFFCURVE",
"216 665 OFFCURVE",
"188 644 CURVE SMOOTH",
"182 639 OFFCURVE",
"179 632 OFFCURVE",
"179 625 CURVE SMOOTH",
"179 613 OFFCURVE",
"189 604 OFFCURVE",
"202 604 CURVE SMOOTH",
"206 604 OFFCURVE",
"210 605 OFFCURVE",
"214 608 CURVE SMOOTH",
"239 627 OFFCURVE",
"270 648 OFFCURVE",
"301 670 CURVE",
"331 648 OFFCURVE",
"362 627 OFFCURVE",
"387 608 CURVE SMOOTH",
"391 605 OFFCURVE",
"395 604 OFFCURVE"
);
},
{
closed = 1;
nodes = (
"136 510 LINE SMOOTH",
"136 524 OFFCURVE",
"125 535 OFFCURVE",
"111 535 CURVE SMOOTH",
"98 535 OFFCURVE",
"86 524 OFFCURVE",
"86 510 CURVE SMOOTH",
"86 214 LINE SMOOTH",
"86 71 OFFCURVE",
"176 -9 OFFCURVE",
"306 -9 CURVE SMOOTH",
"449 -9 OFFCURVE",
"530 71 OFFCURVE",
"530 217 CURVE SMOOTH",
"530 510 LINE SMOOTH",
"530 524 OFFCURVE",
"519 535 OFFCURVE",
"505 535 CURVE SMOOTH",
"492 535 OFFCURVE",
"480 524 OFFCURVE",
"480 510 CURVE SMOOTH",
"480 217 LINE SMOOTH",
"480 103 OFFCURVE",
"417 41 OFFCURVE",
"306 41 CURVE SMOOTH",
"206 41 OFFCURVE",
"136 103 OFFCURVE",
"136 214 CURVE SMOOTH"
);
}
);
};
components = (
{
name = U;
},
{
name = circumflexcomb.case;
transform = "{1, 0, 0, 1, 309, -32}";
}
);
layerId = "5A9DA08A-6EB1-451A-A52A-FC81F1DBA669";
width = 616;
}
);
leftKerningGroup = U;
note = Ucircumflex;
rightKerningGroup = U;
unicode = 00DB;
userData = {
com.typemytype.robofont.layerData = {
background = {
anchors = (
);
components = (
);
contours = (
);
lib = {
};
name = Ucircumflex;
unicodes = (
);
width = 616;
};
};
};
},
{
glyphname = Udieresis;
lastChange = "2016-04-29 04:27:07 +0000";
layers = (
{
background = {
paths = (
{
closed = 1;
nodes = (
"403 700 CURVE SMOOTH",
"383 700 OFFCURVE",
"364 682 OFFCURVE",
"364 652 CURVE SMOOTH",
"364 620 OFFCURVE",
"383 604 OFFCURVE",
"403 604 CURVE SMOOTH",
"421 604 OFFCURVE",
"441 619 OFFCURVE",
"441 652 CURVE SMOOTH",
"441 683 OFFCURVE",
"421 700 OFFCURVE"
);
},
{
closed = 1;
nodes = (
"210 700 CURVE SMOOTH",
"190 700 OFFCURVE",
"170 681 OFFCURVE",
"170 652 CURVE SMOOTH",
"170 621 OFFCURVE",
"190 604 OFFCURVE",
"210 604 CURVE SMOOTH",
"228 604 OFFCURVE",
"248 619 OFFCURVE",
"248 652 CURVE SMOOTH",
"248 683 OFFCURVE",
"228 700 OFFCURVE"
);
},
{
closed = 1;
nodes = (
"136 510 LINE SMOOTH",
"136 524 OFFCURVE",
"125 535 OFFCURVE",
"111 535 CURVE SMOOTH",
"98 535 OFFCURVE",
"86 524 OFFCURVE",
"86 510 CURVE SMOOTH",
"86 214 LINE SMOOTH",
"86 71 OFFCURVE",
"176 -9 OFFCURVE",
"306 -9 CURVE SMOOTH",
"449 -9 OFFCURVE",
"530 71 OFFCURVE",
"530 217 CURVE SMOOTH",
"530 510 LINE SMOOTH",
"530 524 OFFCURVE",
"519 535 OFFCURVE",
"505 535 CURVE SMOOTH",
"492 535 OFFCURVE",
"480 524 OFFCURVE",
"480 510 CURVE SMOOTH",
"480 217 LINE SMOOTH",
"480 103 OFFCURVE",
"417 41 OFFCURVE",
"306 41 CURVE SMOOTH",
"206 41 OFFCURVE",
"136 103 OFFCURVE",
"136 214 CURVE SMOOTH"
);
}
);
};
components = (
{
name = U;
},
{
name = dieresiscomb.case;
transform = "{1, 0, 0, 1, 309, -32}";
}
);
layerId = "5A9DA08A-6EB1-451A-A52A-FC81F1DBA669";
width = 616;
}
);
leftKerningGroup = U;
note = Udieresis;
rightKerningGroup = U;
unicode = 00DC;
userData = {
com.typemytype.robofont.layerData = {
background = {
anchors = (
);
components = (
);
contours = (
);
lib = {
};
name = Udieresis;
unicodes = (
);
width = 616;
};
};
};
},
{
glyphname = Ugrave;
lastChange = "2016-04-29 04:27:07 +0000";
layers = (
{
background = {
paths = (
{
closed = 1;
nodes = (
"212 717 CURVE SMOOTH",
"208 719 OFFCURVE",
"205 720 OFFCURVE",
"201 720 CURVE SMOOTH",
"189 720 OFFCURVE",
"179 709 OFFCURVE",
"179 698 CURVE SMOOTH",
"179 690 OFFCURVE",
"183 683 OFFCURVE",
"190 679 CURVE SMOOTH",
"225 659 OFFCURVE",
"277 620 OFFCURVE",
"303 600 CURVE SMOOTH",
"307 597 OFFCURVE",
"312 595 OFFCURVE",
"317 595 CURVE SMOOTH",
"329 595 OFFCURVE",
"339 606 OFFCURVE",
"339 617 CURVE SMOOTH",
"339 624 OFFCURVE",
"336 630 OFFCURVE",
"331 634 CURVE SMOOTH",
"303 656 OFFCURVE",
"249 697 OFFCURVE"
);
},
{
closed = 1;
nodes = (
"136 510 LINE SMOOTH",
"136 524 OFFCURVE",
"125 535 OFFCURVE",
"111 535 CURVE SMOOTH",
"98 535 OFFCURVE",
"86 524 OFFCURVE",
"86 510 CURVE SMOOTH",
"86 214 LINE SMOOTH",
"86 71 OFFCURVE",
"176 -9 OFFCURVE",
"306 -9 CURVE SMOOTH",
"449 -9 OFFCURVE",
"530 71 OFFCURVE",
"530 217 CURVE SMOOTH",
"530 510 LINE SMOOTH",
"530 524 OFFCURVE",
"519 535 OFFCURVE",
"505 535 CURVE SMOOTH",
"492 535 OFFCURVE",
"480 524 OFFCURVE",
"480 510 CURVE SMOOTH",
"480 217 LINE SMOOTH",
"480 103 OFFCURVE",
"417 41 OFFCURVE",
"306 41 CURVE SMOOTH",
"206 41 OFFCURVE",
"136 103 OFFCURVE",
"136 214 CURVE SMOOTH"
);
}
);
};
components = (
{
name = U;
},
{
name = gravecomb.case;
transform = "{1, 0, 0, 1, 309, -32}";
}
);
layerId = "5A9DA08A-6EB1-451A-A52A-FC81F1DBA669";
width = 616;
}
);
leftKerningGroup = U;
note = Ugrave;
rightKerningGroup = U;
unicode = 00D9;
userData = {
com.typemytype.robofont.layerData = {
background = {
anchors = (
);
components = (
);
contours = (
);
lib = {
};
name = Ugrave;
unicodes = (
);
width = 616;
};
};
};
},
{
glyphname = Uhungarumlaut;
lastChange = "2016-04-29 04:27:07 +0000";
layers = (
{
background = {
paths = (
{
closed = 1;
nodes = (
"478 729 CURVE SMOOTH",
"480 732 OFFCURVE",
"481 736 OFFCURVE",
"481 740 CURVE SMOOTH",
"481 752 OFFCURVE",
"473 763 OFFCURVE",
"460 763 CURVE SMOOTH",
"452 763 OFFCURVE",
"444 760 OFFCURVE",
"440 753 CURVE SMOOTH",
"417 716 OFFCURVE",
"404 687 OFFCURVE",
"395 667 CURVE SMOOTH",
"390 656 OFFCURVE",
"388 649 OFFCURVE",
"388 645 CURVE SMOOTH",
"388 633 OFFCURVE",
"398 624 OFFCURVE",
"410 624 CURVE SMOOTH",
"419 624 OFFCURVE",
"427 630 OFFCURVE",
"430 638 CURVE SMOOTH",
"442 667 OFFCURVE",
"456 696 OFFCURVE"
);
},
{
closed = 1;
nodes = (
"273 729 CURVE SMOOTH",
"275 732 OFFCURVE",
"276 736 OFFCURVE",
"276 740 CURVE SMOOTH",
"276 753 OFFCURVE",
"268 763 OFFCURVE",
"255 763 CURVE SMOOTH",
"247 763 OFFCURVE",
"239 760 OFFCURVE",
"235 753 CURVE SMOOTH",
"212 716 OFFCURVE",
"197 687 OFFCURVE",
"189 668 CURVE SMOOTH",
"183 655 OFFCURVE",
"183 648 OFFCURVE",
"183 645 CURVE SMOOTH",
"183 635 OFFCURVE",
"192 624 OFFCURVE",
"205 624 CURVE SMOOTH",
"214 624 OFFCURVE",
"222 630 OFFCURVE",
"225 638 CURVE SMOOTH",
"237 667 OFFCURVE",
"251 696 OFFCURVE"
);
},
{
closed = 1;
nodes = (
"136 510 LINE SMOOTH",
"136 524 OFFCURVE",
"125 535 OFFCURVE",
"111 535 CURVE SMOOTH",
"98 535 OFFCURVE",
"86 524 OFFCURVE",
"86 510 CURVE SMOOTH",
"86 214 LINE SMOOTH",
"86 71 OFFCURVE",
"176 -9 OFFCURVE",
"306 -9 CURVE SMOOTH",
"449 -9 OFFCURVE",
"530 71 OFFCURVE",
"530 217 CURVE SMOOTH",
"530 510 LINE SMOOTH",
"530 524 OFFCURVE",
"519 535 OFFCURVE",
"505 535 CURVE SMOOTH",
"492 535 OFFCURVE",
"480 524 OFFCURVE",
"480 510 CURVE SMOOTH",
"480 217 LINE SMOOTH",
"480 103 OFFCURVE",
"417 41 OFFCURVE",
"306 41 CURVE SMOOTH",
"206 41 OFFCURVE",
"136 103 OFFCURVE",
"136 214 CURVE SMOOTH"
);
}
);
};
components = (
{
name = U;
},
{
name = hungarumlautcomb.case;
transform = "{1, 0, 0, 1, 309, -32}";
}
);
layerId = "5A9DA08A-6EB1-451A-A52A-FC81F1DBA669";
width = 616;
}
);
leftKerningGroup = U;
note = Uhungarumlaut;
rightKerningGroup = U;
unicode = 0170;
userData = {
com.typemytype.robofont.layerData = {
background = {
anchors = (
);
components = (
);
contours = (
);
lib = {
};
name = Uhungarumlaut;
unicodes = (
);
width = 616;
};
};
};
},
{
glyphname = Umacron;
lastChange = "2016-04-29 04:27:07 +0000";
layers = (
{
background = {
paths = (
{
closed = 1;
nodes = (
"418 664 LINE SMOOTH",
"430 664 OFFCURVE",
"440 674 OFFCURVE",
"440 686 CURVE SMOOTH",
"440 698 OFFCURVE",
"430 708 OFFCURVE",
"418 708 CURVE SMOOTH",
"189 708 LINE SMOOTH",
"177 708 OFFCURVE",
"167 698 OFFCURVE",
"167 686 CURVE SMOOTH",
"167 674 OFFCURVE",
"177 664 OFFCURVE",
"189 664 CURVE SMOOTH"
);
},
{
closed = 1;
nodes = (
"136 510 LINE SMOOTH",
"136 524 OFFCURVE",
"125 535 OFFCURVE",
"111 535 CURVE SMOOTH",
"98 535 OFFCURVE",
"86 524 OFFCURVE",
"86 510 CURVE SMOOTH",
"86 214 LINE SMOOTH",
"86 71 OFFCURVE",
"176 -9 OFFCURVE",
"306 -9 CURVE SMOOTH",
"449 -9 OFFCURVE",
"530 71 OFFCURVE",
"530 217 CURVE SMOOTH",
"530 510 LINE SMOOTH",
"530 524 OFFCURVE",
"519 535 OFFCURVE",
"505 535 CURVE SMOOTH",
"492 535 OFFCURVE",
"480 524 OFFCURVE",
"480 510 CURVE SMOOTH",
"480 217 LINE SMOOTH",
"480 103 OFFCURVE",
"417 41 OFFCURVE",
"306 41 CURVE SMOOTH",
"206 41 OFFCURVE",
"136 103 OFFCURVE",
"136 214 CURVE SMOOTH"
);
}
);
};
components = (
{
name = U;
},
{
name = macroncomb.case;
transform = "{1, 0, 0, 1, 309, -32}";
}
);
layerId = "5A9DA08A-6EB1-451A-A52A-FC81F1DBA669";
width = 616;
}
);
leftKerningGroup = U;
note = Umacron;
rightKerningGroup = U;
unicode = 016A;
userData = {
com.typemytype.robofont.layerData = {
background = {
anchors = (
);
components = (
);
contours = (
);
lib = {
};
name = Umacron;
unicodes = (
);
width = 616;
};
};
};
},
{
glyphname = Uogonek;
lastChange = "2016-04-29 04:27:07 +0000";
layers = (
{
layerId = "5A9DA08A-6EB1-451A-A52A-FC81F1DBA669";
paths = (
{
closed = 1;
nodes = (
"371 -221 CURVE SMOOTH",
"383 -221 OFFCURVE",
"393 -211 OFFCURVE",
"393 -199 CURVE SMOOTH",
"393 -187 OFFCURVE",
"383 -177 OFFCURVE",
"371 -177 CURVE SMOOTH",
"322 -177 OFFCURVE",
"275 -167 OFFCURVE",
"275 -139 CURVE SMOOTH",
"275 -115 OFFCURVE",
"287 -93 OFFCURVE",
"350 -31 CURVE SMOOTH",
"381 0 LINE",
"477 24 OFFCURVE",
"530 99 OFFCURVE",
"530 217 CURVE SMOOTH",
"530 510 LINE SMOOTH",
"530 524 OFFCURVE",
"519 535 OFFCURVE",
"505 535 CURVE SMOOTH",
"492 535 OFFCURVE",
"480 524 OFFCURVE",
"480 510 CURVE SMOOTH",
"480 217 LINE SMOOTH",
"480 103 OFFCURVE",
"417 41 OFFCURVE",
"306 41 CURVE SMOOTH",
"206 41 OFFCURVE",
"136 103 OFFCURVE",
"136 214 CURVE SMOOTH",
"136 510 LINE SMOOTH",
"136 524 OFFCURVE",
"125 535 OFFCURVE",
"111 535 CURVE SMOOTH",
"98 535 OFFCURVE",
"86 524 OFFCURVE",
"86 510 CURVE SMOOTH",
"86 214 LINE SMOOTH",
"86 71 OFFCURVE",
"176 -9 OFFCURVE",
"306 -9 CURVE SMOOTH",
"308 -9 OFFCURVE",
"311 -9 OFFCURVE",
"313 -9 CURVE",
"240 -78 OFFCURVE",
"231 -110 OFFCURVE",
"231 -139 CURVE SMOOTH",
"231 -181 OFFCURVE",
"264 -221 OFFCURVE"
);
}
);
width = 616;
}
);
leftKerningGroup = U;
note = Uogonek;
rightKerningGroup = U;
unicode = 0172;
userData = {
com.typemytype.robofont.layerData = {
background = {
anchors = (
);
components = (
);
contours = (
);
lib = {
};
name = Uogonek;
unicodes = (
);
width = 616;
};
};
};
},
{
glyphname = Uring;
lastChange = "2016-04-29 04:27:07 +0000";
layers = (
{
background = {
paths = (
{
closed = 1;
nodes = (
"416 618 CURVE SMOOTH",
"416 669 OFFCURVE",
"376 718 OFFCURVE",
"307 718 CURVE SMOOTH",
"240 718 OFFCURVE",
"201 666 OFFCURVE",
"201 618 CURVE SMOOTH",
"201 570 OFFCURVE",
"240 518 OFFCURVE",
"307 518 CURVE SMOOTH",
"376 518 OFFCURVE",
"416 567 OFFCURVE"
);
},
{
closed = 1;
nodes = (
"372 618 CURVE SMOOTH",
"372 587 OFFCURVE",
"346 562 OFFCURVE",
"307 562 CURVE SMOOTH",
"270 562 OFFCURVE",
"245 590 OFFCURVE",
"245 618 CURVE SMOOTH",
"245 646 OFFCURVE",
"270 674 OFFCURVE",
"307 674 CURVE SMOOTH",
"346 674 OFFCURVE",
"372 649 OFFCURVE"
);
},
{
closed = 1;
nodes = (
"136 510 LINE SMOOTH",
"136 524 OFFCURVE",
"125 535 OFFCURVE",
"111 535 CURVE SMOOTH",
"98 535 OFFCURVE",
"86 524 OFFCURVE",
"86 510 CURVE SMOOTH",
"86 214 LINE SMOOTH",
"86 71 OFFCURVE",
"176 -9 OFFCURVE",
"306 -9 CURVE SMOOTH",
"449 -9 OFFCURVE",
"530 71 OFFCURVE",
"530 217 CURVE SMOOTH",
"530 510 LINE SMOOTH",
"530 524 OFFCURVE",
"519 535 OFFCURVE",
"505 535 CURVE SMOOTH",
"492 535 OFFCURVE",
"480 524 OFFCURVE",
"480 510 CURVE SMOOTH",
"480 217 LINE SMOOTH",
"480 103 OFFCURVE",
"417 41 OFFCURVE",
"306 41 CURVE SMOOTH",
"206 41 OFFCURVE",
"136 103 OFFCURVE",
"136 214 CURVE SMOOTH"
);
}
);
};
components = (
{
name = U;
},
{
name = ringcomb.case;
transform = "{1, 0, 0, 1, 309, -32}";
}
);
layerId = "5A9DA08A-6EB1-451A-A52A-FC81F1DBA669";
width = 616;
}
);
leftKerningGroup = U;
note = Uring;
rightKerningGroup = U;
unicode = 016E;
userData = {
com.typemytype.robofont.layerData = {
background = {
anchors = (
);
components = (
);
contours = (
);
lib = {
};
name = Uring;
unicodes = (
);
width = 616;
};
};
};
},
{
glyphname = V;
lastChange = "2016-04-03 12:04:33 +0000";
layers = (
{
layerId = "5A9DA08A-6EB1-451A-A52A-FC81F1DBA669";
paths = (
{
closed = 1;
nodes = (
"293 -10 CURVE SMOOTH",
"302 -10 OFFCURVE",
"311 -5 OFFCURVE",
"315 3 CURVE SMOOTH",
"359 88 OFFCURVE",
"481 356 OFFCURVE",
"523 469 CURVE SMOOTH",
"532 494 OFFCURVE",
"535 505 OFFCURVE",
"535 509 CURVE SMOOTH",
"535 523 OFFCURVE",
"524 535 OFFCURVE",
"511 535 CURVE SMOOTH",
"500 535 OFFCURVE",
"490 529 OFFCURVE",
"486 518 CURVE SMOOTH",
"445 395 OFFCURVE",
"347 180 OFFCURVE",
"293 70 CURVE",
"240 176 OFFCURVE",
"133 411 OFFCURVE",
"99 519 CURVE SMOOTH",
"96 530 OFFCURVE",
"85 536 OFFCURVE",
"75 536 CURVE SMOOTH",
"58 536 OFFCURVE",
"50 523 OFFCURVE",
"50 511 CURVE SMOOTH",
"50 505 OFFCURVE",
"55 490 OFFCURVE",
"60 476 CURVE SMOOTH",
"97 372 OFFCURVE",
"228 85 OFFCURVE",
"268 9 CURVE SMOOTH",
"274 -3 OFFCURVE",
"283 -10 OFFCURVE"
);
}
);
width = 585;
}
);
note = V;
unicode = 0056;
userData = {
com.typemytype.robofont.layerData = {
background = {
anchors = (
);
components = (
);
contours = (
);
lib = {
};
name = V;
unicodes = (
);
width = 585;
};
};
};
},
{
glyphname = W;
lastChange = "2016-04-03 12:04:33 +0000";
layers = (
{
layerId = "5A9DA08A-6EB1-451A-A52A-FC81F1DBA669";
paths = (
{
closed = 1;
nodes = (
"633 -10 CURVE SMOOTH",
"643 -10 OFFCURVE",
"653 -4 OFFCURVE",
"657 5 CURVE SMOOTH",
"694 89 OFFCURVE",
"789 359 OFFCURVE",
"827 488 CURVE SMOOTH",
"830 498 OFFCURVE",
"832 506 OFFCURVE",
"832 509 CURVE SMOOTH",
"832 522 OFFCURVE",
"819 534 OFFCURVE",
"807 534 CURVE SMOOTH",
"796 534 OFFCURVE",
"786 527 OFFCURVE",
"783 516 CURVE SMOOTH",
"748 396 OFFCURVE",
"676 189 OFFCURVE",
"632 77 CURVE",
"588 184 OFFCURVE",
"511 393 OFFCURVE",
"477 501 CURVE SMOOTH",
"470 522 OFFCURVE",
"462 531 OFFCURVE",
"449 531 CURVE SMOOTH",
"438 531 OFFCURVE",
"428 524 OFFCURVE",
"425 513 CURVE SMOOTH",
"389 395 OFFCURVE",
"310 191 OFFCURVE",
"263 79 CURVE",
"220 188 OFFCURVE",
"143 411 OFFCURVE",
"115 516 CURVE SMOOTH",
"112 527 OFFCURVE",
"102 534 OFFCURVE",
"91 534 CURVE SMOOTH",
"77 534 OFFCURVE",
"66 522 OFFCURVE",
"66 509 CURVE SMOOTH",
"66 505 OFFCURVE",
"68 497 OFFCURVE",
"76 469 CURVE SMOOTH",
"103 376 OFFCURVE",
"202 86 OFFCURVE",
"237 11 CURVE SMOOTH",
"241 2 OFFCURVE",
"250 -9 OFFCURVE",
"263 -9 CURVE SMOOTH",
"273 -9 OFFCURVE",
"283 -3 OFFCURVE",
"287 6 CURVE SMOOTH",
"319 77 OFFCURVE",
"399 279 OFFCURVE",
"449 425 CURVE",
"495 288 OFFCURVE",
"575 75 OFFCURVE",
"608 10 CURVE SMOOTH",
"615 -5 OFFCURVE",
"625 -10 OFFCURVE"
);
}
);
width = 897;
}
);
note = W;
unicode = 0057;
userData = {
com.typemytype.robofont.layerData = {
background = {
anchors = (
);
components = (
);
contours = (
);
lib = {
};
name = W;
unicodes = (
);
width = 897;
};
};
};
},
{
glyphname = X;
lastChange = "2016-04-03 12:04:33 +0000";
layers = (
{
layerId = "5A9DA08A-6EB1-451A-A52A-FC81F1DBA669";
paths = (
{
closed = 1;
nodes = (
"479 0 CURVE SMOOTH",
"492 0 OFFCURVE",
"504 12 OFFCURVE",
"504 25 CURVE SMOOTH",
"504 30 OFFCURVE",
"502 35 OFFCURVE",
"499 39 CURVE SMOOTH",
"468 83 OFFCURVE",
"392 175 OFFCURVE",
"313 272 CURVE",
"378 355 OFFCURVE",
"442 437 OFFCURVE",
"480 496 CURVE SMOOTH",
"483 500 OFFCURVE",
"484 505 OFFCURVE",
"484 510 CURVE SMOOTH",
"484 523 OFFCURVE",
"472 535 OFFCURVE",
"459 535 CURVE SMOOTH",
"451 535 OFFCURVE",
"442 531 OFFCURVE",
"438 524 CURVE SMOOTH",
"401 467 OFFCURVE",
"342 390 OFFCURVE",
"281 312 CURVE",
"219 390 OFFCURVE",
"158 467 OFFCURVE",
"119 524 CURVE SMOOTH",
"114 531 OFFCURVE",
"106 535 OFFCURVE",
"97 535 CURVE SMOOTH",
"85 535 OFFCURVE",
"73 523 OFFCURVE",
"73 509 CURVE SMOOTH",
"73 505 OFFCURVE",
"74 500 OFFCURVE",
"77 496 CURVE SMOOTH",
"118 436 OFFCURVE",
"183 354 OFFCURVE",
"249 273 CURVE",
"176 182 OFFCURVE",
"105 94 OFFCURVE",
"65 40 CURVE SMOOTH",
"62 36 OFFCURVE",
"60 30 OFFCURVE",
"60 25 CURVE SMOOTH",
"60 12 OFFCURVE",
"71 0 OFFCURVE",
"85 0 CURVE SMOOTH",
"93 0 OFFCURVE",
"100 3 OFFCURVE",
"105 10 CURVE SMOOTH",
"143 61 OFFCURVE",
"211 145 OFFCURVE",
"282 233 CURVE",
"358 139 OFFCURVE",
"430 53 OFFCURVE",
"459 11 CURVE SMOOTH",
"464 4 OFFCURVE",
"471 0 OFFCURVE"
);
}
);
width = 563;
}
);
note = X;
unicode = 0058;
userData = {
com.typemytype.robofont.layerData = {
background = {
anchors = (
);
components = (
);
contours = (
);
lib = {
};
name = X;
unicodes = (
);
width = 563;
};
};
};
},
{
color = 6;
glyphname = Y;
lastChange = "2016-04-29 04:27:07 +0000";
layers = (
{
anchors = (
{
name = top;
position = "{285, 508}";
}
);
layerId = "5A9DA08A-6EB1-451A-A52A-FC81F1DBA669";
paths = (
{
closed = 1;
nodes = (
"282 0 CURVE SMOOTH",
"296 0 OFFCURVE",
"307 11 OFFCURVE",
"307 25 CURVE SMOOTH",
"307 191 LINE",
"358 262 OFFCURVE",
"467 430 OFFCURVE",
"507 497 CURVE SMOOTH",
"509 501 OFFCURVE",
"510 506 OFFCURVE",
"510 510 CURVE SMOOTH",
"510 524 OFFCURVE",
"501 534 OFFCURVE",
"486 534 CURVE SMOOTH",
"477 534 OFFCURVE",
"469 530 OFFCURVE",
"465 523 CURVE SMOOTH",
"429 462 OFFCURVE",
"338 320 OFFCURVE",
"283 242 CURVE",
"231 314 OFFCURVE",
"133 461 OFFCURVE",
"95 523 CURVE SMOOTH",
"91 530 OFFCURVE",
"82 534 OFFCURVE",
"74 534 CURVE SMOOTH",
"58 534 OFFCURVE",
"50 522 OFFCURVE",
"50 510 CURVE SMOOTH",
"50 505 OFFCURVE",
"51 501 OFFCURVE",
"53 497 CURVE SMOOTH",
"94 428 OFFCURVE",
"212 252 OFFCURVE",
"257 193 CURVE",
"257 25 LINE SMOOTH",
"257 12 OFFCURVE",
"269 0 OFFCURVE"
);
}
);
width = 560;
}
);
leftKerningGroup = Y;
note = Y;
rightKerningGroup = Y;
unicode = 0059;
userData = {
com.typemytype.robofont.layerData = {
background = {
anchors = (
);
components = (
);
contours = (
);
lib = {
};
name = Y;
unicodes = (
);
width = 560;
};
};
};
},
{
glyphname = Yacute;
lastChange = "2016-04-29 04:27:07 +0000";
layers = (
{
background = {
paths = (
{
closed = 1;
nodes = (
"417 678 CURVE SMOOTH",
"424 682 OFFCURVE",
"428 690 OFFCURVE",
"428 698 CURVE SMOOTH",
"428 708 OFFCURVE",
"419 719 OFFCURVE",
"405 719 CURVE SMOOTH",
"402 719 OFFCURVE",
"398 718 OFFCURVE",
"395 716 CURVE SMOOTH",
"348 689 OFFCURVE",
"300 657 OFFCURVE",
"270 636 CURVE SMOOTH",
"264 632 OFFCURVE",
"261 625 OFFCURVE",
"261 618 CURVE SMOOTH",
"261 606 OFFCURVE",
"270 596 OFFCURVE",
"283 596 CURVE SMOOTH",
"287 596 OFFCURVE",
"292 597 OFFCURVE",
"296 600 CURVE SMOOTH",
"324 621 OFFCURVE",
"372 651 OFFCURVE"
);
},
{
closed = 1;
nodes = (
"282 0 CURVE SMOOTH",
"296 0 OFFCURVE",
"307 11 OFFCURVE",
"307 25 CURVE SMOOTH",
"307 191 LINE",
"358 262 OFFCURVE",
"467 430 OFFCURVE",
"507 497 CURVE SMOOTH",
"509 501 OFFCURVE",
"510 506 OFFCURVE",
"510 510 CURVE SMOOTH",
"510 524 OFFCURVE",
"501 534 OFFCURVE",
"486 534 CURVE SMOOTH",
"477 534 OFFCURVE",
"469 530 OFFCURVE",
"465 523 CURVE SMOOTH",
"429 462 OFFCURVE",
"338 320 OFFCURVE",
"283 242 CURVE",
"231 314 OFFCURVE",
"133 461 OFFCURVE",
"95 523 CURVE SMOOTH",
"91 530 OFFCURVE",
"82 534 OFFCURVE",
"74 534 CURVE SMOOTH",
"58 534 OFFCURVE",
"50 522 OFFCURVE",
"50 510 CURVE SMOOTH",
"50 505 OFFCURVE",
"51 501 OFFCURVE",
"53 497 CURVE SMOOTH",
"94 428 OFFCURVE",
"212 252 OFFCURVE",
"257 193 CURVE",
"257 25 LINE SMOOTH",
"257 12 OFFCURVE",
"269 0 OFFCURVE"
);
}
);
};
components = (
{
name = Y;
},
{
name = acutecomb.case;
transform = "{1, 0, 0, 1, 285, -27}";
}
);
layerId = "5A9DA08A-6EB1-451A-A52A-FC81F1DBA669";
width = 560;
}
);
leftKerningGroup = Y;
note = Yacute;
rightKerningGroup = Y;
unicode = 00DD;
userData = {
com.typemytype.robofont.layerData = {
background = {
anchors = (
);
components = (
);
contours = (
);
lib = {
};
name = Yacute;
unicodes = (
);
width = 560;
};
};
};
},
{
glyphname = Ydieresis;
lastChange = "2016-04-29 04:27:07 +0000";
layers = (
{
background = {
paths = (
{
closed = 1;
nodes = (
"380 720 CURVE SMOOTH",
"360 720 OFFCURVE",
"341 702 OFFCURVE",
"341 672 CURVE SMOOTH",
"341 640 OFFCURVE",
"360 624 OFFCURVE",
"380 624 CURVE SMOOTH",
"398 624 OFFCURVE",
"418 639 OFFCURVE",
"418 672 CURVE SMOOTH",
"418 703 OFFCURVE",
"398 720 OFFCURVE"
);
},
{
closed = 1;
nodes = (
"187 720 CURVE SMOOTH",
"167 720 OFFCURVE",
"147 701 OFFCURVE",
"147 672 CURVE SMOOTH",
"147 641 OFFCURVE",
"167 624 OFFCURVE",
"187 624 CURVE SMOOTH",
"205 624 OFFCURVE",
"225 639 OFFCURVE",
"225 672 CURVE SMOOTH",
"225 703 OFFCURVE",
"205 720 OFFCURVE"
);
},
{
closed = 1;
nodes = (
"282 0 CURVE SMOOTH",
"296 0 OFFCURVE",
"307 11 OFFCURVE",
"307 25 CURVE SMOOTH",
"307 191 LINE",
"358 262 OFFCURVE",
"467 430 OFFCURVE",
"507 497 CURVE SMOOTH",
"509 501 OFFCURVE",
"510 506 OFFCURVE",
"510 510 CURVE SMOOTH",
"510 524 OFFCURVE",
"501 534 OFFCURVE",
"486 534 CURVE SMOOTH",
"477 534 OFFCURVE",
"469 530 OFFCURVE",
"465 523 CURVE SMOOTH",
"429 462 OFFCURVE",
"338 320 OFFCURVE",
"283 242 CURVE",
"231 314 OFFCURVE",
"133 461 OFFCURVE",
"95 523 CURVE SMOOTH",
"91 530 OFFCURVE",
"82 534 OFFCURVE",
"74 534 CURVE SMOOTH",
"58 534 OFFCURVE",
"50 522 OFFCURVE",
"50 510 CURVE SMOOTH",
"50 505 OFFCURVE",
"51 501 OFFCURVE",
"53 497 CURVE SMOOTH",
"94 428 OFFCURVE",
"212 252 OFFCURVE",
"257 193 CURVE",
"257 25 LINE SMOOTH",
"257 12 OFFCURVE",
"269 0 OFFCURVE"
);
}
);
};
components = (
{
name = Y;
},
{
name = dieresiscomb.case;
transform = "{1, 0, 0, 1, 285, -27}";
}
);
layerId = "5A9DA08A-6EB1-451A-A52A-FC81F1DBA669";
width = 560;
}
);
leftKerningGroup = Y;
note = Ydieresis;
rightKerningGroup = Y;
unicode = 0178;
userData = {
com.typemytype.robofont.layerData = {
background = {
anchors = (
);
components = (
);
contours = (
);
lib = {
};
name = Ydieresis;
unicodes = (
);
width = 560;
};
};
};
},
{
color = 6;
glyphname = Z;
lastChange = "2016-04-29 04:27:07 +0000";
layers = (
{
anchors = (
{
name = top;
position = "{289, 535}";
}
);
layerId = "5A9DA08A-6EB1-451A-A52A-FC81F1DBA669";
paths = (
{
closed = 1;
nodes = (
"89 0 CURVE SMOOTH",
"474 0 LINE SMOOTH",
"488 0 OFFCURVE",
"499 12 OFFCURVE",
"499 25 CURVE SMOOTH",
"499 39 OFFCURVE",
"488 50 OFFCURVE",
"474 50 CURVE SMOOTH",
"136 50 LINE",
"216 159 OFFCURVE",
"426 411 OFFCURVE",
"483 496 CURVE SMOOTH",
"486 500 OFFCURVE",
"487 505 OFFCURVE",
"487 509 CURVE SMOOTH",
"487 523 OFFCURVE",
"476 535 OFFCURVE",
"463 535 CURVE SMOOTH",
"102 535 LINE SMOOTH",
"89 535 OFFCURVE",
"77 524 OFFCURVE",
"77 510 CURVE SMOOTH",
"77 497 OFFCURVE",
"89 485 OFFCURVE",
"102 485 CURVE SMOOTH",
"413 485 LINE",
"324 365 OFFCURVE",
"119 120 OFFCURVE",
"72 47 CURVE SMOOTH",
"69 43 OFFCURVE",
"64 34 OFFCURVE",
"64 25 CURVE SMOOTH",
"64 12 OFFCURVE",
"76 0 OFFCURVE"
);
}
);
width = 563;
}
);
leftKerningGroup = Z;
note = Z;
rightKerningGroup = Z;
unicode = 005A;
userData = {
com.typemytype.robofont.layerData = {
background = {
anchors = (
);
components = (
);
contours = (
);
lib = {
};
name = Z;
unicodes = (
);
width = 563;
};
};
};
},
{
glyphname = Zacute;
lastChange = "2016-04-29 04:27:07 +0000";
layers = (
{
background = {
paths = (
{
closed = 1;
nodes = (
"420 708 CURVE SMOOTH",
"427 712 OFFCURVE",
"431 720 OFFCURVE",
"431 728 CURVE SMOOTH",
"431 738 OFFCURVE",
"422 749 OFFCURVE",
"408 749 CURVE SMOOTH",
"405 749 OFFCURVE",
"401 748 OFFCURVE",
"398 746 CURVE SMOOTH",
"351 719 OFFCURVE",
"303 687 OFFCURVE",
"273 666 CURVE SMOOTH",
"267 662 OFFCURVE",
"264 655 OFFCURVE",
"264 648 CURVE SMOOTH",
"264 636 OFFCURVE",
"273 626 OFFCURVE",
"286 626 CURVE SMOOTH",
"290 626 OFFCURVE",
"295 627 OFFCURVE",
"299 630 CURVE SMOOTH",
"327 651 OFFCURVE",
"375 681 OFFCURVE"
);
},
{
closed = 1;
nodes = (
"89 0 CURVE SMOOTH",
"474 0 LINE SMOOTH",
"488 0 OFFCURVE",
"499 12 OFFCURVE",
"499 25 CURVE SMOOTH",
"499 39 OFFCURVE",
"488 50 OFFCURVE",
"474 50 CURVE SMOOTH",
"136 50 LINE",
"216 159 OFFCURVE",
"426 411 OFFCURVE",
"483 496 CURVE SMOOTH",
"486 500 OFFCURVE",
"487 505 OFFCURVE",
"487 509 CURVE SMOOTH",
"487 523 OFFCURVE",
"476 535 OFFCURVE",
"463 535 CURVE SMOOTH",
"102 535 LINE SMOOTH",
"89 535 OFFCURVE",
"77 524 OFFCURVE",
"77 510 CURVE SMOOTH",
"77 497 OFFCURVE",
"89 485 OFFCURVE",
"102 485 CURVE SMOOTH",
"413 485 LINE",
"324 365 OFFCURVE",
"119 120 OFFCURVE",
"72 47 CURVE SMOOTH",
"69 43 OFFCURVE",
"64 34 OFFCURVE",
"64 25 CURVE SMOOTH",
"64 12 OFFCURVE",
"76 0 OFFCURVE"
);
}
);
};
components = (
{
name = Z;
},
{
name = acutecomb.case;
transform = "{1, 0, 0, 1, 289, 0}";
}
);
layerId = "5A9DA08A-6EB1-451A-A52A-FC81F1DBA669";
width = 563;
}
);
leftKerningGroup = Z;
note = Zacute;
rightKerningGroup = Z;
unicode = 0179;
userData = {
com.typemytype.robofont.layerData = {
background = {
anchors = (
);
components = (
);
contours = (
);
lib = {
};
name = Zacute;
unicodes = (
);
width = 563;
};
};
};
},
{
glyphname = Zcaron;
lastChange = "2016-04-29 04:27:07 +0000";
layers = (
{
background = {
paths = (
{
closed = 1;
nodes = (
"297 633 OFFCURVE",
"302 635 OFFCURVE",
"306 638 CURVE SMOOTH",
"339 662 OFFCURVE",
"374 686 OFFCURVE",
"402 707 CURVE SMOOTH",
"408 712 OFFCURVE",
"411 719 OFFCURVE",
"411 726 CURVE SMOOTH",
"411 737 OFFCURVE",
"401 747 OFFCURVE",
"388 747 CURVE SMOOTH",
"384 747 OFFCURVE",
"380 746 OFFCURVE",
"376 743 CURVE SMOOTH",
"351 724 OFFCURVE",
"320 703 OFFCURVE",
"289 681 CURVE",
"259 703 OFFCURVE",
"228 724 OFFCURVE",
"203 743 CURVE SMOOTH",
"199 746 OFFCURVE",
"195 747 OFFCURVE",
"191 747 CURVE SMOOTH",
"177 747 OFFCURVE",
"168 737 OFFCURVE",
"168 726 CURVE SMOOTH",
"168 719 OFFCURVE",
"171 712 OFFCURVE",
"177 707 CURVE SMOOTH",
"205 686 OFFCURVE",
"239 662 OFFCURVE",
"273 638 CURVE SMOOTH",
"277 635 OFFCURVE",
"282 633 OFFCURVE",
"288 633 CURVE SMOOTH",
"292 633 LINE SMOOTH"
);
},
{
closed = 1;
nodes = (
"89 0 CURVE SMOOTH",
"474 0 LINE SMOOTH",
"488 0 OFFCURVE",
"499 12 OFFCURVE",
"499 25 CURVE SMOOTH",
"499 39 OFFCURVE",
"488 50 OFFCURVE",
"474 50 CURVE SMOOTH",
"136 50 LINE",
"216 159 OFFCURVE",
"426 411 OFFCURVE",
"483 496 CURVE SMOOTH",
"486 500 OFFCURVE",
"487 505 OFFCURVE",
"487 509 CURVE SMOOTH",
"487 523 OFFCURVE",
"476 535 OFFCURVE",
"463 535 CURVE SMOOTH",
"102 535 LINE SMOOTH",
"89 535 OFFCURVE",
"77 524 OFFCURVE",
"77 510 CURVE SMOOTH",
"77 497 OFFCURVE",
"89 485 OFFCURVE",
"102 485 CURVE SMOOTH",
"413 485 LINE",
"324 365 OFFCURVE",
"119 120 OFFCURVE",
"72 47 CURVE SMOOTH",
"69 43 OFFCURVE",
"64 34 OFFCURVE",
"64 25 CURVE SMOOTH",
"64 12 OFFCURVE",
"76 0 OFFCURVE"
);
}
);
};
components = (
{
name = Z;
},
{
name = caroncomb.case;
transform = "{1, 0, 0, 1, 289, 0}";
}
);
layerId = "5A9DA08A-6EB1-451A-A52A-FC81F1DBA669";
width = 563;
}
);
leftKerningGroup = Z;
note = Zcaron;
rightKerningGroup = Z;
unicode = 017D;
userData = {
com.typemytype.robofont.layerData = {
background = {
anchors = (
);
components = (
);
contours = (
);
lib = {
};
name = Zcaron;
unicodes = (
);
width = 563;
};
};
};
},
{
glyphname = Zdotaccent;
lastChange = "2016-04-29 04:27:07 +0000";
layers = (
{
background = {
paths = (
{
closed = 1;
nodes = (
"285 739 CURVE SMOOTH",
"262 739 OFFCURVE",
"242 718 OFFCURVE",
"242 689 CURVE SMOOTH",
"242 662 OFFCURVE",
"261 642 OFFCURVE",
"285 642 CURVE SMOOTH",
"306 642 OFFCURVE",
"325 660 OFFCURVE",
"325 689 CURVE SMOOTH",
"325 720 OFFCURVE",
"305 739 OFFCURVE"
);
},
{
closed = 1;
nodes = (
"89 0 CURVE SMOOTH",
"474 0 LINE SMOOTH",
"488 0 OFFCURVE",
"499 12 OFFCURVE",
"499 25 CURVE SMOOTH",
"499 39 OFFCURVE",
"488 50 OFFCURVE",
"474 50 CURVE SMOOTH",
"136 50 LINE",
"216 159 OFFCURVE",
"426 411 OFFCURVE",
"483 496 CURVE SMOOTH",
"486 500 OFFCURVE",
"487 505 OFFCURVE",
"487 509 CURVE SMOOTH",
"487 523 OFFCURVE",
"476 535 OFFCURVE",
"463 535 CURVE SMOOTH",
"102 535 LINE SMOOTH",
"89 535 OFFCURVE",
"77 524 OFFCURVE",
"77 510 CURVE SMOOTH",
"77 497 OFFCURVE",
"89 485 OFFCURVE",
"102 485 CURVE SMOOTH",
"413 485 LINE",
"324 365 OFFCURVE",
"119 120 OFFCURVE",
"72 47 CURVE SMOOTH",
"69 43 OFFCURVE",
"64 34 OFFCURVE",
"64 25 CURVE SMOOTH",
"64 12 OFFCURVE",
"76 0 OFFCURVE"
);
}
);
};
components = (
{
name = Z;
},
{
name = dotaccentcomb.case;
transform = "{1, 0, 0, 1, 289, 0}";
}
);
layerId = "5A9DA08A-6EB1-451A-A52A-FC81F1DBA669";
width = 563;
}
);
leftKerningGroup = Z;
note = Zdotaccent;
rightKerningGroup = Z;
unicode = 017B;
userData = {
com.typemytype.robofont.layerData = {
background = {
anchors = (
);
components = (
);
contours = (
);
lib = {
};
name = Zdotaccent;
unicodes = (
);
width = 563;
};
};
};
},
{
color = 6;
glyphname = a;
lastChange = "2016-04-29 04:27:07 +0000";
layers = (
{
anchors = (
{
name = top;
position = "{215, 392}";
}
);
layerId = "5A9DA08A-6EB1-451A-A52A-FC81F1DBA669";
paths = (
{
closed = 1;
nodes = (
"172 50 CURVE SMOOTH",
"123 50 OFFCURVE",
"100 79 OFFCURVE",
"100 106 CURVE SMOOTH",
"100 124 OFFCURVE",
"105 142 OFFCURVE",
"121 158 CURVE SMOOTH",
"146 183 OFFCURVE",
"191 197 OFFCURVE",
"255 197 CURVE SMOOTH",
"277 197 OFFCURVE",
"299 196 OFFCURVE",
"324 194 CURVE",
"324 129 LINE",
"282 75 OFFCURVE",
"229 50 OFFCURVE"
);
},
{
closed = 1;
nodes = (
"368 9 CURVE SMOOTH",
"373 4 OFFCURVE",
"379 1 OFFCURVE",
"386 1 CURVE SMOOTH",
"399 1 OFFCURVE",
"411 12 OFFCURVE",
"411 26 CURVE SMOOTH",
"411 32 OFFCURVE",
"409 38 OFFCURVE",
"404 43 CURVE SMOOTH",
"384 65 OFFCURVE",
"374 93 OFFCURVE",
"374 139 CURVE SMOOTH",
"374 230 LINE SMOOTH",
"374 326 OFFCURVE",
"324 392 OFFCURVE",
"215 392 CURVE SMOOTH",
"179 392 OFFCURVE",
"137 382 OFFCURVE",
"114 375 CURVE SMOOTH",
"103 371 OFFCURVE",
"97 361 OFFCURVE",
"97 350 CURVE SMOOTH",
"97 338 OFFCURVE",
"110 326 OFFCURVE",
"123 326 CURVE SMOOTH",
"126 326 OFFCURVE",
"134 328 OFFCURVE",
"142 331 CURVE SMOOTH",
"157 336 OFFCURVE",
"188 342 OFFCURVE",
"215 342 CURVE SMOOTH",
"284 342 OFFCURVE",
"318 304 OFFCURVE",
"323 244 CURVE",
"299 246 OFFCURVE",
"277 247 OFFCURVE",
"255 247 CURVE SMOOTH",
"173 247 OFFCURVE",
"118 223 OFFCURVE",
"85 192 CURVE SMOOTH",
"61 169 OFFCURVE",
"50 138 OFFCURVE",
"50 106 CURVE SMOOTH",
"50 61 OFFCURVE",
"79 0 OFFCURVE",
"172 0 CURVE SMOOTH",
"234 0 OFFCURVE",
"289 24 OFFCURVE",
"334 67 CURVE",
"342 44 OFFCURVE",
"353 25 OFFCURVE"
);
}
);
width = 450;
}
);
leftKerningGroup = a;
note = a;
rightKerningGroup = a;
unicode = 0061;
userData = {
com.typemytype.robofont.layerData = {
background = {
anchors = (
);
components = (
);
contours = (
);
lib = {
};
name = a;
unicodes = (
);
width = 450;
};
};
};
},
{
glyphname = aacute;
lastChange = "2016-04-29 04:27:07 +0000";
layers = (
{
background = {
paths = (
{
closed = 1;
nodes = (
"311 584 CURVE SMOOTH",
"315 588 OFFCURVE",
"317 594 OFFCURVE",
"317 599 CURVE SMOOTH",
"317 610 OFFCURVE",
"306 621 OFFCURVE",
"295 621 CURVE SMOOTH",
"289 621 OFFCURVE",
"283 619 OFFCURVE",
"279 614 CURVE SMOOTH",
"250 583 OFFCURVE",
"223 550 OFFCURVE",
"197 519 CURVE SMOOTH",
"194 515 OFFCURVE",
"192 510 OFFCURVE",
"192 505 CURVE SMOOTH",
"192 495 OFFCURVE",
"202 483 OFFCURVE",
"214 483 CURVE SMOOTH",
"220 483 OFFCURVE",
"227 486 OFFCURVE",
"231 491 CURVE SMOOTH",
"257 522 OFFCURVE",
"284 553 OFFCURVE"
);
},
{
closed = 1;
nodes = (
"172 50 CURVE SMOOTH",
"123 50 OFFCURVE",
"100 79 OFFCURVE",
"100 106 CURVE SMOOTH",
"100 124 OFFCURVE",
"105 140 OFFCURVE",
"121 156 CURVE SMOOTH",
"148 183 OFFCURVE",
"191 197 OFFCURVE",
"255 197 CURVE SMOOTH",
"277 197 OFFCURVE",
"299 196 OFFCURVE",
"324 194 CURVE",
"324 129 LINE",
"282 75 OFFCURVE",
"236 50 OFFCURVE"
);
},
{
closed = 1;
nodes = (
"368 9 CURVE SMOOTH",
"373 4 OFFCURVE",
"379 1 OFFCURVE",
"386 1 CURVE SMOOTH",
"399 1 OFFCURVE",
"411 12 OFFCURVE",
"411 26 CURVE SMOOTH",
"411 32 OFFCURVE",
"409 38 OFFCURVE",
"404 43 CURVE SMOOTH",
"384 65 OFFCURVE",
"374 93 OFFCURVE",
"374 139 CURVE SMOOTH",
"374 230 LINE SMOOTH",
"374 326 OFFCURVE",
"324 392 OFFCURVE",
"215 392 CURVE SMOOTH",
"179 392 OFFCURVE",
"137 382 OFFCURVE",
"114 375 CURVE SMOOTH",
"103 371 OFFCURVE",
"97 361 OFFCURVE",
"97 350 CURVE SMOOTH",
"97 338 OFFCURVE",
"110 326 OFFCURVE",
"123 326 CURVE SMOOTH",
"126 326 OFFCURVE",
"134 328 OFFCURVE",
"142 331 CURVE SMOOTH",
"157 336 OFFCURVE",
"188 342 OFFCURVE",
"215 342 CURVE SMOOTH",
"284 342 OFFCURVE",
"318 304 OFFCURVE",
"323 244 CURVE",
"299 246 OFFCURVE",
"277 247 OFFCURVE",
"255 247 CURVE SMOOTH",
"173 247 OFFCURVE",
"119 225 OFFCURVE",
"85 192 CURVE SMOOTH",
"59 167 OFFCURVE",
"50 138 OFFCURVE",
"50 106 CURVE SMOOTH",
"50 61 OFFCURVE",
"79 0 OFFCURVE",
"172 0 CURVE SMOOTH",
"237 0 OFFCURVE",
"289 21 OFFCURVE",
"334 65 CURVE",
"342 42 OFFCURVE",
"353 25 OFFCURVE"
);
}
);
};
components = (
{
name = a;
},
{
name = acutecomb;
transform = "{1, 0, 0, 1, 215, 0}";
}
);
layerId = "5A9DA08A-6EB1-451A-A52A-FC81F1DBA669";
width = 450;
}
);
leftKerningGroup = a;
note = aacute;
rightKerningGroup = a;
unicode = 00E1;
userData = {
com.typemytype.robofont.layerData = {
background = {
anchors = (
);
components = (
);
contours = (
);
lib = {
};
name = aacute;
unicodes = (
);
width = 450;
};
};
};
},
{
glyphname = abreve;
lastChange = "2016-04-29 04:27:07 +0000";
layers = (
{
background = {
paths = (
{
closed = 1;
nodes = (
"146 591 CURVE SMOOTH",
"142 597 OFFCURVE",
"135 601 OFFCURVE",
"128 601 CURVE SMOOTH",
"116 601 OFFCURVE",
"106 591 OFFCURVE",
"106 579 CURVE SMOOTH",
"106 575 OFFCURVE",
"107 571 OFFCURVE",
"110 567 CURVE SMOOTH",
"138 524 OFFCURVE",
"181 496 OFFCURVE",
"230 496 CURVE SMOOTH",
"285 496 OFFCURVE",
"320 523 OFFCURVE",
"348 567 CURVE SMOOTH",
"350 570 OFFCURVE",
"351 574 OFFCURVE",
"351 578 CURVE SMOOTH",
"351 591 OFFCURVE",
"343 601 OFFCURVE",
"330 601 CURVE SMOOTH",
"322 601 OFFCURVE",
"315 598 OFFCURVE",
"310 591 CURVE SMOOTH",
"292 561 OFFCURVE",
"269 540 OFFCURVE",
"230 540 CURVE SMOOTH",
"195 540 OFFCURVE",
"166 562 OFFCURVE"
);
},
{
closed = 1;
nodes = (
"172 50 CURVE SMOOTH",
"123 50 OFFCURVE",
"100 79 OFFCURVE",
"100 106 CURVE SMOOTH",
"100 124 OFFCURVE",
"105 140 OFFCURVE",
"121 156 CURVE SMOOTH",
"148 183 OFFCURVE",
"191 197 OFFCURVE",
"255 197 CURVE SMOOTH",
"277 197 OFFCURVE",
"299 196 OFFCURVE",
"324 194 CURVE",
"324 129 LINE",
"282 75 OFFCURVE",
"236 50 OFFCURVE"
);
},
{
closed = 1;
nodes = (
"368 9 CURVE SMOOTH",
"373 4 OFFCURVE",
"379 1 OFFCURVE",
"386 1 CURVE SMOOTH",
"399 1 OFFCURVE",
"411 12 OFFCURVE",
"411 26 CURVE SMOOTH",
"411 32 OFFCURVE",
"409 38 OFFCURVE",
"404 43 CURVE SMOOTH",
"384 65 OFFCURVE",
"374 93 OFFCURVE",
"374 139 CURVE SMOOTH",
"374 230 LINE SMOOTH",
"374 326 OFFCURVE",
"324 392 OFFCURVE",
"215 392 CURVE SMOOTH",
"179 392 OFFCURVE",
"137 382 OFFCURVE",
"114 375 CURVE SMOOTH",
"103 371 OFFCURVE",
"97 361 OFFCURVE",
"97 350 CURVE SMOOTH",
"97 338 OFFCURVE",
"110 326 OFFCURVE",
"123 326 CURVE SMOOTH",
"126 326 OFFCURVE",
"134 328 OFFCURVE",
"142 331 CURVE SMOOTH",
"157 336 OFFCURVE",
"188 342 OFFCURVE",
"215 342 CURVE SMOOTH",
"284 342 OFFCURVE",
"318 304 OFFCURVE",
"323 244 CURVE",
"299 246 OFFCURVE",
"277 247 OFFCURVE",
"255 247 CURVE SMOOTH",
"173 247 OFFCURVE",
"119 225 OFFCURVE",
"85 192 CURVE SMOOTH",
"59 167 OFFCURVE",
"50 138 OFFCURVE",
"50 106 CURVE SMOOTH",
"50 61 OFFCURVE",
"79 0 OFFCURVE",
"172 0 CURVE SMOOTH",
"237 0 OFFCURVE",
"289 21 OFFCURVE",
"334 65 CURVE",
"342 42 OFFCURVE",
"353 25 OFFCURVE"
);
}
);
};
components = (
{
name = a;
},
{
name = brevecomb;
transform = "{1, 0, 0, 1, 215, 0}";
}
);
layerId = "5A9DA08A-6EB1-451A-A52A-FC81F1DBA669";
width = 450;
}
);
leftKerningGroup = a;
note = abreve;
rightKerningGroup = a;
unicode = 0103;
userData = {
com.typemytype.robofont.layerData = {
background = {
anchors = (
);
components = (
);
contours = (
);
lib = {
};
name = abreve;
unicodes = (
);
width = 450;
};
};
};
},
{
glyphname = acircumflex;
lastChange = "2016-04-29 04:27:07 +0000";
layers = (
{
background = {
paths = (
{
closed = 1;
nodes = (
"307 486 CURVE SMOOTH",
"320 486 OFFCURVE",
"329 496 OFFCURVE",
"329 508 CURVE SMOOTH",
"329 514 OFFCURVE",
"327 520 OFFCURVE",
"323 524 CURVE SMOOTH",
"296 550 OFFCURVE",
"265 581 OFFCURVE",
"234 611 CURVE SMOOTH",
"230 615 OFFCURVE",
"225 617 OFFCURVE",
"219 617 CURVE SMOOTH",
"213 617 LINE SMOOTH",
"207 617 OFFCURVE",
"202 615 OFFCURVE",
"197 611 CURVE SMOOTH",
"167 581 OFFCURVE",
"135 550 OFFCURVE",
"109 524 CURVE SMOOTH",
"105 520 OFFCURVE",
"103 514 OFFCURVE",
"103 508 CURVE SMOOTH",
"103 496 OFFCURVE",
"113 486 OFFCURVE",
"125 486 CURVE SMOOTH",
"131 486 OFFCURVE",
"137 488 OFFCURVE",
"141 492 CURVE SMOOTH",
"163 514 OFFCURVE",
"190 541 OFFCURVE",
"217 567 CURVE",
"243 541 OFFCURVE",
"269 514 OFFCURVE",
"291 492 CURVE SMOOTH",
"296 488 OFFCURVE",
"301 486 OFFCURVE"
);
},
{
closed = 1;
nodes = (
"172 50 CURVE SMOOTH",
"123 50 OFFCURVE",
"100 79 OFFCURVE",
"100 106 CURVE SMOOTH",
"100 124 OFFCURVE",
"105 140 OFFCURVE",
"121 156 CURVE SMOOTH",
"148 183 OFFCURVE",
"191 197 OFFCURVE",
"255 197 CURVE SMOOTH",
"277 197 OFFCURVE",
"299 196 OFFCURVE",
"324 194 CURVE",
"324 129 LINE",
"282 75 OFFCURVE",
"236 50 OFFCURVE"
);
},
{
closed = 1;
nodes = (
"368 9 CURVE SMOOTH",
"373 4 OFFCURVE",
"379 1 OFFCURVE",
"386 1 CURVE SMOOTH",
"399 1 OFFCURVE",
"411 12 OFFCURVE",
"411 26 CURVE SMOOTH",
"411 32 OFFCURVE",
"409 38 OFFCURVE",
"404 43 CURVE SMOOTH",
"384 65 OFFCURVE",
"374 93 OFFCURVE",
"374 139 CURVE SMOOTH",
"374 230 LINE SMOOTH",
"374 326 OFFCURVE",
"324 392 OFFCURVE",
"215 392 CURVE SMOOTH",
"179 392 OFFCURVE",
"137 382 OFFCURVE",
"114 375 CURVE SMOOTH",
"103 371 OFFCURVE",
"97 361 OFFCURVE",
"97 350 CURVE SMOOTH",
"97 338 OFFCURVE",
"110 326 OFFCURVE",
"123 326 CURVE SMOOTH",
"126 326 OFFCURVE",
"134 328 OFFCURVE",
"142 331 CURVE SMOOTH",
"157 336 OFFCURVE",
"188 342 OFFCURVE",
"215 342 CURVE SMOOTH",
"284 342 OFFCURVE",
"318 304 OFFCURVE",
"323 244 CURVE",
"299 246 OFFCURVE",
"277 247 OFFCURVE",
"255 247 CURVE SMOOTH",
"173 247 OFFCURVE",
"119 225 OFFCURVE",
"85 192 CURVE SMOOTH",
"59 167 OFFCURVE",
"50 138 OFFCURVE",
"50 106 CURVE SMOOTH",
"50 61 OFFCURVE",
"79 0 OFFCURVE",
"172 0 CURVE SMOOTH",
"237 0 OFFCURVE",
"289 21 OFFCURVE",
"334 65 CURVE",
"342 42 OFFCURVE",
"353 25 OFFCURVE"
);
}
);
};
components = (
{
name = a;
},
{
name = circumflexcomb;
transform = "{1, 0, 0, 1, 215, 0}";
}
);
layerId = "5A9DA08A-6EB1-451A-A52A-FC81F1DBA669";
width = 450;
}
);
leftKerningGroup = a;
note = acircumflex;
rightKerningGroup = a;
unicode = 00E2;
userData = {
com.typemytype.robofont.layerData = {
background = {
anchors = (
);
components = (
);
contours = (
);
lib = {
};
name = acircumflex;
unicodes = (
);
width = 450;
};
};
};
},
{
glyphname = adieresis;
lastChange = "2016-04-29 04:27:07 +0000";
layers = (
{
background = {
paths = (
{
closed = 1;
nodes = (
"306 497 CURVE SMOOTH",
"325 497 OFFCURVE",
"344 512 OFFCURVE",
"344 543 CURVE SMOOTH",
"344 574 OFFCURVE",
"324 591 OFFCURVE",
"306 591 CURVE SMOOTH",
"286 591 OFFCURVE",
"267 573 OFFCURVE",
"267 543 CURVE SMOOTH",
"267 513 OFFCURVE",
"285 497 OFFCURVE"
);
},
{
closed = 1;
nodes = (
"128 497 CURVE SMOOTH",
"147 497 OFFCURVE",
"166 512 OFFCURVE",
"166 543 CURVE SMOOTH",
"166 574 OFFCURVE",
"146 591 OFFCURVE",
"128 591 CURVE SMOOTH",
"108 591 OFFCURVE",
"89 573 OFFCURVE",
"89 543 CURVE SMOOTH",
"89 513 OFFCURVE",
"107 497 OFFCURVE"
);
},
{
closed = 1;
nodes = (
"172 50 CURVE SMOOTH",
"123 50 OFFCURVE",
"100 79 OFFCURVE",
"100 106 CURVE SMOOTH",
"100 124 OFFCURVE",
"105 140 OFFCURVE",
"121 156 CURVE SMOOTH",
"148 183 OFFCURVE",
"191 197 OFFCURVE",
"255 197 CURVE SMOOTH",
"277 197 OFFCURVE",
"299 196 OFFCURVE",
"324 194 CURVE",
"324 129 LINE",
"282 75 OFFCURVE",
"236 50 OFFCURVE"
);
},
{
closed = 1;
nodes = (
"368 9 CURVE SMOOTH",
"373 4 OFFCURVE",
"379 1 OFFCURVE",
"386 1 CURVE SMOOTH",
"399 1 OFFCURVE",
"411 12 OFFCURVE",
"411 26 CURVE SMOOTH",
"411 32 OFFCURVE",
"409 38 OFFCURVE",
"404 43 CURVE SMOOTH",
"384 65 OFFCURVE",
"374 93 OFFCURVE",
"374 139 CURVE SMOOTH",
"374 230 LINE SMOOTH",
"374 326 OFFCURVE",
"324 392 OFFCURVE",
"215 392 CURVE SMOOTH",
"179 392 OFFCURVE",
"137 382 OFFCURVE",
"114 375 CURVE SMOOTH",
"103 371 OFFCURVE",
"97 361 OFFCURVE",
"97 350 CURVE SMOOTH",
"97 338 OFFCURVE",
"110 326 OFFCURVE",
"123 326 CURVE SMOOTH",
"126 326 OFFCURVE",
"134 328 OFFCURVE",
"142 331 CURVE SMOOTH",
"157 336 OFFCURVE",
"188 342 OFFCURVE",
"215 342 CURVE SMOOTH",
"284 342 OFFCURVE",
"318 304 OFFCURVE",
"323 244 CURVE",
"299 246 OFFCURVE",
"277 247 OFFCURVE",
"255 247 CURVE SMOOTH",
"173 247 OFFCURVE",
"119 225 OFFCURVE",
"85 192 CURVE SMOOTH",
"59 167 OFFCURVE",
"50 138 OFFCURVE",
"50 106 CURVE SMOOTH",
"50 61 OFFCURVE",
"79 0 OFFCURVE",
"172 0 CURVE SMOOTH",
"237 0 OFFCURVE",
"289 21 OFFCURVE",
"334 65 CURVE",
"342 42 OFFCURVE",
"353 25 OFFCURVE"
);
}
);
};
components = (
{
name = a;
},
{
name = dieresiscomb;
transform = "{1, 0, 0, 1, 215, 0}";
}
);
layerId = "5A9DA08A-6EB1-451A-A52A-FC81F1DBA669";
width = 450;
}
);
leftKerningGroup = a;
note = adieresis;
rightKerningGroup = a;
unicode = 00E4;
userData = {
com.typemytype.robofont.layerData = {
background = {
anchors = (
);
components = (
);
contours = (
);
lib = {
};
name = adieresis;
unicodes = (
);
width = 450;
};
};
};
},
{
glyphname = agrave;
lastChange = "2016-04-29 04:27:07 +0000";
layers = (
{
background = {
paths = (
{
closed = 1;
nodes = (
"160 611 CURVE SMOOTH",
"156 617 OFFCURVE",
"149 620 OFFCURVE",
"143 620 CURVE SMOOTH",
"131 620 OFFCURVE",
"121 608 OFFCURVE",
"121 598 CURVE SMOOTH",
"121 593 OFFCURVE",
"123 589 OFFCURVE",
"126 585 CURVE SMOOTH",
"152 550 OFFCURVE",
"169 529 OFFCURVE",
"193 491 CURVE SMOOTH",
"198 484 OFFCURVE",
"205 481 OFFCURVE",
"213 481 CURVE SMOOTH",
"225 481 OFFCURVE",
"234 493 OFFCURVE",
"234 504 CURVE SMOOTH",
"234 508 OFFCURVE",
"233 512 OFFCURVE",
"231 515 CURVE SMOOTH",
"205 555 OFFCURVE",
"188 576 OFFCURVE"
);
},
{
closed = 1;
nodes = (
"172 50 CURVE SMOOTH",
"123 50 OFFCURVE",
"100 79 OFFCURVE",
"100 106 CURVE SMOOTH",
"100 124 OFFCURVE",
"105 140 OFFCURVE",
"121 156 CURVE SMOOTH",
"148 183 OFFCURVE",
"191 197 OFFCURVE",
"255 197 CURVE SMOOTH",
"277 197 OFFCURVE",
"299 196 OFFCURVE",
"324 194 CURVE",
"324 129 LINE",
"282 75 OFFCURVE",
"236 50 OFFCURVE"
);
},
{
closed = 1;
nodes = (
"368 9 CURVE SMOOTH",
"373 4 OFFCURVE",
"379 1 OFFCURVE",
"386 1 CURVE SMOOTH",
"399 1 OFFCURVE",
"411 12 OFFCURVE",
"411 26 CURVE SMOOTH",
"411 32 OFFCURVE",
"409 38 OFFCURVE",
"404 43 CURVE SMOOTH",
"384 65 OFFCURVE",
"374 93 OFFCURVE",
"374 139 CURVE SMOOTH",
"374 230 LINE SMOOTH",
"374 326 OFFCURVE",
"324 392 OFFCURVE",
"215 392 CURVE SMOOTH",
"179 392 OFFCURVE",
"137 382 OFFCURVE",
"114 375 CURVE SMOOTH",
"103 371 OFFCURVE",
"97 361 OFFCURVE",
"97 350 CURVE SMOOTH",
"97 338 OFFCURVE",
"110 326 OFFCURVE",
"123 326 CURVE SMOOTH",
"126 326 OFFCURVE",
"134 328 OFFCURVE",
"142 331 CURVE SMOOTH",
"157 336 OFFCURVE",
"188 342 OFFCURVE",
"215 342 CURVE SMOOTH",
"284 342 OFFCURVE",
"318 304 OFFCURVE",
"323 244 CURVE",
"299 246 OFFCURVE",
"277 247 OFFCURVE",
"255 247 CURVE SMOOTH",
"173 247 OFFCURVE",
"119 225 OFFCURVE",
"85 192 CURVE SMOOTH",
"59 167 OFFCURVE",
"50 138 OFFCURVE",
"50 106 CURVE SMOOTH",
"50 61 OFFCURVE",
"79 0 OFFCURVE",
"172 0 CURVE SMOOTH",
"237 0 OFFCURVE",
"289 21 OFFCURVE",
"334 65 CURVE",
"342 42 OFFCURVE",
"353 25 OFFCURVE"
);
}
);
};
components = (
{
name = a;
},
{
name = gravecomb;
transform = "{1, 0, 0, 1, 215, 0}";
}
);
layerId = "5A9DA08A-6EB1-451A-A52A-FC81F1DBA669";
width = 450;
}
);
leftKerningGroup = a;
note = agrave;
rightKerningGroup = a;
unicode = 00E0;
userData = {
com.typemytype.robofont.layerData = {
background = {
anchors = (
);
components = (
);
contours = (
);
lib = {
};
name = agrave;
unicodes = (
);
width = 450;
};
};
};
},
{
glyphname = aogonek;
lastChange = "2016-04-29 04:27:07 +0000";
layers = (
{
layerId = "5A9DA08A-6EB1-451A-A52A-FC81F1DBA669";
paths = (
{
closed = 1;
nodes = (
"408 -221 CURVE SMOOTH",
"420 -221 OFFCURVE",
"430 -211 OFFCURVE",
"430 -199 CURVE SMOOTH",
"430 -187 OFFCURVE",
"420 -177 OFFCURVE",
"408 -177 CURVE SMOOTH",
"359 -177 OFFCURVE",
"312 -167 OFFCURVE",
"312 -139 CURVE SMOOTH",
"312 -115 OFFCURVE",
"330 -95 OFFCURVE",
"407 -31 CURVE SMOOTH",
"415 -24 OFFCURVE",
"423 -15 OFFCURVE",
"423 -3 CURVE SMOOTH",
"423 9 LINE SMOOTH",
"423 20 OFFCURVE",
"417 29 OFFCURVE",
"404 43 CURVE SMOOTH",
"384 65 OFFCURVE",
"374 93 OFFCURVE",
"374 139 CURVE SMOOTH",
"374 230 LINE SMOOTH",
"374 326 OFFCURVE",
"324 392 OFFCURVE",
"215 392 CURVE SMOOTH",
"179 392 OFFCURVE",
"137 382 OFFCURVE",
"114 375 CURVE SMOOTH",
"103 371 OFFCURVE",
"97 361 OFFCURVE",
"97 350 CURVE SMOOTH",
"97 338 OFFCURVE",
"110 326 OFFCURVE",
"123 326 CURVE SMOOTH",
"126 326 OFFCURVE",
"134 328 OFFCURVE",
"142 331 CURVE SMOOTH",
"157 336 OFFCURVE",
"188 342 OFFCURVE",
"215 342 CURVE SMOOTH",
"284 342 OFFCURVE",
"318 304 OFFCURVE",
"323 244 CURVE",
"299 246 OFFCURVE",
"277 247 OFFCURVE",
"255 247 CURVE SMOOTH",
"173 247 OFFCURVE",
"119 225 OFFCURVE",
"85 192 CURVE SMOOTH",
"59 167 OFFCURVE",
"50 138 OFFCURVE",
"50 106 CURVE SMOOTH",
"50 61 OFFCURVE",
"79 0 OFFCURVE",
"172 0 CURVE SMOOTH",
"237 0 OFFCURVE",
"289 21 OFFCURVE",
"334 65 CURVE",
"342 42 OFFCURVE",
"353 25 OFFCURVE",
"368 9 CURVE SMOOTH",
"371 6 OFFCURVE",
"374 4 OFFCURVE",
"377 3 CURVE",
"377 1 LINE",
"282 -73 OFFCURVE",
"268 -110 OFFCURVE",
"268 -139 CURVE SMOOTH",
"268 -181 OFFCURVE",
"301 -221 OFFCURVE"
);
},
{
closed = 1;
nodes = (
"172 50 CURVE SMOOTH",
"123 50 OFFCURVE",
"100 79 OFFCURVE",
"100 106 CURVE SMOOTH",
"100 124 OFFCURVE",
"105 140 OFFCURVE",
"121 156 CURVE SMOOTH",
"148 183 OFFCURVE",
"191 197 OFFCURVE",
"255 197 CURVE SMOOTH",
"277 197 OFFCURVE",
"299 196 OFFCURVE",
"324 194 CURVE",
"324 129 LINE",
"282 75 OFFCURVE",
"236 50 OFFCURVE"
);
}
);
width = 450;
}
);
leftKerningGroup = a;
note = aogonek;
rightKerningGroup = a;
unicode = 0105;
userData = {
com.typemytype.robofont.layerData = {
background = {
anchors = (
);
components = (
);
contours = (
);
lib = {
};
name = aogonek;
unicodes = (
);
width = 450;
};
};
};
},
{
glyphname = aring;
lastChange = "2016-04-29 04:27:07 +0000";
layers = (
{
layerId = "5A9DA08A-6EB1-451A-A52A-FC81F1DBA669";
paths = (
{
closed = 1;
nodes = (
"284 454 CURVE SMOOTH",
"284 423 OFFCURVE",
"258 398 OFFCURVE",
"219 398 CURVE SMOOTH",
"182 398 OFFCURVE",
"157 426 OFFCURVE",
"157 454 CURVE SMOOTH",
"157 482 OFFCURVE",
"182 510 OFFCURVE",
"219 510 CURVE SMOOTH",
"258 510 OFFCURVE",
"284 485 OFFCURVE"
);
},
{
closed = 1;
nodes = (
"172 50 CURVE SMOOTH",
"123 50 OFFCURVE",
"100 79 OFFCURVE",
"100 106 CURVE SMOOTH",
"100 124 OFFCURVE",
"105 141 OFFCURVE",
"121 156 CURVE",
"147 183 OFFCURVE",
"191 197 OFFCURVE",
"255 197 CURVE SMOOTH",
"277 197 OFFCURVE",
"300 196 OFFCURVE",
"324 194 CURVE",
"324 129 LINE",
"282 75 OFFCURVE",
"236 50 OFFCURVE"
);
},
{
closed = 1;
nodes = (
"368 9 CURVE SMOOTH",
"373 4 OFFCURVE",
"379 1 OFFCURVE",
"386 1 CURVE SMOOTH",
"399 1 OFFCURVE",
"411 12 OFFCURVE",
"411 26 CURVE SMOOTH",
"411 32 OFFCURVE",
"409 38 OFFCURVE",
"404 43 CURVE SMOOTH",
"384 65 OFFCURVE",
"374 93 OFFCURVE",
"374 139 CURVE SMOOTH",
"374 230 LINE SMOOTH",
"374 300 OFFCURVE",
"348 354 OFFCURVE",
"292 378 CURVE",
"315 397 OFFCURVE",
"328 425 OFFCURVE",
"328 454 CURVE SMOOTH",
"328 505 OFFCURVE",
"288 554 OFFCURVE",
"219 554 CURVE SMOOTH",
"152 554 OFFCURVE",
"113 502 OFFCURVE",
"113 454 CURVE SMOOTH",
"113 429 OFFCURVE",
"124 402 OFFCURVE",
"144 383 CURVE",
"132 380 OFFCURVE",
"122 377 OFFCURVE",
"114 375 CURVE SMOOTH",
"103 371 OFFCURVE",
"97 361 OFFCURVE",
"97 350 CURVE SMOOTH",
"97 338 OFFCURVE",
"110 326 OFFCURVE",
"123 326 CURVE SMOOTH",
"126 326 OFFCURVE",
"134 328 OFFCURVE",
"142 331 CURVE SMOOTH",
"157 336 OFFCURVE",
"188 342 OFFCURVE",
"215 342 CURVE SMOOTH",
"284 342 OFFCURVE",
"318 303 OFFCURVE",
"323 244 CURVE",
"299 246 OFFCURVE",
"277 247 OFFCURVE",
"255 247 CURVE SMOOTH",
"173 247 OFFCURVE",
"119 225 OFFCURVE",
"85 192 CURVE SMOOTH",
"59 167 OFFCURVE",
"50 138 OFFCURVE",
"50 106 CURVE SMOOTH",
"50 61 OFFCURVE",
"79 0 OFFCURVE",
"172 0 CURVE SMOOTH",
"237 0 OFFCURVE",
"289 21 OFFCURVE",
"334 65 CURVE",
"342 42 OFFCURVE",
"353 25 OFFCURVE"
);
}
);
width = 450;
}
);
leftKerningGroup = a;
note = aring;
rightKerningGroup = a;
unicode = 00E5;
userData = {
com.typemytype.robofont.layerData = {
background = {
anchors = (
);
components = (
);
contours = (
);
lib = {
};
name = aring;
unicodes = (
);
width = 450;
};
};
};
},
{
glyphname = atilde;
lastChange = "2016-04-29 04:27:07 +0000";
layers = (
{
background = {
paths = (
{
closed = 1;
nodes = (
"172 50 CURVE SMOOTH",
"123 50 OFFCURVE",
"100 79 OFFCURVE",
"100 106 CURVE SMOOTH",
"100 124 OFFCURVE",
"105 140 OFFCURVE",
"121 156 CURVE SMOOTH",
"148 183 OFFCURVE",
"191 197 OFFCURVE",
"255 197 CURVE SMOOTH",
"277 197 OFFCURVE",
"299 196 OFFCURVE",
"324 194 CURVE",
"324 129 LINE",
"282 75 OFFCURVE",
"236 50 OFFCURVE"
);
},
{
closed = 1;
nodes = (
"368 9 CURVE SMOOTH",
"373 4 OFFCURVE",
"379 1 OFFCURVE",
"386 1 CURVE SMOOTH",
"399 1 OFFCURVE",
"411 12 OFFCURVE",
"411 26 CURVE SMOOTH",
"411 32 OFFCURVE",
"409 38 OFFCURVE",
"404 43 CURVE SMOOTH",
"384 65 OFFCURVE",
"374 93 OFFCURVE",
"374 139 CURVE SMOOTH",
"374 230 LINE SMOOTH",
"374 326 OFFCURVE",
"324 392 OFFCURVE",
"215 392 CURVE SMOOTH",
"179 392 OFFCURVE",
"137 382 OFFCURVE",
"114 375 CURVE SMOOTH",
"103 371 OFFCURVE",
"97 361 OFFCURVE",
"97 350 CURVE SMOOTH",
"97 338 OFFCURVE",
"110 326 OFFCURVE",
"123 326 CURVE SMOOTH",
"126 326 OFFCURVE",
"134 328 OFFCURVE",
"142 331 CURVE SMOOTH",
"157 336 OFFCURVE",
"188 342 OFFCURVE",
"215 342 CURVE SMOOTH",
"284 342 OFFCURVE",
"318 304 OFFCURVE",
"323 244 CURVE",
"299 246 OFFCURVE",
"277 247 OFFCURVE",
"255 247 CURVE SMOOTH",
"173 247 OFFCURVE",
"119 225 OFFCURVE",
"85 192 CURVE SMOOTH",
"59 167 OFFCURVE",
"50 138 OFFCURVE",
"50 106 CURVE SMOOTH",
"50 61 OFFCURVE",
"79 0 OFFCURVE",
"172 0 CURVE SMOOTH",
"237 0 OFFCURVE",
"289 21 OFFCURVE",
"334 65 CURVE",
"342 42 OFFCURVE",
"353 25 OFFCURVE"
);
},
{
closed = 1;
nodes = (
"95 534 CURVE SMOOTH",
"93 531 OFFCURVE",
"91 527 OFFCURVE",
"91 522 CURVE SMOOTH",
"91 510 OFFCURVE",
"101 500 OFFCURVE",
"113 500 CURVE SMOOTH",
"120 500 OFFCURVE",
"127 504 OFFCURVE",
"131 510 CURVE SMOOTH",
"144 529 OFFCURVE",
"158 548 OFFCURVE",
"173 548 CURVE SMOOTH",
"187 548 OFFCURVE",
"195 538 OFFCURVE",
"212 526 CURVE SMOOTH",
"237 507 OFFCURVE",
"256 496 OFFCURVE",
"277 496 CURVE SMOOTH",
"303 496 OFFCURVE",
"326 514 OFFCURVE",
"352 554 CURVE SMOOTH",
"355 558 OFFCURVE",
"356 562 OFFCURVE",
"356 566 CURVE SMOOTH",
"356 578 OFFCURVE",
"346 588 OFFCURVE",
"334 588 CURVE SMOOTH",
"327 588 OFFCURVE",
"320 584 OFFCURVE",
"316 578 CURVE SMOOTH",
"302 558 OFFCURVE",
"293 540 OFFCURVE",
"277 540 CURVE SMOOTH",
"264 540 OFFCURVE",
"253 549 OFFCURVE",
"238 560 CURVE SMOOTH",
"211 582 OFFCURVE",
"195 592 OFFCURVE",
"173 592 CURVE SMOOTH",
"148 592 OFFCURVE",
"121 571 OFFCURVE"
);
}
);
};
components = (
{
name = a;
},
{
name = tildecomb;
transform = "{1, 0, 0, 1, 215, 0}";
}
);
layerId = "5A9DA08A-6EB1-451A-A52A-FC81F1DBA669";
width = 450;
}
);
leftKerningGroup = a;
note = atilde;
rightKerningGroup = a;
unicode = 00E3;
userData = {
com.typemytype.robofont.layerData = {
background = {
anchors = (
);
components = (
);
contours = (
);
lib = {
};
name = atilde;
unicodes = (
);
width = 450;
};
};
};
},
{
glyphname = ae;
lastChange = "2016-04-29 04:27:07 +0000";
layers = (
{
layerId = "5A9DA08A-6EB1-451A-A52A-FC81F1DBA669";
paths = (
{
closed = 1;
nodes = (
"527 342 CURVE SMOOTH",
"591 342 OFFCURVE",
"638 296 OFFCURVE",
"638 257 CURVE SMOOTH",
"638 232 OFFCURVE",
"621 220 OFFCURVE",
"581 220 CURVE SMOOTH",
"386 220 LINE",
"398 293 OFFCURVE",
"456 342 OFFCURVE"
);
},
{
closed = 1;
nodes = (
"547 0 CURVE SMOOTH",
"586 0 OFFCURVE",
"625 9 OFFCURVE",
"653 20 CURVE SMOOTH",
"663 24 OFFCURVE",
"669 33 OFFCURVE",
"669 43 CURVE SMOOTH",
"669 56 OFFCURVE",
"657 68 OFFCURVE",
"644 68 CURVE SMOOTH",
"641 68 OFFCURVE",
"638 67 OFFCURVE",
"624 62 CURVE SMOOTH",
"609 57 OFFCURVE",
"580 50 OFFCURVE",
"547 50 CURVE SMOOTH",
"460 50 OFFCURVE",
"395 90 OFFCURVE",
"385 170 CURVE",
"581 170 LINE SMOOTH",
"665 170 OFFCURVE",
"688 207 OFFCURVE",
"688 257 CURVE SMOOTH",
"688 314 OFFCURVE",
"629 392 OFFCURVE",
"527 392 CURVE SMOOTH",
"460 392 OFFCURVE",
"401 360 OFFCURVE",
"366 306 CURVE",
"343 359 OFFCURVE",
"292 392 OFFCURVE",
"215 392 CURVE SMOOTH",
"179 392 OFFCURVE",
"137 382 OFFCURVE",
"114 375 CURVE SMOOTH",
"103 371 OFFCURVE",
"97 361 OFFCURVE",
"97 350 CURVE SMOOTH",
"97 338 OFFCURVE",
"108 326 OFFCURVE",
"122 326 CURVE SMOOTH",
"126 326 OFFCURVE",
"137 329 OFFCURVE",
"151 333 CURVE SMOOTH",
"167 338 OFFCURVE",
"192 342 OFFCURVE",
"215 342 CURVE SMOOTH",
"284 342 OFFCURVE",
"324 304 OFFCURVE",
"330 244 CURVE",
"303 246 OFFCURVE",
"277 247 OFFCURVE",
"255 247 CURVE SMOOTH",
"173 247 OFFCURVE",
"119 225 OFFCURVE",
"85 192 CURVE SMOOTH",
"59 167 OFFCURVE",
"50 138 OFFCURVE",
"50 106 CURVE SMOOTH",
"50 61 OFFCURVE",
"79 0 OFFCURVE",
"172 0 CURVE SMOOTH",
"244 0 OFFCURVE",
"310 31 OFFCURVE",
"367 77 CURVE",
"403 27 OFFCURVE",
"467 0 OFFCURVE"
);
},
{
closed = 1;
nodes = (
"172 50 CURVE SMOOTH",
"123 50 OFFCURVE",
"100 79 OFFCURVE",
"100 106 CURVE SMOOTH",
"100 124 OFFCURVE",
"105 140 OFFCURVE",
"121 156 CURVE SMOOTH",
"148 183 OFFCURVE",
"191 197 OFFCURVE",
"255 197 CURVE SMOOTH",
"278 197 OFFCURVE",
"308 196 OFFCURVE",
"334 194 CURVE",
"334 166 OFFCURVE",
"337 144 OFFCURVE",
"344 124 CURVE",
"294 81 OFFCURVE",
"236 50 OFFCURVE"
);
}
);
width = 745;
}
);
leftKerningGroup = a;
note = ae;
rightKerningGroup = o;
unicode = 00E6;
userData = {
com.typemytype.robofont.layerData = {
background = {
anchors = (
);
components = (
);
contours = (
);
lib = {
};
name = ae;
unicodes = (
);
width = 745;
};
};
};
},
{
glyphname = b;
lastChange = "2016-04-29 04:27:07 +0000";
layers = (
{
layerId = "5A9DA08A-6EB1-451A-A52A-FC81F1DBA669";
paths = (
{
closed = 1;
nodes = (
"268 0 CURVE SMOOTH",
"378 0 OFFCURVE",
"457 75 OFFCURVE",
"457 195 CURVE SMOOTH",
"457 315 OFFCURVE",
"377 392 OFFCURVE",
"281 392 CURVE SMOOTH",
"231 392 OFFCURVE",
"179 367 OFFCURVE",
"135 322 CURVE",
"135 536 LINE SMOOTH",
"135 550 OFFCURVE",
"124 561 OFFCURVE",
"110 561 CURVE SMOOTH",
"97 561 OFFCURVE",
"85 550 OFFCURVE",
"85 536 CURVE SMOOTH",
"85 26 LINE SMOOTH",
"85 13 OFFCURVE",
"97 1 OFFCURVE",
"110 1 CURVE SMOOTH",
"123 1 OFFCURVE",
"134 11 OFFCURVE",
"135 25 CURVE",
"176 8 OFFCURVE",
"220 0 OFFCURVE"
);
},
{
closed = 1;
nodes = (
"268 50 CURVE SMOOTH",
"218 50 OFFCURVE",
"175 60 OFFCURVE",
"135 79 CURVE",
"135 247 LINE",
"175 304 OFFCURVE",
"227 342 OFFCURVE",
"281 342 CURVE SMOOTH",
"353 342 OFFCURVE",
"407 281 OFFCURVE",
"407 195 CURVE SMOOTH",
"407 107 OFFCURVE",
"350 50 OFFCURVE"
);
}
);
width = 505;
}
);
note = b;
rightKerningGroup = o;
unicode = 0062;
userData = {
com.typemytype.robofont.layerData = {
background = {
anchors = (
);
components = (
);
contours = (
);
lib = {
};
name = b;
unicodes = (
);
width = 505;
};
};
};
},
{
color = 6;
glyphname = c;
lastChange = "2016-04-29 04:27:07 +0000";
layers = (
{
anchors = (
{
name = bottom;
position = "{259, 0}";
},
{
name = top;
position = "{242, 392}";
}
);
layerId = "5A9DA08A-6EB1-451A-A52A-FC81F1DBA669";
paths = (
{
closed = 1;
nodes = (
"330 331 CURVE SMOOTH",
"341 328 OFFCURVE",
"345 327 OFFCURVE",
"348 327 CURVE SMOOTH",
"361 327 OFFCURVE",
"374 339 OFFCURVE",
"374 351 CURVE SMOOTH",
"374 362 OFFCURVE",
"368 372 OFFCURVE",
"357 376 CURVE SMOOTH",
"328 386 OFFCURVE",
"292 392 OFFCURVE",
"260 392 CURVE SMOOTH",
"126 392 OFFCURVE",
"49 305 OFFCURVE",
"49 187 CURVE SMOOTH",
"49 84 OFFCURVE",
"122 0 OFFCURVE",
"259 0 CURVE SMOOTH",
"304 0 OFFCURVE",
"340 9 OFFCURVE",
"370 21 CURVE SMOOTH",
"380 25 OFFCURVE",
"386 34 OFFCURVE",
"386 44 CURVE SMOOTH",
"386 57 OFFCURVE",
"374 69 OFFCURVE",
"361 69 CURVE SMOOTH",
"358 69 OFFCURVE",
"355 68 OFFCURVE",
"341 63 CURVE SMOOTH",
"325 57 OFFCURVE",
"296 50 OFFCURVE",
"259 50 CURVE SMOOTH",
"158 50 OFFCURVE",
"99 108 OFFCURVE",
"99 187 CURVE SMOOTH",
"99 277 OFFCURVE",
"158 342 OFFCURVE",
"260 342 CURVE SMOOTH",
"284 342 OFFCURVE",
"307 338 OFFCURVE"
);
}
);
width = 436;
}
);
leftKerningGroup = o;
note = c;
rightKerningGroup = c;
unicode = 0063;
userData = {
com.typemytype.robofont.layerData = {
background = {
anchors = (
);
components = (
);
contours = (
);
lib = {
};
name = c;
unicodes = (
);
width = 436;
};
};
};
},
{
glyphname = cacute;
lastChange = "2016-04-29 04:27:07 +0000";
layers = (
{
background = {
paths = (
{
closed = 1;
nodes = (
"330 331 CURVE SMOOTH",
"341 328 OFFCURVE",
"345 327 OFFCURVE",
"348 327 CURVE SMOOTH",
"361 327 OFFCURVE",
"374 339 OFFCURVE",
"374 351 CURVE SMOOTH",
"374 362 OFFCURVE",
"368 372 OFFCURVE",
"357 376 CURVE SMOOTH",
"328 386 OFFCURVE",
"292 392 OFFCURVE",
"260 392 CURVE SMOOTH",
"126 392 OFFCURVE",
"49 305 OFFCURVE",
"49 187 CURVE SMOOTH",
"49 84 OFFCURVE",
"122 0 OFFCURVE",
"259 0 CURVE SMOOTH",
"304 0 OFFCURVE",
"340 9 OFFCURVE",
"370 21 CURVE SMOOTH",
"380 25 OFFCURVE",
"386 34 OFFCURVE",
"386 44 CURVE SMOOTH",
"386 57 OFFCURVE",
"374 69 OFFCURVE",
"361 69 CURVE SMOOTH",
"358 69 OFFCURVE",
"355 68 OFFCURVE",
"341 63 CURVE SMOOTH",
"325 57 OFFCURVE",
"296 50 OFFCURVE",
"259 50 CURVE SMOOTH",
"158 50 OFFCURVE",
"99 108 OFFCURVE",
"99 187 CURVE SMOOTH",
"99 277 OFFCURVE",
"158 342 OFFCURVE",
"260 342 CURVE SMOOTH",
"284 342 OFFCURVE",
"307 338 OFFCURVE"
);
},
{
closed = 1;
nodes = (
"334 584 CURVE SMOOTH",
"338 588 OFFCURVE",
"340 594 OFFCURVE",
"340 599 CURVE SMOOTH",
"340 610 OFFCURVE",
"329 621 OFFCURVE",
"318 621 CURVE SMOOTH",
"312 621 OFFCURVE",
"306 619 OFFCURVE",
"302 614 CURVE SMOOTH",
"273 583 OFFCURVE",
"246 550 OFFCURVE",
"220 519 CURVE SMOOTH",
"217 515 OFFCURVE",
"215 510 OFFCURVE",
"215 505 CURVE SMOOTH",
"215 495 OFFCURVE",
"225 483 OFFCURVE",
"237 483 CURVE SMOOTH",
"243 483 OFFCURVE",
"250 486 OFFCURVE",
"254 491 CURVE SMOOTH",
"280 522 OFFCURVE",
"307 553 OFFCURVE"
);
}
);
};
components = (
{
name = c;
},
{
name = acutecomb;
transform = "{1, 0, 0, 1, 242, 0}";
}
);
layerId = "5A9DA08A-6EB1-451A-A52A-FC81F1DBA669";
width = 436;
}
);
leftKerningGroup = o;
note = cacute;
rightKerningGroup = c;
unicode = 0107;
userData = {
com.typemytype.robofont.layerData = {
background = {
anchors = (
);
components = (
);
contours = (
);
lib = {
};
name = cacute;
unicodes = (
);
width = 436;
};
};
};
},
{
glyphname = ccaron;
lastChange = "2016-04-29 04:27:07 +0000";
layers = (
{
background = {
paths = (
{
closed = 1;
nodes = (
"244 481 LINE SMOOTH",
"250 481 OFFCURVE",
"256 483 OFFCURVE",
"260 487 CURVE SMOOTH",
"283 510 OFFCURVE",
"320 548 OFFCURVE",
"346 574 CURVE SMOOTH",
"350 579 OFFCURVE",
"352 584 OFFCURVE",
"352 590 CURVE SMOOTH",
"352 602 OFFCURVE",
"342 612 OFFCURVE",
"330 612 CURVE SMOOTH",
"324 612 OFFCURVE",
"319 610 OFFCURVE",
"314 606 CURVE SMOOTH",
"292 584 OFFCURVE",
"263 555 OFFCURVE",
"241 532 CURVE",
"218 555 OFFCURVE",
"190 584 OFFCURVE",
"168 606 CURVE SMOOTH",
"164 610 OFFCURVE",
"158 612 OFFCURVE",
"152 612 CURVE SMOOTH",
"141 612 OFFCURVE",
"130 603 OFFCURVE",
"130 590 CURVE SMOOTH",
"130 584 OFFCURVE",
"132 579 OFFCURVE",
"136 574 CURVE SMOOTH",
"162 548 OFFCURVE",
"198 511 OFFCURVE",
"222 487 CURVE SMOOTH",
"227 483 OFFCURVE",
"232 481 OFFCURVE",
"238 481 CURVE SMOOTH"
);
},
{
closed = 1;
nodes = (
"330 331 CURVE SMOOTH",
"341 328 OFFCURVE",
"345 327 OFFCURVE",
"348 327 CURVE SMOOTH",
"361 327 OFFCURVE",
"374 339 OFFCURVE",
"374 351 CURVE SMOOTH",
"374 362 OFFCURVE",
"368 372 OFFCURVE",
"357 376 CURVE SMOOTH",
"328 386 OFFCURVE",
"292 392 OFFCURVE",
"260 392 CURVE SMOOTH",
"126 392 OFFCURVE",
"49 305 OFFCURVE",
"49 187 CURVE SMOOTH",
"49 84 OFFCURVE",
"122 0 OFFCURVE",
"259 0 CURVE SMOOTH",
"304 0 OFFCURVE",
"340 9 OFFCURVE",
"370 21 CURVE SMOOTH",
"380 25 OFFCURVE",
"386 34 OFFCURVE",
"386 44 CURVE SMOOTH",
"386 57 OFFCURVE",
"374 69 OFFCURVE",
"361 69 CURVE SMOOTH",
"358 69 OFFCURVE",
"355 68 OFFCURVE",
"341 63 CURVE SMOOTH",
"325 57 OFFCURVE",
"296 50 OFFCURVE",
"259 50 CURVE SMOOTH",
"158 50 OFFCURVE",
"99 108 OFFCURVE",
"99 187 CURVE SMOOTH",
"99 277 OFFCURVE",
"158 342 OFFCURVE",
"260 342 CURVE SMOOTH",
"284 342 OFFCURVE",
"307 338 OFFCURVE"
);
}
);
};
components = (
{
name = c;
},
{
name = caroncomb;
transform = "{1, 0, 0, 1, 242, 0}";
}
);
layerId = "5A9DA08A-6EB1-451A-A52A-FC81F1DBA669";
width = 436;
}
);
leftKerningGroup = o;
note = ccaron;
rightKerningGroup = c;
unicode = 010D;
userData = {
com.typemytype.robofont.layerData = {
background = {
anchors = (
);
components = (
);
contours = (
);
lib = {
};
name = ccaron;
unicodes = (
);
width = 436;
};
};
};
},
{
glyphname = ccedilla;
lastChange = "2016-04-29 04:27:07 +0000";
layers = (
{
background = {
paths = (
{
closed = 1;
nodes = (
"330 331 CURVE SMOOTH",
"341 328 OFFCURVE",
"345 327 OFFCURVE",
"348 327 CURVE SMOOTH",
"361 327 OFFCURVE",
"374 339 OFFCURVE",
"374 351 CURVE SMOOTH",
"374 362 OFFCURVE",
"368 372 OFFCURVE",
"357 376 CURVE SMOOTH",
"328 386 OFFCURVE",
"292 392 OFFCURVE",
"260 392 CURVE SMOOTH",
"126 392 OFFCURVE",
"49 305 OFFCURVE",
"49 187 CURVE SMOOTH",
"49 84 OFFCURVE",
"122 0 OFFCURVE",
"259 0 CURVE SMOOTH",
"304 0 OFFCURVE",
"340 9 OFFCURVE",
"370 21 CURVE SMOOTH",
"380 25 OFFCURVE",
"386 34 OFFCURVE",
"386 44 CURVE SMOOTH",
"386 57 OFFCURVE",
"374 69 OFFCURVE",
"361 69 CURVE SMOOTH",
"358 69 OFFCURVE",
"355 68 OFFCURVE",
"341 63 CURVE SMOOTH",
"325 57 OFFCURVE",
"296 50 OFFCURVE",
"259 50 CURVE SMOOTH",
"158 50 OFFCURVE",
"99 108 OFFCURVE",
"99 187 CURVE SMOOTH",
"99 277 OFFCURVE",
"158 342 OFFCURVE",
"260 342 CURVE SMOOTH",
"284 342 OFFCURVE",
"307 338 OFFCURVE"
);
},
{
closed = 1;
nodes = (
"280 -138 CURVE SMOOTH",
"285 -134 OFFCURVE",
"287 -128 OFFCURVE",
"287 -122 CURVE SMOOTH",
"287 -110 OFFCURVE",
"276 -100 OFFCURVE",
"265 -100 CURVE SMOOTH",
"259 -100 OFFCURVE",
"254 -102 OFFCURVE",
"250 -106 CURVE SMOOTH",
"223 -132 OFFCURVE",
"172 -182 OFFCURVE",
"148 -206 CURVE SMOOTH",
"143 -211 OFFCURVE",
"142 -216 OFFCURVE",
"142 -222 CURVE SMOOTH",
"142 -235 OFFCURVE",
"153 -244 OFFCURVE",
"164 -244 CURVE SMOOTH",
"170 -244 OFFCURVE",
"176 -242 OFFCURVE",
"180 -238 CURVE SMOOTH",
"202 -215 OFFCURVE",
"253 -164 OFFCURVE"
);
}
);
};
components = (
{
name = c;
},
{
name = cedillacomb;
transform = "{1, 0, 0, 1, 259, 0}";
}
);
layerId = "5A9DA08A-6EB1-451A-A52A-FC81F1DBA669";
width = 436;
}
);
leftKerningGroup = o;
note = ccedilla;
rightKerningGroup = c;
unicode = 00E7;
userData = {
com.typemytype.robofont.layerData = {
background = {
anchors = (
);
components = (
);
contours = (
);
lib = {
};
name = ccedilla;
unicodes = (
);
width = 436;
};
};
};
},
{
glyphname = d;
lastChange = "2016-04-29 04:27:07 +0000";
layers = (
{
layerId = "5A9DA08A-6EB1-451A-A52A-FC81F1DBA669";
paths = (
{
closed = 1;
nodes = (
"395 0 CURVE SMOOTH",
"409 0 OFFCURVE",
"420 11 OFFCURVE",
"420 25 CURVE SMOOTH",
"420 536 LINE SMOOTH",
"420 550 OFFCURVE",
"409 561 OFFCURVE",
"395 561 CURVE SMOOTH",
"382 561 OFFCURVE",
"370 550 OFFCURVE",
"370 536 CURVE SMOOTH",
"370 356 LINE",
"333 379 OFFCURVE",
"293 392 OFFCURVE",
"245 392 CURVE SMOOTH",
"133 392 OFFCURVE",
"49 307 OFFCURVE",
"49 188 CURVE SMOOTH",
"49 73 OFFCURVE",
"126 0 OFFCURVE",
"224 0 CURVE SMOOTH",
"283 0 OFFCURVE",
"331 26 OFFCURVE",
"370 67 CURVE",
"370 25 LINE SMOOTH",
"370 12 OFFCURVE",
"382 0 OFFCURVE"
);
},
{
closed = 1;
nodes = (
"224 50 CURVE SMOOTH",
"152 50 OFFCURVE",
"99 106 OFFCURVE",
"99 188 CURVE SMOOTH",
"99 277 OFFCURVE",
"161 342 OFFCURVE",
"245 342 CURVE SMOOTH",
"295 342 OFFCURVE",
"333 325 OFFCURVE",
"370 296 CURVE",
"370 143 LINE",
"336 88 OFFCURVE",
"291 50 OFFCURVE"
);
}
);
width = 505;
}
);
leftKerningGroup = o;
note = d;
unicode = 0064;
userData = {
com.typemytype.robofont.layerData = {
background = {
anchors = (
);
components = (
);
contours = (
);
lib = {
};
name = d;
unicodes = (
);
width = 505;
};
};
};
},
